<?xml version="1.0" encoding="us-ascii" standalone="no"?><svg xmlns="http://www.w3.org/2000/svg" xmlns:xlink="http://www.w3.org/1999/xlink" contentStyleType="text/css" height="556.25px" preserveAspectRatio="none" style="width:593px;height:556px;" version="1.1" viewBox="0 0 593 556" width="593.75px" zoomAndPan="magnify"><defs><linearGradient id="g1pjm1lpyjl3a60" x1="50%" x2="50%" y1="0%" y2="100%"><stop offset="0%" stop-color="#F18E3E"/><stop offset="100%" stop-color="#EC7211"/></linearGradient></defs><g><!--class DataRewinder--><g id="elem_DataRewinder"><rect codeLine="2" fill="url(#g1pjm1lpyjl3a60)" height="75.768" id="DataRewinder" rx="4.1667" ry="4.1667" style="stroke:#EC7211;stroke-width:1.0416666666666667;" width="145.8333" x="311.9792" y="10.4167"/><rect fill="url(#g1pjm1lpyjl3a60)" height="34.759" rx="4.1667" ry="4.1667" style="stroke:url(#g1pjm1lpyjl3a60);stroke-width:1.0416666666666667;" width="145.8333" x="311.9792" y="10.4167"/><rect fill="url(#g1pjm1lpyjl3a60)" height="4.1667" style="stroke:url(#g1pjm1lpyjl3a60);stroke-width:1.0416666666666667;" width="145.8333" x="311.9792" y="41.009"/><rect codeLine="2" fill="none" height="75.768" id="DataRewinder" rx="4.1667" ry="4.1667" style="stroke:#EC7211;stroke-width:1.0416666666666667;" width="145.8333" x="311.9792" y="10.4167"/><ellipse cx="326.5625" cy="27.7962" fill="#B4A7E5" rx="10.4167" ry="10.4167" style="stroke:#A80036;stroke-width:1.0416666666666667;"/><path d="M323.4456,24.958 L323.4456,23.3711 L328.8717,23.3711 L328.8717,24.958 L327.0589,24.958 L327.0589,30.8968 L328.8717,30.8968 L328.8717,32.4837 L323.4456,32.4837 L323.4456,30.8968 L325.2584,30.8968 L325.2584,24.958 Z " fill="#000000"/><text fill="#FFFFFF" font-family="Verdana" font-size="11.4583" font-style="italic" lengthAdjust="spacing" textLength="82.2917" x="345.3125" y="32.3532">DataRewinder</text><rect fill="none" height="27.6917" style="stroke:#EC7211;stroke-width:1.0416666666666667;stroke-dasharray:2.0,2.0;" width="19.7917" x="441.1458" y="7.2917"/><text fill="#4E5D6C" font-family="Verdana" font-size="12.5" font-style="italic" lengthAdjust="spacing" textLength="7.2917" x="447.3958" y="26.1088">T</text><line style="stroke:#EC7211;stroke-width:1.0416666666666667;" x1="313.0208" x2="456.7708" y1="45.1757" y2="45.1757"/><line style="stroke:#EC7211;stroke-width:1.0416666666666667;" x1="313.0208" x2="456.7708" y1="53.509" y2="53.509"/><text fill="#FFFFFF" font-family="Verdana" font-size="11.4583" lengthAdjust="spacing" textLength="110.4167" x="323.4375" y="74.4039">T rewindAndGet();</text></g><!--class Factory--><g id="elem_Factory"><rect codeLine="5" fill="url(#g1pjm1lpyjl3a60)" height="100.1104" id="Factory" rx="4.1667" ry="4.1667" style="stroke:#EC7211;stroke-width:1.0416666666666667;" width="216.6667" x="160.9375" y="148.6875"/><rect fill="url(#g1pjm1lpyjl3a60)" height="34.759" rx="4.1667" ry="4.1667" style="stroke:url(#g1pjm1lpyjl3a60);stroke-width:1.0416666666666667;" width="216.6667" x="160.9375" y="148.6875"/><rect fill="url(#g1pjm1lpyjl3a60)" height="4.1667" style="stroke:url(#g1pjm1lpyjl3a60);stroke-width:1.0416666666666667;" width="216.6667" x="160.9375" y="179.2798"/><rect codeLine="5" fill="none" height="100.1104" id="Factory" rx="4.1667" ry="4.1667" style="stroke:#EC7211;stroke-width:1.0416666666666667;" width="216.6667" x="160.9375" y="148.6875"/><ellipse cx="227.6042" cy="166.067" fill="#B4A7E5" rx="10.4167" ry="10.4167" style="stroke:#A80036;stroke-width:1.0416666666666667;"/><path d="M224.4873,163.2289 L224.4873,161.642 L229.9133,161.642 L229.9133,163.2289 L228.1006,163.2289 L228.1006,169.1676 L229.9133,169.1676 L229.9133,170.7545 L224.4873,170.7545 L224.4873,169.1676 L226.3,169.1676 L226.3,163.2289 Z " fill="#000000"/><text fill="#FFFFFF" font-family="Verdana" font-size="11.4583" font-style="italic" lengthAdjust="spacing" textLength="42.7083" x="252.6042" y="170.624">Factory</text><rect fill="none" height="27.6917" style="stroke:#EC7211;stroke-width:1.0416666666666667;stroke-dasharray:2.0,2.0;" width="19.7917" x="360.9375" y="145.5625"/><text fill="#4E5D6C" font-family="Verdana" font-size="12.5" font-style="italic" lengthAdjust="spacing" textLength="7.2917" x="367.1875" y="164.3796">T</text><line style="stroke:#EC7211;stroke-width:1.0416666666666667;" x1="161.9792" x2="376.5625" y1="183.4465" y2="183.4465"/><line style="stroke:#EC7211;stroke-width:1.0416666666666667;" x1="161.9792" x2="376.5625" y1="191.7798" y2="191.7798"/><text fill="#FFFFFF" font-family="Verdana" font-size="11.4583" lengthAdjust="spacing" textLength="193.75" x="172.3958" y="212.6747">DataRewinder&lt;T&gt; build(T data);</text><text fill="#FFFFFF" font-family="Verdana" font-size="11.4583" lengthAdjust="spacing" textLength="154.1667" x="172.3958" y="237.0171">Class&lt;T&gt; getDataClass();</text></g><!--class Registry--><g id="elem_Registry"><rect codeLine="9" fill="url(#g1pjm1lpyjl3a60)" height="75.768" id="Registry" rx="4.1667" ry="4.1667" style="stroke:#EC7211;stroke-width:1.0416666666666667;" width="309.375" x="114.5833" y="473.9063"/><rect fill="url(#g1pjm1lpyjl3a60)" height="34.759" rx="4.1667" ry="4.1667" style="stroke:url(#g1pjm1lpyjl3a60);stroke-width:1.0416666666666667;" width="309.375" x="114.5833" y="473.9063"/><rect fill="url(#g1pjm1lpyjl3a60)" height="4.1667" style="stroke:url(#g1pjm1lpyjl3a60);stroke-width:1.0416666666666667;" width="309.375" x="114.5833" y="504.4986"/><rect codeLine="9" fill="none" height="75.768" id="Registry" rx="4.1667" ry="4.1667" style="stroke:#EC7211;stroke-width:1.0416666666666667;" width="309.375" x="114.5833" y="473.9063"/><ellipse cx="235.4167" cy="491.2858" fill="#ADD1B2" rx="10.4167" ry="10.4167" style="stroke:#A80036;stroke-width:1.0416666666666667;"/><path d="M237.3271,495.7108 Q236.8998,495.9305 236.4299,496.0404 Q235.9599,496.1503 235.4411,496.1503 Q233.5978,496.1503 232.6274,494.9357 Q231.6569,493.7211 231.6569,491.4261 Q231.6569,489.1251 232.6274,487.9105 Q233.5978,486.6959 235.4411,486.6959 Q235.9599,486.6959 236.436,486.8058 Q236.912,486.9156 237.3271,487.1354 L237.3271,489.1373 Q236.8632,488.7101 236.4268,488.5117 Q235.9904,488.3133 235.5265,488.3133 Q234.5378,488.3133 234.0342,489.0976 Q233.5307,489.8819 233.5307,491.4261 Q233.5307,492.9642 234.0342,493.7485 Q234.5378,494.5328 235.5265,494.5328 Q235.9904,494.5328 236.4268,494.3345 Q236.8632,494.1361 237.3271,493.7089 Z " fill="#000000"/><text fill="#FFFFFF" font-family="Verdana" font-size="11.4583" lengthAdjust="spacing" textLength="48.9583" x="260.4167" y="495.8428">Registry</text><line style="stroke:#EC7211;stroke-width:1.0416666666666667;" x1="115.625" x2="422.9167" y1="508.6653" y2="508.6653"/><line style="stroke:#EC7211;stroke-width:1.0416666666666667;" x1="115.625" x2="422.9167" y1="516.9986" y2="516.9986"/><ellipse cx="126.0417" cy="534.8989" fill="#84BE84" rx="3.125" ry="3.125" style="stroke:#038048;stroke-width:1.0416666666666667;"/><text fill="#FFFFFF" font-family="Verdana" font-size="11.4583" lengthAdjust="spacing" textLength="272.9167" x="139.5833" y="537.8935">&lt;X&gt; DataRewinder&lt;X&gt; getRewinder(X data);</text></g><!--class DataRewinderRegistry--><g id="elem_DataRewinderRegistry"><rect codeLine="12" fill="url(#g1pjm1lpyjl3a60)" height="100.1104" id="DataRewinderRegistry" rx="4.1667" ry="4.1667" style="stroke:#EC7211;stroke-width:1.0416666666666667;" width="523.9583" x="7.2917" y="311.3021"/><rect fill="url(#g1pjm1lpyjl3a60)" height="34.759" rx="4.1667" ry="4.1667" style="stroke:url(#g1pjm1lpyjl3a60);stroke-width:1.0416666666666667;" width="523.9583" x="7.2917" y="311.3021"/><rect fill="url(#g1pjm1lpyjl3a60)" height="4.1667" style="stroke:url(#g1pjm1lpyjl3a60);stroke-width:1.0416666666666667;" width="523.9583" x="7.2917" y="341.8944"/><rect codeLine="12" fill="none" height="100.1104" id="DataRewinderRegistry" rx="4.1667" ry="4.1667" style="stroke:#EC7211;stroke-width:1.0416666666666667;" width="523.9583" x="7.2917" y="311.3021"/><ellipse cx="194.2708" cy="328.6816" fill="#ADD1B2" rx="10.4167" ry="10.4167" style="stroke:#A80036;stroke-width:1.0416666666666667;"/><path d="M196.1812,333.1066 Q195.754,333.3264 195.284,333.4362 Q194.814,333.5461 194.2952,333.5461 Q192.452,333.5461 191.4815,332.3315 Q190.5111,331.1169 190.5111,328.822 Q190.5111,326.5209 191.4815,325.3063 Q192.452,324.0917 194.2952,324.0917 Q194.814,324.0917 195.2901,324.2016 Q195.7662,324.3115 196.1812,324.5312 L196.1812,326.5332 Q195.7174,326.1059 195.281,325.9075 Q194.8446,325.7092 194.3807,325.7092 Q193.3919,325.7092 192.8884,326.4935 Q192.3848,327.2778 192.3848,328.822 Q192.3848,330.3601 192.8884,331.1444 Q193.3919,331.9287 194.3807,331.9287 Q194.8446,331.9287 195.281,331.7303 Q195.7174,331.5319 196.1812,331.1047 Z " fill="#000000"/><text fill="#FFFFFF" font-family="Verdana" font-size="11.4583" lengthAdjust="spacing" textLength="131.25" x="219.2708" y="333.2386">DataRewinderRegistry</text><line style="stroke:#EC7211;stroke-width:1.0416666666666667;" x1="8.3333" x2="530.2083" y1="346.0611" y2="346.0611"/><line style="stroke:#EC7211;stroke-width:1.0416666666666667;" x1="8.3333" x2="530.2083" y1="354.3944" y2="354.3944"/><rect fill="#F24D5C" height="6.25" style="stroke:#C82930;stroke-width:1.0416666666666667;" width="6.25" x="15.625" y="369.1698"/><text fill="#FFFFFF" font-family="Verdana" font-size="11.4583" lengthAdjust="spacing" textLength="487.5" x="32.2917" y="375.2893">final Map&lt;Class&lt;?&gt;, DataRewinder.Factory&lt;?&gt;&gt; rewinders = new HashMap&lt;&gt;();</text><ellipse cx="18.75" cy="396.6371" fill="#84BE84" rx="3.125" ry="3.125" style="stroke:#038048;stroke-width:1.0416666666666667;"/><text fill="#FFFFFF" font-family="Verdana" font-size="11.4583" lengthAdjust="spacing" textLength="306.25" x="32.2917" y="399.6317">synchronized &lt;T&gt; DataRewinder&lt;T&gt; build(T data);</text></g><!--class InputStreamRewinder--><g id="elem_InputStreamRewinder"><rect fill="url(#g1pjm1lpyjl3a60)" height="51.4257" id="InputStreamRewinder" rx="4.1667" ry="4.1667" style="stroke:#EC7211;stroke-width:1.0416666666666667;" width="171.875" x="414.5833" y="173.0313"/><rect fill="url(#g1pjm1lpyjl3a60)" height="34.759" rx="4.1667" ry="4.1667" style="stroke:url(#g1pjm1lpyjl3a60);stroke-width:1.0416666666666667;" width="171.875" x="414.5833" y="173.0313"/><rect fill="url(#g1pjm1lpyjl3a60)" height="4.1667" style="stroke:url(#g1pjm1lpyjl3a60);stroke-width:1.0416666666666667;" width="171.875" x="414.5833" y="203.6236"/><rect fill="none" height="51.4257" id="InputStreamRewinder" rx="4.1667" ry="4.1667" style="stroke:#EC7211;stroke-width:1.0416666666666667;" width="171.875" x="414.5833" y="173.0313"/><ellipse cx="429.1667" cy="190.4108" fill="#ADD1B2" rx="10.4167" ry="10.4167" style="stroke:#A80036;stroke-width:1.0416666666666667;"/><path d="M431.0771,194.8358 Q430.6498,195.0555 430.1799,195.1654 Q429.7099,195.2753 429.1911,195.2753 Q427.3478,195.2753 426.3774,194.0607 Q425.4069,192.8461 425.4069,190.5511 Q425.4069,188.2501 426.3774,187.0355 Q427.3478,185.8209 429.1911,185.8209 Q429.7099,185.8209 430.186,185.9308 Q430.662,186.0406 431.0771,186.2604 L431.0771,188.2623 Q430.6132,187.8351 430.1768,187.6367 Q429.7404,187.4383 429.2765,187.4383 Q428.2878,187.4383 427.7842,188.2226 Q427.2807,189.0069 427.2807,190.5511 Q427.2807,192.0892 427.7842,192.8735 Q428.2878,193.6578 429.2765,193.6578 Q429.7404,193.6578 430.1768,193.4595 Q430.6132,193.2611 431.0771,192.8339 Z " fill="#000000"/><text fill="#FFFFFF" font-family="Verdana" font-size="11.4583" lengthAdjust="spacing" textLength="130.2083" x="447.9167" y="194.9678">InputStreamRewinder</text><line style="stroke:#EC7211;stroke-width:1.0416666666666667;" x1="415.625" x2="585.4167" y1="207.7903" y2="207.7903"/><line style="stroke:#EC7211;stroke-width:1.0416666666666667;" x1="415.625" x2="585.4167" y1="216.1236" y2="216.1236"/></g><!--reverse link DataRewinderRegistry to Registry--><g id="link_DataRewinderRegistry_Registry"><path codeLine="16" d="M269.2708,424.2917 C269.2708,444.5208 269.2708,455.0313 269.2708,473.7708 " fill="none" id="DataRewinderRegistry-backto-Registry" style="stroke:#EC7211;stroke-width:3.125;"/><polygon fill="#EC7211" points="269.2708,411.7917,265.1042,418.0417,269.2708,424.2917,273.4375,418.0417,269.2708,411.7917" style="stroke:#EC7211;stroke-width:3.125;"/></g><!--reverse link Factory to DataRewinderRegistry--><g id="link_Factory_DataRewinderRegistry"><path codeLine="17" d="M269.2708,261.7604 C269.2708,281.3854 269.2708,291.3958 269.2708,311 " fill="none" id="Factory-backto-DataRewinderRegistry" style="stroke:#EC7211;stroke-width:3.125;"/><polygon fill="#EC7211" points="269.2708,249.2604,265.1042,255.5104,269.2708,261.7604,273.4375,255.5104,269.2708,249.2604" style="stroke:#EC7211;stroke-width:3.125;"/></g><!--reverse link DataRewinder to Factory--><g id="link_DataRewinder_Factory"><path codeLine="18" d="M348.3386,96.2565 C333.7553,114.9753 323.5417,128.0625 307.8021,148.2604 " fill="none" id="DataRewinder-backto-Factory" style="stroke:#EC7211;stroke-width:3.125;"/><polygon fill="#EC7211" points="356.0208,86.3958,348.8928,88.7654,348.3386,96.2565,355.4666,93.8869,356.0208,86.3958" style="stroke:#EC7211;stroke-width:3.125;"/></g><!--reverse link DataRewinder to InputStreamRewinder--><g id="link_DataRewinder_InputStreamRewinder"><path codeLine="19" d="M425.2996,101.1826 C446.31,128.1306 462.6458,149.1042 481.0625,172.7292 " fill="none" id="DataRewinder-backto-InputStreamRewinder" style="stroke:#EC7211;stroke-width:3.125;stroke-dasharray:7.0,7.0;"/><polygon fill="none" points="413.7708,86.3958,420.3707,105.0256,430.2286,97.3397,413.7708,86.3958" style="stroke:#EC7211;stroke-width:3.125;"/></g><!--SRC=[XOzDJuGm68Jl_HNZ3J_W3uZT68qV1oyh1wwly2uqieMq9GHr_xjRbYQB8V7KTZhpPCP-AWtJMXONhkOzWmORjuPqnK9fnsP71UEH76rvKBfaasOItmB8O2RbNfVFxABBMt4uIpnHuLep1lDVm4UlcZBAK1xrOn9uQCXQ_rEny-RfVO9ELsovKjQPqTE0QwIvN5BpAHkUKHxO0N1kNi9Yx9Ic1c_KfQSU6tcpy2TXpaRAUJORYpje7l12jlPH6KrBV3axwg8shLPVNCAl-cV_GOH6YFiklbejAzR4sJ_t4_EvGX6lkklTkpDC-w0XwRlaPzdk5m00]--></g></svg>