<?xml version="1.0" encoding="us-ascii" standalone="no"?><svg xmlns="http://www.w3.org/2000/svg" xmlns:xlink="http://www.w3.org/1999/xlink" contentStyleType="text/css" height="755.2083px" preserveAspectRatio="none" style="width:1208px;height:755px;" version="1.1" viewBox="0 0 1208 755" width="1208.3333px" zoomAndPan="magnify"><defs><linearGradient id="ga7itx9jujtyo0" x1="50%" x2="50%" y1="0%" y2="100%"><stop offset="0%" stop-color="#F18E3E"/><stop offset="100%" stop-color="#EC7211"/></linearGradient></defs><g><!--class DiskCache--><g id="elem_DiskCache"><rect codeLine="1" fill="url(#ga7itx9jujtyo0)" height="148.7951" id="DiskCache" rx="4.1667" ry="4.1667" style="stroke:#EC7211;stroke-width:1.0416666666666667;" width="218.75" x="222.9167" y="7.2917"/><rect fill="url(#ga7itx9jujtyo0)" height="34.759" rx="4.1667" ry="4.1667" style="stroke:url(#ga7itx9jujtyo0);stroke-width:1.0416666666666667;" width="218.75" x="222.9167" y="7.2917"/><rect fill="url(#ga7itx9jujtyo0)" height="4.1667" style="stroke:url(#ga7itx9jujtyo0);stroke-width:1.0416666666666667;" width="218.75" x="222.9167" y="37.884"/><rect codeLine="1" fill="none" height="148.7951" id="DiskCache" rx="4.1667" ry="4.1667" style="stroke:#EC7211;stroke-width:1.0416666666666667;" width="218.75" x="222.9167" y="7.2917"/><ellipse cx="292.7083" cy="24.6712" fill="#B4A7E5" rx="10.4167" ry="10.4167" style="stroke:#181818;stroke-width:1.0416666666666667;"/><path d="M289.5915,21.833 L289.5915,20.2461 L295.0175,20.2461 L295.0175,21.833 L293.2048,21.833 L293.2048,27.7718 L295.0175,27.7718 L295.0175,29.3587 L289.5915,29.3587 L289.5915,27.7718 L291.4042,27.7718 L291.4042,21.833 Z " fill="#000000"/><text fill="#FFFFFF" font-family="Verdana" font-size="11.4583" font-style="italic" lengthAdjust="spacing" textLength="60.4167" x="317.7083" y="29.2282">DiskCache</text><line style="stroke:#EC7211;stroke-width:1.0416666666666667;" x1="223.9583" x2="440.625" y1="42.0507" y2="42.0507"/><line style="stroke:#EC7211;stroke-width:1.0416666666666667;" x1="223.9583" x2="440.625" y1="50.384" y2="50.384"/><text fill="#FFFFFF" font-family="Verdana" font-size="11.4583" lengthAdjust="spacing" textLength="107.2917" x="234.375" y="71.2789">File get(Key key);</text><text fill="#FFFFFF" font-family="Verdana" font-size="11.4583" lengthAdjust="spacing" textLength="195.8333" x="234.375" y="95.6212">void put(Key key, Writer writer);</text><text fill="#FFFFFF" font-family="Verdana" font-size="11.4583" lengthAdjust="spacing" textLength="130.2083" x="234.375" y="119.9636">void delete(Key key);</text><text fill="#FFFFFF" font-family="Verdana" font-size="11.4583" lengthAdjust="spacing" textLength="73.9583" x="234.375" y="144.3059">void clear();</text></g><!--class Factory--><g id="elem_Factory"><rect codeLine="7" fill="url(#ga7itx9jujtyo0)" height="75.768" id="Factory" rx="4.1667" ry="4.1667" style="stroke:#EC7211;stroke-width:1.0416666666666667;" width="132.2917" x="281.7708" y="218.5833"/><rect fill="url(#ga7itx9jujtyo0)" height="34.759" rx="4.1667" ry="4.1667" style="stroke:url(#ga7itx9jujtyo0);stroke-width:1.0416666666666667;" width="132.2917" x="281.7708" y="218.5833"/><rect fill="url(#ga7itx9jujtyo0)" height="4.1667" style="stroke:url(#ga7itx9jujtyo0);stroke-width:1.0416666666666667;" width="132.2917" x="281.7708" y="249.1757"/><rect codeLine="7" fill="none" height="75.768" id="Factory" rx="4.1667" ry="4.1667" style="stroke:#EC7211;stroke-width:1.0416666666666667;" width="132.2917" x="281.7708" y="218.5833"/><ellipse cx="317.9167" cy="235.9628" fill="#B4A7E5" rx="10.4167" ry="10.4167" style="stroke:#181818;stroke-width:1.0416666666666667;"/><path d="M314.7998,233.1247 L314.7998,231.5378 L320.2258,231.5378 L320.2258,233.1247 L318.4131,233.1247 L318.4131,239.0634 L320.2258,239.0634 L320.2258,240.6503 L314.7998,240.6503 L314.7998,239.0634 L316.6125,239.0634 L316.6125,233.1247 Z " fill="#000000"/><text fill="#FFFFFF" font-family="Verdana" font-size="11.4583" font-style="italic" lengthAdjust="spacing" textLength="42.7083" x="341.4583" y="240.5199">Factory</text><line style="stroke:#EC7211;stroke-width:1.0416666666666667;" x1="282.8125" x2="413.0208" y1="253.3423" y2="253.3423"/><line style="stroke:#EC7211;stroke-width:1.0416666666666667;" x1="282.8125" x2="413.0208" y1="261.6757" y2="261.6757"/><text fill="#FFFFFF" font-family="Verdana" font-size="11.4583" lengthAdjust="spacing" textLength="109.375" x="293.2292" y="282.5706">DiskCache build();</text></g><!--class Writer--><g id="elem_Writer"><rect codeLine="10" fill="url(#ga7itx9jujtyo0)" height="75.768" id="Writer" rx="4.1667" ry="4.1667" style="stroke:#EC7211;stroke-width:1.0416666666666667;" width="220.8333" x="478.125" y="43.8021"/><rect fill="url(#ga7itx9jujtyo0)" height="34.759" rx="4.1667" ry="4.1667" style="stroke:url(#ga7itx9jujtyo0);stroke-width:1.0416666666666667;" width="220.8333" x="478.125" y="43.8021"/><rect fill="url(#ga7itx9jujtyo0)" height="4.1667" style="stroke:url(#ga7itx9jujtyo0);stroke-width:1.0416666666666667;" width="220.8333" x="478.125" y="74.3944"/><rect codeLine="10" fill="none" height="75.768" id="Writer" rx="4.1667" ry="4.1667" style="stroke:#EC7211;stroke-width:1.0416666666666667;" width="220.8333" x="478.125" y="43.8021"/><ellipse cx="560.9375" cy="61.1816" fill="#B4A7E5" rx="10.4167" ry="10.4167" style="stroke:#181818;stroke-width:1.0416666666666667;"/><path d="M557.8206,58.3435 L557.8206,56.7565 L563.2467,56.7565 L563.2467,58.3435 L561.4339,58.3435 L561.4339,64.2822 L563.2467,64.2822 L563.2467,65.8691 L557.8206,65.8691 L557.8206,64.2822 L559.6334,64.2822 L559.6334,58.3435 Z " fill="#000000"/><text fill="#FFFFFF" font-family="Verdana" font-size="11.4583" font-style="italic" lengthAdjust="spacing" textLength="36.4583" x="585.9375" y="65.7386">Writer</text><line style="stroke:#EC7211;stroke-width:1.0416666666666667;" x1="479.1667" x2="697.9167" y1="78.5611" y2="78.5611"/><line style="stroke:#EC7211;stroke-width:1.0416666666666667;" x1="479.1667" x2="697.9167" y1="86.8944" y2="86.8944"/><text fill="#FFFFFF" font-family="Verdana" font-size="11.4583" lengthAdjust="spacing" textLength="197.9167" x="489.5833" y="107.7893">boolean write(@NonNull File file);</text></g><!--class DiskLruCacheFactory--><g id="elem_DiskLruCacheFactory"><rect codeLine="13" fill="url(#ga7itx9jujtyo0)" height="100.1104" id="DiskLruCacheFactory" rx="4.1667" ry="4.1667" style="stroke:#EC7211;stroke-width:1.0416666666666667;" width="294.7917" x="217.1875" y="534.3229"/><rect fill="url(#ga7itx9jujtyo0)" height="34.759" rx="4.1667" ry="4.1667" style="stroke:url(#ga7itx9jujtyo0);stroke-width:1.0416666666666667;" width="294.7917" x="217.1875" y="534.3229"/><rect fill="url(#ga7itx9jujtyo0)" height="4.1667" style="stroke:url(#ga7itx9jujtyo0);stroke-width:1.0416666666666667;" width="294.7917" x="217.1875" y="564.9153"/><rect codeLine="13" fill="none" height="100.1104" id="DiskLruCacheFactory" rx="4.1667" ry="4.1667" style="stroke:#EC7211;stroke-width:1.0416666666666667;" width="294.7917" x="217.1875" y="534.3229"/><ellipse cx="293.2292" cy="551.7024" fill="#ADD1B2" rx="10.4167" ry="10.4167" style="stroke:#181818;stroke-width:1.0416666666666667;"/><path d="M295.1396,556.1275 Q294.7123,556.3472 294.2424,556.4571 Q293.7724,556.5669 293.2536,556.5669 Q291.4103,556.5669 290.4399,555.3523 Q289.4694,554.1377 289.4694,551.8428 Q289.4694,549.5418 290.4399,548.3272 Q291.4103,547.1126 293.2536,547.1126 Q293.7724,547.1126 294.2485,547.2224 Q294.7245,547.3323 295.1396,547.552 L295.1396,549.554 Q294.6757,549.1267 294.2393,548.9284 Q293.8029,548.73 293.339,548.73 Q292.3503,548.73 291.8467,549.5143 Q291.3432,550.2986 291.3432,551.8428 Q291.3432,553.3809 291.8467,554.1652 Q292.3503,554.9495 293.339,554.9495 Q293.8029,554.9495 294.2393,554.7511 Q294.6757,554.5528 295.1396,554.1255 Z " fill="#000000"/><text fill="#FFFFFF" font-family="Verdana" font-size="11.4583" lengthAdjust="spacing" textLength="123.9583" x="318.2292" y="556.2595">DiskLruCacheFactory</text><line style="stroke:#EC7211;stroke-width:1.0416666666666667;" x1="218.2292" x2="510.9375" y1="569.0819" y2="569.0819"/><rect fill="none" height="6.25" style="stroke:#C82930;stroke-width:1.0416666666666667;" width="6.25" x="225.5208" y="583.8573"/><text fill="#FFFFFF" font-family="Verdana" font-size="11.4583" lengthAdjust="spacing" textLength="258.3333" x="242.1875" y="589.9768">CacheDirectoryGetter cacheDirectoryGetter</text><line style="stroke:#EC7211;stroke-width:1.0416666666666667;" x1="218.2292" x2="510.9375" y1="601.7576" y2="601.7576"/><ellipse cx="228.6458" cy="619.6579" fill="#84BE84" rx="3.125" ry="3.125" style="stroke:#038048;stroke-width:1.0416666666666667;"/><text fill="#FFFFFF" font-family="Verdana" font-size="11.4583" lengthAdjust="spacing" textLength="104.1667" x="242.1875" y="622.6525">DiskCache build()</text></g><!--class InternalCacheDiskCacheFactory--><g id="elem_InternalCacheDiskCacheFactory"><rect codeLine="17" fill="url(#ga7itx9jujtyo0)" height="51.4257" id="InternalCacheDiskCacheFactory" rx="4.1667" ry="4.1667" style="stroke:#EC7211;stroke-width:1.0416666666666667;" width="230.2083" x="249.4792" y="696.9271"/><rect fill="url(#ga7itx9jujtyo0)" height="34.759" rx="4.1667" ry="4.1667" style="stroke:url(#ga7itx9jujtyo0);stroke-width:1.0416666666666667;" width="230.2083" x="249.4792" y="696.9271"/><rect fill="url(#ga7itx9jujtyo0)" height="4.1667" style="stroke:url(#ga7itx9jujtyo0);stroke-width:1.0416666666666667;" width="230.2083" x="249.4792" y="727.5194"/><rect codeLine="17" fill="none" height="51.4257" id="InternalCacheDiskCacheFactory" rx="4.1667" ry="4.1667" style="stroke:#EC7211;stroke-width:1.0416666666666667;" width="230.2083" x="249.4792" y="696.9271"/><ellipse cx="264.0625" cy="714.3066" fill="#ADD1B2" rx="10.4167" ry="10.4167" style="stroke:#181818;stroke-width:1.0416666666666667;"/><path d="M265.9729,718.7316 Q265.5457,718.9514 265.0757,719.0612 Q264.6057,719.1711 264.0869,719.1711 Q262.2437,719.1711 261.2732,717.9565 Q260.3027,716.7419 260.3027,714.447 Q260.3027,712.1459 261.2732,710.9313 Q262.2437,709.7167 264.0869,709.7167 Q264.6057,709.7167 265.0818,709.8266 Q265.5579,709.9365 265.9729,710.1562 L265.9729,712.1582 Q265.509,711.7309 265.0726,711.5325 Q264.6362,711.3342 264.1724,711.3342 Q263.1836,711.3342 262.6801,712.1185 Q262.1765,712.9028 262.1765,714.447 Q262.1765,715.9851 262.6801,716.7694 Q263.1836,717.5537 264.1724,717.5537 Q264.6362,717.5537 265.0726,717.3553 Q265.509,717.1569 265.9729,716.7297 Z " fill="#000000"/><text fill="#FFFFFF" font-family="Verdana" font-size="11.4583" lengthAdjust="spacing" textLength="188.5417" x="282.8125" y="718.8636">InternalCacheDiskCacheFactory</text><line style="stroke:#EC7211;stroke-width:1.0416666666666667;" x1="250.5208" x2="478.6458" y1="731.6861" y2="731.6861"/><line style="stroke:#EC7211;stroke-width:1.0416666666666667;" x1="250.5208" x2="478.6458" y1="740.0194" y2="740.0194"/></g><!--class CacheDirectoryGetter--><g id="elem_CacheDirectoryGetter"><rect codeLine="20" fill="url(#ga7itx9jujtyo0)" height="75.768" id="CacheDirectoryGetter" rx="4.1667" ry="4.1667" style="stroke:#EC7211;stroke-width:1.0416666666666667;" width="171.875" x="548.4375" y="546.4896"/><rect fill="url(#ga7itx9jujtyo0)" height="34.759" rx="4.1667" ry="4.1667" style="stroke:url(#ga7itx9jujtyo0);stroke-width:1.0416666666666667;" width="171.875" x="548.4375" y="546.4896"/><rect fill="url(#ga7itx9jujtyo0)" height="4.1667" style="stroke:url(#ga7itx9jujtyo0);stroke-width:1.0416666666666667;" width="171.875" x="548.4375" y="577.0819"/><rect codeLine="20" fill="none" height="75.768" id="CacheDirectoryGetter" rx="4.1667" ry="4.1667" style="stroke:#EC7211;stroke-width:1.0416666666666667;" width="171.875" x="548.4375" y="546.4896"/><ellipse cx="564.4271" cy="563.8691" fill="#B4A7E5" rx="10.4167" ry="10.4167" style="stroke:#181818;stroke-width:1.0416666666666667;"/><path d="M561.3102,561.031 L561.3102,559.444 L566.7362,559.444 L566.7362,561.031 L564.9235,561.031 L564.9235,566.9697 L566.7362,566.9697 L566.7362,568.5566 L561.3102,568.5566 L561.3102,566.9697 L563.123,566.9697 L563.123,561.031 Z " fill="#000000"/><text fill="#FFFFFF" font-family="Verdana" font-size="11.4583" font-style="italic" lengthAdjust="spacing" textLength="127.0833" x="583.4896" y="568.4261">CacheDirectoryGetter</text><line style="stroke:#EC7211;stroke-width:1.0416666666666667;" x1="549.4792" x2="719.2708" y1="581.2486" y2="581.2486"/><line style="stroke:#EC7211;stroke-width:1.0416666666666667;" x1="549.4792" x2="719.2708" y1="589.5819" y2="589.5819"/><text fill="#FFFFFF" font-family="Verdana" font-size="11.4583" lengthAdjust="spacing" textLength="148.9583" x="559.8958" y="610.4768">File getCacheDirectory();</text></g><!--class Encoder--><g id="elem_Encoder"><rect codeLine="23" fill="url(#ga7itx9jujtyo0)" height="75.768" id="Encoder" rx="4.1667" ry="4.1667" style="stroke:#EC7211;stroke-width:1.0416666666666667;" width="501.0417" x="696.3542" y="218.5833"/><rect fill="url(#ga7itx9jujtyo0)" height="34.759" rx="4.1667" ry="4.1667" style="stroke:url(#ga7itx9jujtyo0);stroke-width:1.0416666666666667;" width="501.0417" x="696.3542" y="218.5833"/><rect fill="url(#ga7itx9jujtyo0)" height="4.1667" style="stroke:url(#ga7itx9jujtyo0);stroke-width:1.0416666666666667;" width="501.0417" x="696.3542" y="249.1757"/><rect codeLine="23" fill="none" height="75.768" id="Encoder" rx="4.1667" ry="4.1667" style="stroke:#EC7211;stroke-width:1.0416666666666667;" width="501.0417" x="696.3542" y="218.5833"/><ellipse cx="902.6042" cy="235.9628" fill="#B4A7E5" rx="10.4167" ry="10.4167" style="stroke:#181818;stroke-width:1.0416666666666667;"/><path d="M899.4873,233.1247 L899.4873,231.5378 L904.9133,231.5378 L904.9133,233.1247 L903.1006,233.1247 L903.1006,239.0634 L904.9133,239.0634 L904.9133,240.6503 L899.4873,240.6503 L899.4873,239.0634 L901.3,239.0634 L901.3,233.1247 Z " fill="#000000"/><text fill="#FFFFFF" font-family="Verdana" font-size="11.4583" font-style="italic" lengthAdjust="spacing" textLength="47.9167" x="927.6042" y="240.5199">Encoder</text><rect fill="none" height="27.6917" style="stroke:#EC7211;stroke-width:1.0416666666666667;stroke-dasharray:2.0,2.0;" width="19.7917" x="1180.7292" y="215.4583"/><text fill="#4E5D6C" font-family="Verdana" font-size="12.5" font-style="italic" lengthAdjust="spacing" textLength="7.2917" x="1186.9792" y="234.2755">T</text><line style="stroke:#EC7211;stroke-width:1.0416666666666667;" x1="697.3958" x2="1196.3542" y1="253.3423" y2="253.3423"/><line style="stroke:#EC7211;stroke-width:1.0416666666666667;" x1="697.3958" x2="1196.3542" y1="261.6757" y2="261.6757"/><text fill="#FFFFFF" font-family="Verdana" font-size="11.4583" lengthAdjust="spacing" textLength="478.125" x="707.8125" y="282.5706">boolean encode(@NonNull T data, @NonNull File file, @NonNull Options options);</text></g><!--class DiskLruCacheWrapper--><g id="elem_DiskLruCacheWrapper"><rect fill="url(#ga7itx9jujtyo0)" height="51.4257" id="DiskLruCacheWrapper" rx="4.1667" ry="4.1667" style="stroke:#EC7211;stroke-width:1.0416666666666667;" width="172.9167" x="7.2917" y="558.6563"/><rect fill="url(#ga7itx9jujtyo0)" height="34.759" rx="4.1667" ry="4.1667" style="stroke:url(#ga7itx9jujtyo0);stroke-width:1.0416666666666667;" width="172.9167" x="7.2917" y="558.6563"/><rect fill="url(#ga7itx9jujtyo0)" height="4.1667" style="stroke:url(#ga7itx9jujtyo0);stroke-width:1.0416666666666667;" width="172.9167" x="7.2917" y="589.2486"/><rect fill="none" height="51.4257" id="DiskLruCacheWrapper" rx="4.1667" ry="4.1667" style="stroke:#EC7211;stroke-width:1.0416666666666667;" width="172.9167" x="7.2917" y="558.6563"/><ellipse cx="21.875" cy="576.0358" fill="#ADD1B2" rx="10.4167" ry="10.4167" style="stroke:#181818;stroke-width:1.0416666666666667;"/><path d="M23.7854,580.4608 Q23.3582,580.6805 22.8882,580.7904 Q22.4182,580.9003 21.8994,580.9003 Q20.0562,580.9003 19.0857,579.6857 Q18.1152,578.4711 18.1152,576.1761 Q18.1152,573.8751 19.0857,572.6605 Q20.0562,571.4459 21.8994,571.4459 Q22.4182,571.4459 22.8943,571.5558 Q23.3704,571.6656 23.7854,571.8854 L23.7854,573.8873 Q23.3215,573.4601 22.8851,573.2617 Q22.4487,573.0633 21.9849,573.0633 Q20.9961,573.0633 20.4926,573.8476 Q19.989,574.6319 19.989,576.1761 Q19.989,577.7142 20.4926,578.4985 Q20.9961,579.2828 21.9849,579.2828 Q22.4487,579.2828 22.8851,579.0845 Q23.3215,578.8861 23.7854,578.4589 Z " fill="#000000"/><text fill="#FFFFFF" font-family="Verdana" font-size="11.4583" lengthAdjust="spacing" textLength="131.25" x="40.625" y="580.5928">DiskLruCacheWrapper</text><line style="stroke:#EC7211;stroke-width:1.0416666666666667;" x1="8.3333" x2="179.1667" y1="593.4153" y2="593.4153"/><line style="stroke:#EC7211;stroke-width:1.0416666666666667;" x1="8.3333" x2="179.1667" y1="601.7486" y2="601.7486"/></g><!--class DiskLruCache--><g id="elem_DiskLruCache"><rect fill="url(#ga7itx9jujtyo0)" height="51.4257" id="DiskLruCache" rx="4.1667" ry="4.1667" style="stroke:#EC7211;stroke-width:1.0416666666666667;" width="121.875" x="32.8125" y="55.9687"/><rect fill="url(#ga7itx9jujtyo0)" height="34.759" rx="4.1667" ry="4.1667" style="stroke:url(#ga7itx9jujtyo0);stroke-width:1.0416666666666667;" width="121.875" x="32.8125" y="55.9687"/><rect fill="url(#ga7itx9jujtyo0)" height="4.1667" style="stroke:url(#ga7itx9jujtyo0);stroke-width:1.0416666666666667;" width="121.875" x="32.8125" y="86.5611"/><rect fill="none" height="51.4257" id="DiskLruCache" rx="4.1667" ry="4.1667" style="stroke:#EC7211;stroke-width:1.0416666666666667;" width="121.875" x="32.8125" y="55.9687"/><ellipse cx="47.3958" cy="73.3483" fill="#ADD1B2" rx="10.4167" ry="10.4167" style="stroke:#181818;stroke-width:1.0416666666666667;"/><path d="M49.3062,77.7733 Q48.879,77.993 48.409,78.1029 Q47.939,78.2128 47.4202,78.2128 Q45.577,78.2128 44.6065,76.9982 Q43.6361,75.7836 43.6361,73.4886 Q43.6361,71.1876 44.6065,69.973 Q45.577,68.7584 47.4202,68.7584 Q47.939,68.7584 48.4151,68.8683 Q48.8912,68.9781 49.3062,69.1979 L49.3062,71.1998 Q48.8424,70.7726 48.406,70.5742 Q47.9696,70.3758 47.5057,70.3758 Q46.5169,70.3758 46.0134,71.1601 Q45.5098,71.9444 45.5098,73.4886 Q45.5098,75.0267 46.0134,75.811 Q46.5169,76.5953 47.5057,76.5953 Q47.9696,76.5953 48.406,76.397 Q48.8424,76.1986 49.3062,75.7714 Z " fill="#000000"/><text fill="#FFFFFF" font-family="Verdana" font-size="11.4583" lengthAdjust="spacing" textLength="80.2083" x="66.1458" y="77.9053">DiskLruCache</text><line style="stroke:#EC7211;stroke-width:1.0416666666666667;" x1="33.8542" x2="153.6458" y1="90.7278" y2="90.7278"/><line style="stroke:#EC7211;stroke-width:1.0416666666666667;" x1="33.8542" x2="153.6458" y1="99.0611" y2="99.0611"/></g><!--class DataCacheWriter--><g id="elem_DataCacheWriter"><rect fill="url(#ga7itx9jujtyo0)" height="51.4257" id="DataCacheWriter" rx="4.1667" ry="4.1667" style="stroke:#EC7211;stroke-width:1.0416666666666667;" width="141.6667" x="517.7083" y="230.75"/><rect fill="url(#ga7itx9jujtyo0)" height="34.759" rx="4.1667" ry="4.1667" style="stroke:url(#ga7itx9jujtyo0);stroke-width:1.0416666666666667;" width="141.6667" x="517.7083" y="230.75"/><rect fill="url(#ga7itx9jujtyo0)" height="4.1667" style="stroke:url(#ga7itx9jujtyo0);stroke-width:1.0416666666666667;" width="141.6667" x="517.7083" y="261.3423"/><rect fill="none" height="51.4257" id="DataCacheWriter" rx="4.1667" ry="4.1667" style="stroke:#EC7211;stroke-width:1.0416666666666667;" width="141.6667" x="517.7083" y="230.75"/><ellipse cx="532.2917" cy="248.1295" fill="#ADD1B2" rx="10.4167" ry="10.4167" style="stroke:#181818;stroke-width:1.0416666666666667;"/><path d="M534.2021,252.5546 Q533.7748,252.7743 533.3049,252.8841 Q532.8349,252.994 532.3161,252.994 Q530.4728,252.994 529.5024,251.7794 Q528.5319,250.5648 528.5319,248.2699 Q528.5319,245.9689 529.5024,244.7543 Q530.4728,243.5397 532.3161,243.5397 Q532.8349,243.5397 533.311,243.6495 Q533.787,243.7594 534.2021,243.9791 L534.2021,245.9811 Q533.7382,245.5538 533.3018,245.3555 Q532.8654,245.1571 532.4015,245.1571 Q531.4128,245.1571 530.9092,245.9414 Q530.4057,246.7257 530.4057,248.2699 Q530.4057,249.808 530.9092,250.5923 Q531.4128,251.3766 532.4015,251.3766 Q532.8654,251.3766 533.3018,251.1782 Q533.7382,250.9798 534.2021,250.5526 Z " fill="#000000"/><text fill="#FFFFFF" font-family="Verdana" font-size="11.4583" lengthAdjust="spacing" textLength="100" x="551.0417" y="252.6865">DataCacheWriter</text><line style="stroke:#EC7211;stroke-width:1.0416666666666667;" x1="518.75" x2="658.3333" y1="265.509" y2="265.509"/><line style="stroke:#EC7211;stroke-width:1.0416666666666667;" x1="518.75" x2="658.3333" y1="273.8423" y2="273.8423"/></g><!--class StreamEncoder--><g id="elem_StreamEncoder"><rect fill="url(#ga7itx9jujtyo0)" height="51.4257" id="StreamEncoder" rx="4.1667" ry="4.1667" style="stroke:#EC7211;stroke-width:1.0416666666666667;" width="133.3333" x="880.2083" y="356.8542"/><rect fill="url(#ga7itx9jujtyo0)" height="34.759" rx="4.1667" ry="4.1667" style="stroke:url(#ga7itx9jujtyo0);stroke-width:1.0416666666666667;" width="133.3333" x="880.2083" y="356.8542"/><rect fill="url(#ga7itx9jujtyo0)" height="4.1667" style="stroke:url(#ga7itx9jujtyo0);stroke-width:1.0416666666666667;" width="133.3333" x="880.2083" y="387.4465"/><rect fill="none" height="51.4257" id="StreamEncoder" rx="4.1667" ry="4.1667" style="stroke:#EC7211;stroke-width:1.0416666666666667;" width="133.3333" x="880.2083" y="356.8542"/><ellipse cx="894.7917" cy="374.2337" fill="#ADD1B2" rx="10.4167" ry="10.4167" style="stroke:#181818;stroke-width:1.0416666666666667;"/><path d="M896.7021,378.6587 Q896.2748,378.8784 895.8049,378.9883 Q895.3349,379.0982 894.8161,379.0982 Q892.9728,379.0982 892.0024,377.8836 Q891.0319,376.669 891.0319,374.3741 Q891.0319,372.073 892.0024,370.8584 Q892.9728,369.6438 894.8161,369.6438 Q895.3349,369.6438 895.811,369.7537 Q896.287,369.8636 896.7021,370.0833 L896.7021,372.0852 Q896.2382,371.658 895.8018,371.4596 Q895.3654,371.2613 894.9015,371.2613 Q893.9128,371.2613 893.4092,372.0456 Q892.9057,372.8299 892.9057,374.3741 Q892.9057,375.9121 893.4092,376.6964 Q893.9128,377.4807 894.9015,377.4807 Q895.3654,377.4807 895.8018,377.2824 Q896.2382,377.084 896.7021,376.6568 Z " fill="#000000"/><text fill="#FFFFFF" font-family="Verdana" font-size="11.4583" lengthAdjust="spacing" textLength="91.6667" x="913.5417" y="378.7907">StreamEncoder</text><line style="stroke:#EC7211;stroke-width:1.0416666666666667;" x1="881.25" x2="1012.5" y1="391.6132" y2="391.6132"/><line style="stroke:#EC7211;stroke-width:1.0416666666666667;" x1="881.25" x2="1012.5" y1="399.9465" y2="399.9465"/></g><!--reverse link DiskCache to DiskLruCacheWrapper--><g id="link_DiskCache_DiskLruCacheWrapper"><path codeLine="26" d="M285.9169,173.2703 C275.7606,193.3328 273.3542,198.375 263.5417,218.5833 C201.9063,345.5 131.8229,499.2292 105,558.4271 " fill="none" id="DiskCache-backto-DiskLruCacheWrapper" style="stroke:#EC7211;stroke-width:3.125;stroke-dasharray:7.0,7.0;"/><polygon fill="none" points="294.3854,156.5417,280.3407,170.4474,291.4931,176.0931,294.3854,156.5417" style="stroke:#EC7211;stroke-width:3.125;"/></g><!--reverse link DiskLruCache to DiskLruCacheWrapper--><g id="link_DiskLruCache_DiskLruCacheWrapper"><path codeLine="27" d="M93.75,120.3958 C93.75,206.0521 93.75,473.1354 93.75,558.4063 " fill="none" id="DiskLruCache-backto-DiskLruCacheWrapper" style="stroke:#EC7211;stroke-width:3.125;"/><polygon fill="#EC7211" points="93.75,107.8958,89.5833,114.1458,93.75,120.3958,97.9167,114.1458,93.75,107.8958" style="stroke:#EC7211;stroke-width:3.125;"/></g><!--reverse link DiskCache to Factory--><g id="link_DiskCache_Factory"><path codeLine="28" d="M339.5223,162.6933 C341.4493,183.9641 342.9063,200.0521 344.5417,218.0937 " fill="none" id="DiskCache-backto-Factory" style="stroke:#EC7211;stroke-width:3.125;"/><polygon fill="#EC7211" points="338.9583,156.4687,335.6545,166.1815,339.4283,161.6558,343.9539,165.4296,338.9583,156.4687" style="stroke:#EC7211;stroke-width:3.125;"/></g><!--link DiskCache to Writer--><g id="link_DiskCache_Writer"><path codeLine="29" d="M441.8958,81.6875 C453.8333,81.6875 459.5208,81.6875 471.4479,81.6875 " fill="none" id="DiskCache-to-Writer" style="stroke:#EC7211;stroke-width:3.125;"/><polygon fill="#EC7211" points="477.6979,81.6875,468.3229,77.5208,472.4896,81.6875,468.3229,85.8542,477.6979,81.6875" style="stroke:#EC7211;stroke-width:3.125;"/></g><!--reverse link Writer to DataCacheWriter--><g id="link_Writer_DataCacheWriter"><path codeLine="30" d="M588.5417,138.5208 C588.5417,172.0208 588.5417,201.6562 588.5417,230.6771 " fill="none" id="Writer-backto-DataCacheWriter" style="stroke:#EC7211;stroke-width:3.125;stroke-dasharray:7.0,7.0;"/><polygon fill="none" points="588.5417,119.7708,582.2917,138.5208,594.7917,138.5208,588.5417,119.7708" style="stroke:#EC7211;stroke-width:3.125;"/></g><!--link DataCacheWriter to Encoder--><g id="link_DataCacheWriter_Encoder"><path codeLine="31" d="M659.5833,256.4688 C671.7396,256.4688 671.3958,256.4688 683.5521,256.4688 " fill="none" id="DataCacheWriter-to-Encoder" style="stroke:#EC7211;stroke-width:3.125;"/><polygon fill="none" points="696.0521,256.4688,689.8021,252.3021,683.5521,256.4688,689.8021,260.6354,696.0521,256.4688" style="stroke:#EC7211;stroke-width:3.125;"/></g><!--reverse link Encoder to StreamEncoder--><g id="link_Encoder_StreamEncoder"><path codeLine="32" d="M946.875,313.4687 C946.875,333.4479 946.875,338.7813 946.875,356.5104 " fill="none" id="Encoder-backto-StreamEncoder" style="stroke:#EC7211;stroke-width:3.125;stroke-dasharray:7.0,7.0;"/><polygon fill="none" points="946.875,294.7187,940.625,313.4687,953.125,313.4687,946.875,294.7187" style="stroke:#EC7211;stroke-width:3.125;"/></g><!--link DiskLruCacheFactory to CacheDirectoryGetter--><g id="link_DiskLruCacheFactory_CacheDirectoryGetter"><path codeLine="33" d="M512.3854,584.375 C524.3021,584.375 523.7188,584.375 535.625,584.375 " fill="none" id="DiskLruCacheFactory-to-CacheDirectoryGetter" style="stroke:#EC7211;stroke-width:3.125;"/><polygon fill="none" points="548.125,584.375,541.875,580.2083,535.625,584.375,541.875,588.5417,548.125,584.375" style="stroke:#EC7211;stroke-width:3.125;"/></g><!--reverse link DiskLruCacheWrapper to DiskLruCacheFactory--><g id="link_DiskLruCacheWrapper_DiskLruCacheFactory"><path codeLine="34" d="M186.75,584.375 C198.8542,584.375 204.7083,584.375 216.8125,584.375 " fill="none" id="DiskLruCacheWrapper-backto-DiskLruCacheFactory" style="stroke:#EC7211;stroke-width:3.125;"/><polygon fill="#EC7211" points="180.5,584.375,189.875,588.5417,185.7083,584.375,189.875,580.2083,180.5,584.375" style="stroke:#EC7211;stroke-width:3.125;"/></g><!--reverse link DiskLruCacheFactory to InternalCacheDiskCacheFactory--><g id="link_DiskLruCacheFactory_InternalCacheDiskCacheFactory"><path codeLine="35" d="M364.5833,653.3333 C364.5833,674.3542 364.5833,679.25 364.5833,696.5833 " fill="none" id="DiskLruCacheFactory-backto-InternalCacheDiskCacheFactory" style="stroke:#EC7211;stroke-width:3.125;"/><polygon fill="none" points="364.5833,634.5833,358.3333,653.3333,370.8333,653.3333,364.5833,634.5833" style="stroke:#EC7211;stroke-width:3.125;"/></g><!--reverse link Factory to DiskLruCacheFactory--><g id="link_Factory_DiskLruCacheFactory"><path codeLine="36" d="M350.7712,313.288 C353.7816,372.0901 358.6875,468.0729 362.0521,533.8333 " fill="none" id="Factory-backto-DiskLruCacheFactory" style="stroke:#EC7211;stroke-width:3.125;stroke-dasharray:7.0,7.0;"/><polygon fill="none" points="349.8125,294.5625,344.5293,313.6075,357.013,312.9684,349.8125,294.5625" style="stroke:#EC7211;stroke-width:3.125;"/></g><!--SRC=[VLBHJi8m57tlLrpVKEb-G49CH8pHu8CaF9Vk3XfAktITP17_tQujOuFg7hRit7FFkJstDtQBUmHsgAWsJ6sG26NH58mZp4IrUs9yYzy4t3CN4c63TlI63UomkNtmy9SMEPHr1uzXPOIJW8F_z5avIhIOwkSIcHavvAVdFsVSQjD0iE-cWNKjP7v9ZgQ1kzRQ2QemmkXneTMYbZASe70ltyibgoel-svghnmDWmO5Zys4GO- -e6qDU0Bq_Flh2JkJrtPCnMHKZBJERd2GfEjm0qFAPHBFYkiSpMGv7OQ17Z-diOISMJQ6wtXws4TfXLOLwF3rLlt8LeQLfHimoxAwpBBZz9n2aaTfNL9AxmQvazEcs-AbGaYK6h7PMbSCUoOpDteKzdjltOz_LcEtFcL3Fgr1jez_iVbKIzo8iq1gEwaEAh5muoOYIB4dHqh_lIEa8xgWizIb9Ry0]--></g></svg>