<?xml version="1.0" encoding="us-ascii" standalone="no"?><svg xmlns="http://www.w3.org/2000/svg" xmlns:xlink="http://www.w3.org/1999/xlink" contentStyleType="text/css" height="1049px" preserveAspectRatio="none" style="width:1270px;height:1049px;background:#FFFFFF;" version="1.1" viewBox="0 0 1270 1049" width="1270px" zoomAndPan="magnify"><defs><filter height="300%" id="f48kyi3dnmy0p" width="300%" x="-1" y="-1"><feGaussianBlur result="blurOut" stdDeviation="2.0"/><feColorMatrix in="blurOut" result="blurOut2" type="matrix" values="0 0 0 0 0 0 0 0 0 0 0 0 0 0 0 0 0 0 .4 0"/><feOffset dx="4.0" dy="4.0" in="blurOut2" result="blurOut3"/><feBlend in="SourceGraphic" in2="blurOut3" mode="normal"/></filter></defs><g><!--cluster HttpGlideUrlLoader--><g id="cluster_HttpGlideUrlLoader"><polygon fill="none" filter="url(#f48kyi3dnmy0p)" points="623.5,836.35,760.5,836.35,767.5,858.8383,772.5,858.8383,772.5,951.35,623.5,951.35,623.5,836.35" style="stroke:#000000;stroke-width:1.5;"/><line style="stroke:#000000;stroke-width:1.5;" x1="623.5" x2="767.5" y1="858.8383" y2="858.8383"/><text fill="#000000" font-family="sans-serif" font-size="14" lengthAdjust="spacing" textLength="131" x="627.5" y="851.8852">HttpGlideUrlLoader</text></g><!--class Factory--><g id="elem_Factory"><rect codeLine="31" fill="#FEFECE" filter="url(#f48kyi3dnmy0p)" height="48" id="Factory" style="stroke:#A80036;stroke-width:1.0;" width="82" x="666.5" y="879.35"/><ellipse cx="681.5" cy="895.35" fill="#ADD1B2" rx="11" ry="11" style="stroke:#A80036;stroke-width:1.0;"/><path d="M684.4731,900.9931 Q683.8921,901.2919 683.2529,901.4413 Q682.6138,901.5907 681.9082,901.5907 Q679.4014,901.5907 678.0815,899.9389 Q676.7617,898.287 676.7617,895.1659 Q676.7617,892.0365 678.0815,890.3847 Q679.4014,888.7328 681.9082,888.7328 Q682.6138,888.7328 683.2612,888.8822 Q683.9087,889.0316 684.4731,889.3305 L684.4731,892.0531 Q683.8423,891.4721 683.2488,891.2023 Q682.6553,890.9325 682.0244,890.9325 Q680.6797,890.9325 679.9949,891.9992 Q679.3101,893.0658 679.3101,895.1659 Q679.3101,897.2577 679.9949,898.3244 Q680.6797,899.391 682.0244,899.391 Q682.6553,899.391 683.2488,899.1212 Q683.8423,898.8515 684.4731,898.2704 Z " fill="#000000"/><text fill="#000000" font-family="sans-serif" font-size="14" lengthAdjust="spacing" textLength="50" x="695.5" y="900.641">Factory</text><line style="stroke:#A80036;stroke-width:1.0;" x1="667.5" x2="747.5" y1="911.35" y2="911.35"/><line style="stroke:#A80036;stroke-width:1.0;" x1="667.5" x2="747.5" y1="919.35" y2="919.35"/></g><!--class Entry--><g id="elem_Entry"><rect codeLine="1" fill="#FEFECE" filter="url(#f48kyi3dnmy0p)" height="97.4648" id="Entry" style="stroke:#A80036;stroke-width:1.0;" width="495" x="761" y="590.4"/><ellipse cx="949.75" cy="606.4" fill="#ADD1B2" rx="11" ry="11" style="stroke:#A80036;stroke-width:1.0;"/><path d="M952.7231,612.0431 Q952.1421,612.3419 951.5029,612.4913 Q950.8638,612.6407 950.1582,612.6407 Q947.6514,612.6407 946.3315,610.9889 Q945.0117,609.337 945.0117,606.2159 Q945.0117,603.0865 946.3315,601.4347 Q947.6514,599.7828 950.1582,599.7828 Q950.8638,599.7828 951.5112,599.9322 Q952.1587,600.0816 952.7231,600.3805 L952.7231,603.1031 Q952.0923,602.5221 951.4988,602.2523 Q950.9053,601.9825 950.2744,601.9825 Q948.9297,601.9825 948.2449,603.0492 Q947.5601,604.1158 947.5601,606.2159 Q947.5601,608.3077 948.2449,609.3744 Q948.9297,610.441 950.2744,610.441 Q950.9053,610.441 951.4988,610.1712 Q952.0923,609.9015 952.7231,609.3204 Z " fill="#000000"/><text fill="#000000" font-family="sans-serif" font-size="14" lengthAdjust="spacing" textLength="35" x="970.25" y="611.691">Entry</text><rect fill="#FFFFFF" height="16.1328" style="stroke:#A80036;stroke-width:1.0;stroke-dasharray:2.0,2.0;" width="72" x="1187" y="587.4"/><text fill="#000000" font-family="sans-serif" font-size="12" font-style="italic" lengthAdjust="spacing" textLength="70" x="1188" y="600.0016">Model, Data</text><line style="stroke:#A80036;stroke-width:1.0;" x1="762" x2="1255" y1="622.4" y2="622.4"/><rect fill="none" height="6" style="stroke:#C82930;stroke-width:1.0;" width="6" x="769" y="633.1441"/><text fill="#000000" font-family="sans-serif" font-size="14" lengthAdjust="spacing" textLength="221" x="781" y="639.9352">final Class&lt;Model&gt; modelClass;</text><ellipse cx="772" cy="652.6324" fill="none" rx="3" ry="3" style="stroke:#038048;stroke-width:1.0;"/><text fill="#000000" font-family="sans-serif" font-size="14" lengthAdjust="spacing" textLength="197" x="781" y="656.4234">final Class&lt;Data&gt; dataClass;</text><ellipse cx="772" cy="669.1207" fill="none" rx="3" ry="3" style="stroke:#038048;stroke-width:1.0;"/><text fill="#000000" font-family="sans-serif" font-size="14" lengthAdjust="spacing" textLength="469" x="781" y="672.9117">final ModelLoaderFactory&lt;? extends Model, ? extends Data&gt; factory;</text><line style="stroke:#A80036;stroke-width:1.0;" x1="762" x2="1255" y1="679.8648" y2="679.8648"/></g><!--class ModelLoaderFactory--><g id="elem_ModelLoaderFactory"><rect codeLine="6" fill="#FEFECE" filter="url(#f48kyi3dnmy0p)" height="64.4883" id="ModelLoaderFactory" style="stroke:#A80036;stroke-width:1.0;" width="464" x="687.5" y="465.91"/><ellipse cx="832.25" cy="481.91" fill="#B4A7E5" rx="11" ry="11" style="stroke:#A80036;stroke-width:1.0;"/><path d="M828.1777,477.6751 L828.1777,475.5169 L835.5571,475.5169 L835.5571,477.6751 L833.0918,477.6751 L833.0918,485.7518 L835.5571,485.7518 L835.5571,487.91 L828.1777,487.91 L828.1777,485.7518 L830.6431,485.7518 L830.6431,477.6751 Z " fill="#000000"/><text fill="#000000" font-family="sans-serif" font-size="14" font-style="italic" lengthAdjust="spacing" textLength="139" x="852.75" y="487.201">ModelLoaderFactory</text><rect fill="#FFFFFF" height="16.1328" style="stroke:#A80036;stroke-width:1.0;stroke-dasharray:2.0,2.0;" width="25" x="1129.5" y="462.91"/><text fill="#000000" font-family="sans-serif" font-size="12" font-style="italic" lengthAdjust="spacing" textLength="23" x="1130.5" y="475.5116">T, Y</text><line style="stroke:#A80036;stroke-width:1.0;" x1="688.5" x2="1150.5" y1="497.91" y2="497.91"/><line style="stroke:#A80036;stroke-width:1.0;" x1="688.5" x2="1150.5" y1="505.91" y2="505.91"/><text fill="#000000" font-family="sans-serif" font-size="14" lengthAdjust="spacing" textLength="452" x="693.5" y="523.4452">ModelLoader&lt;T, Y&gt; build(MultiModelLoaderFactory multiFactory);</text></g><!--class Key--><g id="elem_Key"><rect codeLine="10" fill="#FEFECE" filter="url(#f48kyi3dnmy0p)" height="48" id="Key" style="stroke:#A80036;stroke-width:1.0;" width="56" x="756.5" y="18.25"/><ellipse cx="771.5" cy="34.25" fill="#B4A7E5" rx="11" ry="11" style="stroke:#A80036;stroke-width:1.0;"/><path d="M767.4277,30.0151 L767.4277,27.8569 L774.8071,27.8569 L774.8071,30.0151 L772.3418,30.0151 L772.3418,38.0918 L774.8071,38.0918 L774.8071,40.25 L767.4277,40.25 L767.4277,38.0918 L769.8931,38.0918 L769.8931,30.0151 Z " fill="#000000"/><text fill="#000000" font-family="sans-serif" font-size="14" font-style="italic" lengthAdjust="spacing" textLength="24" x="785.5" y="39.541">Key</text><line style="stroke:#A80036;stroke-width:1.0;" x1="757.5" x2="811.5" y1="50.25" y2="50.25"/><line style="stroke:#A80036;stroke-width:1.0;" x1="757.5" x2="811.5" y1="58.25" y2="58.25"/></g><!--class GlideUrl--><g id="elem_GlideUrl"><rect fill="#FEFECE" filter="url(#f48kyi3dnmy0p)" height="48" id="GlideUrl" style="stroke:#A80036;stroke-width:1.0;" width="87" x="837" y="324.93"/><ellipse cx="852" cy="340.93" fill="#ADD1B2" rx="11" ry="11" style="stroke:#A80036;stroke-width:1.0;"/><path d="M854.9731,346.5731 Q854.3921,346.8719 853.7529,347.0213 Q853.1138,347.1707 852.4082,347.1707 Q849.9014,347.1707 848.5815,345.5189 Q847.2617,343.867 847.2617,340.7459 Q847.2617,337.6165 848.5815,335.9647 Q849.9014,334.3128 852.4082,334.3128 Q853.1138,334.3128 853.7612,334.4622 Q854.4087,334.6116 854.9731,334.9105 L854.9731,337.6331 Q854.3423,337.0521 853.7488,336.7823 Q853.1553,336.5125 852.5244,336.5125 Q851.1797,336.5125 850.4949,337.5792 Q849.8101,338.6458 849.8101,340.7459 Q849.8101,342.8377 850.4949,343.9044 Q851.1797,344.971 852.5244,344.971 Q853.1553,344.971 853.7488,344.7012 Q854.3423,344.4315 854.9731,343.8504 Z " fill="#000000"/><text fill="#000000" font-family="sans-serif" font-size="14" lengthAdjust="spacing" textLength="55" x="866" y="346.221">GlideUrl</text><line style="stroke:#A80036;stroke-width:1.0;" x1="838" x2="923" y1="356.93" y2="356.93"/><line style="stroke:#A80036;stroke-width:1.0;" x1="838" x2="923" y1="364.93" y2="364.93"/></g><!--class ModelLoader--><g id="elem_ModelLoader"><rect codeLine="13" fill="#FEFECE" filter="url(#f48kyi3dnmy0p)" height="113.9531" id="ModelLoader" style="stroke:#A80036;stroke-width:1.0;" width="526" x="275.5" y="291.96"/><ellipse cx="452.75" cy="307.96" fill="#B4A7E5" rx="11" ry="11" style="stroke:#A80036;stroke-width:1.0;"/><path d="M448.6777,303.7251 L448.6777,301.5669 L456.0571,301.5669 L456.0571,303.7251 L453.5918,303.7251 L453.5918,311.8018 L456.0571,311.8018 L456.0571,313.96 L448.6777,313.96 L448.6777,311.8018 L451.1431,311.8018 L451.1431,303.7251 Z " fill="#000000"/><text fill="#000000" font-family="sans-serif" font-size="14" font-style="italic" lengthAdjust="spacing" textLength="89" x="473.25" y="313.251">ModelLoader</text><rect fill="#FFFFFF" height="16.1328" style="stroke:#A80036;stroke-width:1.0;stroke-dasharray:2.0,2.0;" width="72" x="732.5" y="288.96"/><text fill="#000000" font-family="sans-serif" font-size="12" font-style="italic" lengthAdjust="spacing" textLength="70" x="733.5" y="301.5616">Model, Data</text><line style="stroke:#A80036;stroke-width:1.0;" x1="276.5" x2="800.5" y1="323.96" y2="323.96"/><line style="stroke:#A80036;stroke-width:1.0;" x1="276.5" x2="800.5" y1="331.96" y2="331.96"/><ellipse cx="286.5" cy="345.7041" fill="#84BE84" rx="3" ry="3" style="stroke:#038048;stroke-width:1.0;"/><text fill="#000000" font-family="sans-serif" font-size="14" lengthAdjust="spacing" textLength="225" x="295.5" y="349.4952">LoadData&lt;Data&gt; buildLoadData(</text><text fill="#000000" font-family="sans-serif" font-size="14" lengthAdjust="spacing" textLength="500" x="295.5" y="365.9834">@NonNull Model model, int width, int height, @NonNull Options options);</text><text fill="#000000" font-family="sans-serif" font-size="14" lengthAdjust="spacing" textLength="4" x="295.5" y="382.4717">&#160;</text><ellipse cx="286.5" cy="395.169" fill="#84BE84" rx="3" ry="3" style="stroke:#038048;stroke-width:1.0;"/><text fill="#000000" font-family="sans-serif" font-size="14" lengthAdjust="spacing" textLength="288" x="295.5" y="398.96">boolean handles(@NonNull Model model);</text></g><!--class LoadData--><g id="elem_LoadData"><rect codeLine="19" fill="#FEFECE" filter="url(#f48kyi3dnmy0p)" height="97.4648" id="LoadData" style="stroke:#A80036;stroke-width:1.0;" width="251" x="413" y="134.49"/><ellipse cx="486.75" cy="150.49" fill="#ADD1B2" rx="11" ry="11" style="stroke:#A80036;stroke-width:1.0;"/><path d="M489.7231,156.1331 Q489.1421,156.4319 488.5029,156.5813 Q487.8638,156.7307 487.1582,156.7307 Q484.6514,156.7307 483.3315,155.0789 Q482.0117,153.427 482.0117,150.3059 Q482.0117,147.1765 483.3315,145.5247 Q484.6514,143.8728 487.1582,143.8728 Q487.8638,143.8728 488.5112,144.0222 Q489.1587,144.1716 489.7231,144.4705 L489.7231,147.1931 Q489.0923,146.6121 488.4988,146.3423 Q487.9053,146.0725 487.2744,146.0725 Q485.9297,146.0725 485.2449,147.1392 Q484.5601,148.2058 484.5601,150.3059 Q484.5601,152.3977 485.2449,153.4644 Q485.9297,154.531 487.2744,154.531 Q487.9053,154.531 488.4988,154.2612 Q489.0923,153.9915 489.7231,153.4104 Z " fill="#000000"/><text fill="#000000" font-family="sans-serif" font-size="14" lengthAdjust="spacing" textLength="64" x="507.25" y="155.781">LoadData</text><rect fill="#FFFFFF" height="16.1328" style="stroke:#A80036;stroke-width:1.0;stroke-dasharray:2.0,2.0;" width="29" x="638" y="131.49"/><text fill="#000000" font-family="sans-serif" font-size="12" font-style="italic" lengthAdjust="spacing" textLength="27" x="639" y="144.0916">Data</text><line style="stroke:#A80036;stroke-width:1.0;" x1="414" x2="663" y1="166.49" y2="166.49"/><ellipse cx="424" cy="180.2341" fill="none" rx="3" ry="3" style="stroke:#038048;stroke-width:1.0;"/><text fill="#000000" font-family="sans-serif" font-size="14" lengthAdjust="spacing" textLength="136" x="433" y="184.0252">final Key sourceKey;</text><ellipse cx="424" cy="196.7224" fill="none" rx="3" ry="3" style="stroke:#038048;stroke-width:1.0;"/><text fill="#000000" font-family="sans-serif" font-size="14" lengthAdjust="spacing" textLength="203" x="433" y="200.5134">final List&lt;Key&gt; alternateKeys;</text><ellipse cx="424" cy="213.2107" fill="none" rx="3" ry="3" style="stroke:#038048;stroke-width:1.0;"/><text fill="#000000" font-family="sans-serif" font-size="14" lengthAdjust="spacing" textLength="225" x="433" y="217.0017">final DataFetcher&lt;Data&gt; fetcher;</text><line style="stroke:#A80036;stroke-width:1.0;" x1="414" x2="663" y1="223.9548" y2="223.9548"/></g><!--class DataFetcher--><g id="elem_DataFetcher"><rect codeLine="25" fill="#FEFECE" filter="url(#f48kyi3dnmy0p)" height="64.4883" id="DataFetcher" style="stroke:#A80036;stroke-width:1.0;" width="619" x="7" y="10"/><ellipse cx="265.25" cy="26" fill="#B4A7E5" rx="11" ry="11" style="stroke:#A80036;stroke-width:1.0;"/><path d="M261.1777,21.7651 L261.1777,19.6069 L268.5571,19.6069 L268.5571,21.7651 L266.0918,21.7651 L266.0918,29.8418 L268.5571,29.8418 L268.5571,32 L261.1777,32 L261.1777,29.8418 L263.6431,29.8418 L263.6431,21.7651 Z " fill="#000000"/><text fill="#000000" font-family="sans-serif" font-size="14" font-style="italic" lengthAdjust="spacing" textLength="82" x="285.75" y="31.291">DataFetcher</text><rect fill="#FFFFFF" height="16.1328" style="stroke:#A80036;stroke-width:1.0;stroke-dasharray:2.0,2.0;" width="10" x="619" y="7"/><text fill="#000000" font-family="sans-serif" font-size="12" font-style="italic" lengthAdjust="spacing" textLength="8" x="620" y="19.6016">T</text><line style="stroke:#A80036;stroke-width:1.0;" x1="8" x2="625" y1="42" y2="42"/><line style="stroke:#A80036;stroke-width:1.0;" x1="8" x2="625" y1="50" y2="50"/><ellipse cx="18" cy="63.7441" fill="#84BE84" rx="3" ry="3" style="stroke:#038048;stroke-width:1.0;"/><text fill="#000000" font-family="sans-serif" font-size="14" lengthAdjust="spacing" textLength="593" x="27" y="67.5352">void loadData(@NonNull Priority priority, @NonNull DataCallback&lt;? super T&gt; callback);</text></g><!--class MultiModelLoader--><g id="elem_MultiModelLoader"><rect codeLine="28" fill="#FEFECE" filter="url(#f48kyi3dnmy0p)" height="64.4883" id="MultiModelLoader" style="stroke:#A80036;stroke-width:1.0;" width="402" x="179.5" y="606.89"/><ellipse cx="314.75" cy="622.89" fill="#ADD1B2" rx="11" ry="11" style="stroke:#A80036;stroke-width:1.0;"/><path d="M317.7231,628.5331 Q317.1421,628.8319 316.5029,628.9813 Q315.8638,629.1307 315.1582,629.1307 Q312.6514,629.1307 311.3315,627.4789 Q310.0117,625.827 310.0117,622.7059 Q310.0117,619.5765 311.3315,617.9247 Q312.6514,616.2728 315.1582,616.2728 Q315.8638,616.2728 316.5112,616.4222 Q317.1587,616.5716 317.7231,616.8705 L317.7231,619.5931 Q317.0923,619.0121 316.4988,618.7423 Q315.9053,618.4725 315.2744,618.4725 Q313.9297,618.4725 313.2449,619.5392 Q312.5601,620.6058 312.5601,622.7059 Q312.5601,624.7977 313.2449,625.8644 Q313.9297,626.931 315.2744,626.931 Q315.9053,626.931 316.4988,626.6612 Q317.0923,626.3915 317.7231,625.8104 Z " fill="#000000"/><text fill="#000000" font-family="sans-serif" font-size="14" lengthAdjust="spacing" textLength="123" x="335.25" y="628.181">MultiModelLoader</text><line style="stroke:#A80036;stroke-width:1.0;" x1="180.5" x2="580.5" y1="638.89" y2="638.89"/><rect fill="none" height="6" style="stroke:#C82930;stroke-width:1.0;" width="6" x="187.5" y="649.6341"/><text fill="#000000" font-family="sans-serif" font-size="14" lengthAdjust="spacing" textLength="376" x="199.5" y="656.4252">final List&lt;ModelLoader&lt;Model, Data&gt;&gt; modelLoaders;</text><line style="stroke:#A80036;stroke-width:1.0;" x1="180.5" x2="580.5" y1="663.3783" y2="663.3783"/></g><!--class HttpUrlFetcher--><g id="elem_HttpUrlFetcher"><rect codeLine="32" fill="#FEFECE" filter="url(#f48kyi3dnmy0p)" height="48" id="HttpUrlFetcher" style="stroke:#A80036;stroke-width:1.0;" width="132" x="153.5" y="159.22"/><ellipse cx="168.5" cy="175.22" fill="#ADD1B2" rx="11" ry="11" style="stroke:#A80036;stroke-width:1.0;"/><path d="M171.4731,180.8631 Q170.8921,181.1619 170.2529,181.3113 Q169.6138,181.4607 168.9082,181.4607 Q166.4014,181.4607 165.0815,179.8089 Q163.7617,178.157 163.7617,175.0359 Q163.7617,171.9065 165.0815,170.2547 Q166.4014,168.6028 168.9082,168.6028 Q169.6138,168.6028 170.2612,168.7522 Q170.9087,168.9016 171.4731,169.2005 L171.4731,171.9231 Q170.8423,171.3421 170.2488,171.0723 Q169.6553,170.8025 169.0244,170.8025 Q167.6797,170.8025 166.9949,171.8692 Q166.3101,172.9358 166.3101,175.0359 Q166.3101,177.1277 166.9949,178.1944 Q167.6797,179.261 169.0244,179.261 Q169.6553,179.261 170.2488,178.9912 Q170.8423,178.7215 171.4731,178.1404 Z " fill="#000000"/><text fill="#000000" font-family="sans-serif" font-size="14" lengthAdjust="spacing" textLength="100" x="182.5" y="180.511">HttpUrlFetcher</text><line style="stroke:#A80036;stroke-width:1.0;" x1="154.5" x2="284.5" y1="191.22" y2="191.22"/><line style="stroke:#A80036;stroke-width:1.0;" x1="154.5" x2="284.5" y1="199.22" y2="199.22"/></g><!--class Registry--><g id="elem_Registry"><rect fill="#FEFECE" filter="url(#f48kyi3dnmy0p)" height="48" id="Registry" style="stroke:#A80036;stroke-width:1.0;" width="87" x="965" y="987.35"/><ellipse cx="980" cy="1003.35" fill="#ADD1B2" rx="11" ry="11" style="stroke:#A80036;stroke-width:1.0;"/><path d="M982.9731,1008.9931 Q982.3921,1009.2919 981.7529,1009.4413 Q981.1138,1009.5907 980.4082,1009.5907 Q977.9014,1009.5907 976.5815,1007.9389 Q975.2617,1006.287 975.2617,1003.1659 Q975.2617,1000.0365 976.5815,998.3847 Q977.9014,996.7328 980.4082,996.7328 Q981.1138,996.7328 981.7612,996.8822 Q982.4087,997.0316 982.9731,997.3305 L982.9731,1000.0531 Q982.3423,999.4721 981.7488,999.2023 Q981.1553,998.9325 980.5244,998.9325 Q979.1797,998.9325 978.4949,999.9992 Q977.8101,1001.0658 977.8101,1003.1659 Q977.8101,1005.2577 978.4949,1006.3244 Q979.1797,1007.391 980.5244,1007.391 Q981.1553,1007.391 981.7488,1007.1212 Q982.3423,1006.8515 982.9731,1006.2704 Z " fill="#000000"/><text fill="#000000" font-family="sans-serif" font-size="14" lengthAdjust="spacing" textLength="55" x="994" y="1008.641">Registry</text><line style="stroke:#A80036;stroke-width:1.0;" x1="966" x2="1051" y1="1019.35" y2="1019.35"/><line style="stroke:#A80036;stroke-width:1.0;" x1="966" x2="1051" y1="1027.35" y2="1027.35"/></g><!--class ModelLoaderRegistry--><g id="elem_ModelLoaderRegistry"><rect fill="#FEFECE" filter="url(#f48kyi3dnmy0p)" height="48" id="ModelLoaderRegistry" style="stroke:#A80036;stroke-width:1.0;" width="176" x="920.5" y="879.35"/><ellipse cx="935.5" cy="895.35" fill="#ADD1B2" rx="11" ry="11" style="stroke:#A80036;stroke-width:1.0;"/><path d="M938.4731,900.9931 Q937.8921,901.2919 937.2529,901.4413 Q936.6138,901.5907 935.9082,901.5907 Q933.4014,901.5907 932.0815,899.9389 Q930.7617,898.287 930.7617,895.1659 Q930.7617,892.0365 932.0815,890.3847 Q933.4014,888.7328 935.9082,888.7328 Q936.6138,888.7328 937.2612,888.8822 Q937.9087,889.0316 938.4731,889.3305 L938.4731,892.0531 Q937.8423,891.4721 937.2488,891.2023 Q936.6553,890.9325 936.0244,890.9325 Q934.6797,890.9325 933.9949,891.9992 Q933.3101,893.0658 933.3101,895.1659 Q933.3101,897.2577 933.9949,898.3244 Q934.6797,899.391 936.0244,899.391 Q936.6553,899.391 937.2488,899.1212 Q937.8423,898.8515 938.4731,898.2704 Z " fill="#000000"/><text fill="#000000" font-family="sans-serif" font-size="14" lengthAdjust="spacing" textLength="144" x="949.5" y="900.641">ModelLoaderRegistry</text><line style="stroke:#A80036;stroke-width:1.0;" x1="921.5" x2="1095.5" y1="911.35" y2="911.35"/><line style="stroke:#A80036;stroke-width:1.0;" x1="921.5" x2="1095.5" y1="919.35" y2="919.35"/></g><!--class MultiModelLoaderFactory--><g id="elem_MultiModelLoaderFactory"><rect codeLine="46" fill="#FEFECE" filter="url(#f48kyi3dnmy0p)" height="64.4883" id="MultiModelLoaderFactory" style="stroke:#A80036;stroke-width:1.0;" width="380" x="818.5" y="747.86"/><ellipse cx="917.75" cy="763.86" fill="#ADD1B2" rx="11" ry="11" style="stroke:#A80036;stroke-width:1.0;"/><path d="M920.7231,769.5031 Q920.1421,769.8019 919.5029,769.9513 Q918.8638,770.1007 918.1582,770.1007 Q915.6514,770.1007 914.3315,768.4489 Q913.0117,766.797 913.0117,763.6759 Q913.0117,760.5465 914.3315,758.8947 Q915.6514,757.2428 918.1582,757.2428 Q918.8638,757.2428 919.5112,757.3922 Q920.1587,757.5416 920.7231,757.8405 L920.7231,760.5631 Q920.0923,759.9821 919.4988,759.7123 Q918.9053,759.4425 918.2744,759.4425 Q916.9297,759.4425 916.2449,760.5092 Q915.5601,761.5758 915.5601,763.6759 Q915.5601,765.7677 916.2449,766.8344 Q916.9297,767.901 918.2744,767.901 Q918.9053,767.901 919.4988,767.6312 Q920.0923,767.3615 920.7231,766.7804 Z " fill="#000000"/><text fill="#000000" font-family="sans-serif" font-size="14" lengthAdjust="spacing" textLength="173" x="938.25" y="769.151">MultiModelLoaderFactory</text><line style="stroke:#A80036;stroke-width:1.0;" x1="819.5" x2="1197.5" y1="779.86" y2="779.86"/><line style="stroke:#A80036;stroke-width:1.0;" x1="819.5" x2="1197.5" y1="787.86" y2="787.86"/><rect fill="#F24D5C" height="6" style="stroke:#C82930;stroke-width:1.0;" width="6" x="826.5" y="798.6041"/><text fill="#000000" font-family="sans-serif" font-size="14" lengthAdjust="spacing" textLength="354" x="838.5" y="805.3952">final List&lt;Entry&lt;?, ?&gt;&gt; entries = new ArrayList&lt;&gt;();</text></g><!--reverse link Key to GlideUrl--><g id="link_Key_GlideUrl"><path codeLine="12" d="M797.2798,83.8178 C815.1498,140.5278 855.21,267.65 873.1,324.45 " fill="none" id="Key-backto-GlideUrl" style="stroke:#A80036;stroke-width:1.0;stroke-dasharray:7.0,7.0;"/><polygon fill="none" points="791.87,66.65,791.5572,85.6211,803.0024,82.0146,791.87,66.65" style="stroke:#A80036;stroke-width:1.0;"/></g><!--reverse link DataFetcher to LoadData--><g id="link_DataFetcher_LoadData"><path codeLine="33" d="M377.3223,81.3259 C405.2223,98.7859 430.26,114.46 461.49,134.01 " fill="none" id="DataFetcher-backto-LoadData" style="stroke:#A80036;stroke-width:1.0;"/><polygon fill="#A80036" points="367.15,74.96,370.1142,81.5337,377.3223,81.3259,374.3581,74.7522,367.15,74.96" style="stroke:#A80036;stroke-width:1.0;"/></g><!--reverse link LoadData to ModelLoader--><g id="link_LoadData_ModelLoader"><path codeLine="34" d="M538.5,244.01 C538.5,262.7 538.5,272.27 538.5,291.7 " fill="none" id="LoadData-backto-ModelLoader" style="stroke:#A80036;stroke-width:1.0;"/><polygon fill="#A80036" points="538.5,232.01,534.5,238.01,538.5,244.01,542.5,238.01,538.5,232.01" style="stroke:#A80036;stroke-width:1.0;"/></g><!--reverse link Key to LoadData--><g id="link_Key_LoadData"><path codeLine="35" d="M745.832,65.0925 C713.652,83.2725 669.95,107.96 623.7,134.09 " fill="none" id="Key-backto-LoadData" style="stroke:#A80036;stroke-width:1.0;"/><polygon fill="#A80036" points="756.28,59.19,749.0885,58.6586,745.832,65.0925,753.0235,65.6239,756.28,59.19" style="stroke:#A80036;stroke-width:1.0;"/></g><!--reverse link ModelLoader to ModelLoaderFactory--><g id="link_ModelLoader_ModelLoaderFactory"><path codeLine="36" d="M695.6341,410.6535 C747.4941,430.6835 792.83,448.21 837.45,465.45 " fill="none" id="ModelLoader-backto-ModelLoaderFactory" style="stroke:#A80036;stroke-width:1.0;"/><polygon fill="#A80036" points="684.44,406.33,688.5959,412.2231,695.6341,410.6535,691.4782,404.7604,684.44,406.33" style="stroke:#A80036;stroke-width:1.0;"/></g><!--reverse link ModelLoaderFactory to Entry--><g id="link_ModelLoaderFactory_Entry"><path codeLine="38" d="M946.1704,540.7961 C957.4004,558.3361 965.14,570.42 977.73,590.07 " fill="none" id="ModelLoaderFactory-backto-Entry" style="stroke:#A80036;stroke-width:1.0;"/><polygon fill="#A80036" points="939.7,530.69,939.5665,537.8999,946.1704,540.7961,946.3039,533.5862,939.7,530.69" style="stroke:#A80036;stroke-width:1.0;"/></g><!--reverse link ModelLoader to MultiModelLoader--><g id="link_ModelLoader_MultiModelLoader"><path codeLine="39" d="M499.0066,421.9635 C466.2266,481.7535 424.21,558.39 397.82,606.53 " fill="none" id="ModelLoader-backto-MultiModelLoader" style="stroke:#A80036;stroke-width:1.0;stroke-dasharray:7.0,7.0;"/><polygon fill="none" points="507.66,406.18,493.7455,419.0791,504.2678,424.848,507.66,406.18" style="stroke:#A80036;stroke-width:1.0;"/></g><!--reverse link ModelLoader to HttpGlideUrlLoader--><g id="link_ModelLoader_HttpGlideUrlLoader"><path codeLine="40" d="M559.7766,423.6352 C573.3166,472.0652 587.23,526.63 598.5,590.4 C610.445,657.97 618.625,734.595 623.8525,794.9925 C624.5059,802.5422 625.1132,809.8383 625.676,816.8315 C625.9574,820.3281 626.2276,823.749 626.4869,827.0879 C626.6166,828.7574 626.7435,830.4064 626.8677,832.0342 C626.9298,832.8481 626.9912,833.6566 627.052,834.4598 C627.0824,834.8614 627.1126,835.2616 627.1426,835.6604 " fill="none" id="ModelLoader-backto-HttpGlideUrlLoader" style="stroke:#A80036;stroke-width:1.0;stroke-dasharray:7.0,7.0;"/><polygon fill="none" points="554.93,406.3,553.9982,425.2508,565.555,422.0197,554.93,406.3" style="stroke:#A80036;stroke-width:1.0;"/></g><!--reverse link ModelLoaderFactory to Factory--><g id="link_ModelLoaderFactory_Factory"><path codeLine="41" d="M802.6567,538.5685 C773.9567,552.4085 761.77,563.9 743.5,590.4 C680.83,681.28 694.78,823.57 703.35,879.08 " fill="none" id="ModelLoaderFactory-backto-Factory" style="stroke:#A80036;stroke-width:1.0;stroke-dasharray:7.0,7.0;"/><polygon fill="none" points="818.87,530.75,800.0505,533.1641,805.2629,543.973,818.87,530.75" style="stroke:#A80036;stroke-width:1.0;"/></g><!--reverse link HttpUrlFetcher to HttpGlideUrlLoader--><g id="link_HttpUrlFetcher_HttpGlideUrlLoader"><path codeLine="42" d="M202.2277,218.235 C177.1077,269.235 126.5,384.65 126.5,497.15 C126.5,497.15 126.5,497.15 126.5,640.13 C126.5,765.59 250.785,831.105 376.0413,865.275 C438.6694,882.36 501.5403,891.6087 549.2398,896.5962 C573.0896,899.09 593.1465,900.5184 607.4838,901.3284 C611.0681,901.5309 614.295,901.6948 617.1342,901.827 C618.5539,901.8931 619.8766,901.9512 621.0987,902.0023 C621.7097,902.0279 622.2956,902.0517 622.8558,902.0739 " fill="none" id="HttpUrlFetcher-backto-HttpGlideUrlLoader" style="stroke:#A80036;stroke-width:1.0;"/><polygon fill="#A80036" points="207.53,207.47,201.2905,211.0851,202.2277,218.235,208.4672,214.6199,207.53,207.47" style="stroke:#A80036;stroke-width:1.0;"/></g><!--reverse link DataFetcher to HttpUrlFetcher--><g id="link_DataFetcher_HttpUrlFetcher"><path codeLine="43" d="M284.1874,89.54 C266.2974,115.17 251.78,135.97 235.68,159.04 " fill="none" id="DataFetcher-backto-HttpUrlFetcher" style="stroke:#A80036;stroke-width:1.0;stroke-dasharray:7.0,7.0;"/><polygon fill="none" points="294.49,74.78,279.2674,86.1058,289.1074,92.9742,294.49,74.78" style="stroke:#A80036;stroke-width:1.0;"/></g><!--reverse link ModelLoaderRegistry to Registry--><g id="link_ModelLoaderRegistry_Registry"><path codeLine="44" d="M1008.5,939.61 C1008.5,957.29 1008.5,969.48 1008.5,987.14 " fill="none" id="ModelLoaderRegistry-backto-Registry" style="stroke:#A80036;stroke-width:1.0;"/><polygon fill="#A80036" points="1008.5,927.61,1004.5,933.61,1008.5,939.61,1012.5,933.61,1008.5,927.61" style="stroke:#A80036;stroke-width:1.0;"/></g><!--reverse link MultiModelLoaderFactory to ModelLoaderRegistry--><g id="link_MultiModelLoaderFactory_ModelLoaderRegistry"><path codeLine="45" d="M1008.5,824.64 C1008.5,845.41 1008.5,860.15 1008.5,879.01 " fill="none" id="MultiModelLoaderFactory-backto-ModelLoaderRegistry" style="stroke:#A80036;stroke-width:1.0;"/><polygon fill="#A80036" points="1008.5,812.64,1004.5,818.64,1008.5,824.64,1012.5,818.64,1008.5,812.64" style="stroke:#A80036;stroke-width:1.0;"/></g><!--reverse link Entry to MultiModelLoaderFactory--><g id="link_Entry_MultiModelLoaderFactory"><path codeLine="49" d="M1008.5,700.35 C1008.5,719.95 1008.5,730.04 1008.5,747.53 " fill="none" id="Entry-backto-MultiModelLoaderFactory" style="stroke:#A80036;stroke-width:1.0;"/><polygon fill="#A80036" points="1008.5,688.35,1004.5,694.35,1008.5,700.35,1012.5,694.35,1008.5,688.35" style="stroke:#A80036;stroke-width:1.0;"/></g><!--SRC=[XLHDSzCm4BtxL-mnXIH_8CM5AItCq1Q62GUEYhsjDLKbZoHJCeN_paehDRBZ33d4rhwd_NXwbdkK6gnnM3LAE0TNsjlz-QrfKItXe_2YXfSAO0NtKWi5bu74S0rFuH4Z6wAy7L5uQql_HuIu-yQ85ksrQBoXUXU0lptgra6gV0XmedicRgg_bTGUBQrnBj5s2J-vum9CqTqWLRku7PINnplXASJJuYpKAGfzmVqBHJufsU8Fgs0zzElrdvh2yzsCz0lDXE435099cjXDZYqYXt_lxuo-6rJIYKLU0jM1PzdwZbyxb0-TNnx8NtilZNPW-4aJfB8xOnGA3PtGhKAtc4iVv-Np7tUPU-U3etd1cS4sI6-R4NGZdJ-dQ0r2aI1Q-C1nOr98UOs-wKYXTAoyciXTyhQlFVmoiWML1NiTuvkLnag_Xpwz5A84vgLGQYUQH_AO6tgqiAsXIR5YxgajkEgg7E_K0QSFWH5tIFdP-pvRXi5rybT182oDMcNfOJNqgpUb2bLHEg6PFDqLF3dZRWOBeAhYbtuCv1QdWcJJbpcE9uoi_v6o39noJC_bPr9pgnFHnijKlfJkEpxGuSrDcf5g9fRPyvV52SyaTCOwVAjUqBr6Ra5QI7Jm3ZG-mmThnJwIwaNquwaBYZkAcVu1]--></g></svg>