<?xml version="1.0" encoding="us-ascii" standalone="no"?><svg xmlns="http://www.w3.org/2000/svg" xmlns:xlink="http://www.w3.org/1999/xlink" contentStyleType="text/css" height="1042px" preserveAspectRatio="none" style="width:1111px;height:1042px;background:#FFFFFF;" version="1.1" viewBox="0 0 1111 1042" width="1111px" zoomAndPan="magnify"><defs><filter height="300%" id="f16avnkgd77bwq" width="300%" x="-1" y="-1"><feGaussianBlur result="blurOut" stdDeviation="2.0"/><feColorMatrix in="blurOut" result="blurOut2" type="matrix" values="0 0 0 0 0 0 0 0 0 0 0 0 0 0 0 0 0 0 .4 0"/><feOffset dx="4.0" dy="4.0" in="blurOut2" result="blurOut3"/><feBlend in="SourceGraphic" in2="blurOut3" mode="normal"/></filter></defs><g><!--class Entry--><g id="elem_Entry"><rect codeLine="1" fill="#FEFECE" filter="url(#f16avnkgd77bwq)" height="97.4648" id="Entry" style="stroke:#A80036;stroke-width:1.0;" width="495" x="7" y="590.4"/><ellipse cx="195.75" cy="606.4" fill="#ADD1B2" rx="11" ry="11" style="stroke:#A80036;stroke-width:1.0;"/><path d="M198.7231,612.0431 Q198.1421,612.3419 197.5029,612.4913 Q196.8638,612.6407 196.1582,612.6407 Q193.6514,612.6407 192.3315,610.9889 Q191.0117,609.337 191.0117,606.2159 Q191.0117,603.0865 192.3315,601.4347 Q193.6514,599.7828 196.1582,599.7828 Q196.8638,599.7828 197.5112,599.9322 Q198.1587,600.0816 198.7231,600.3805 L198.7231,603.1031 Q198.0923,602.5221 197.4988,602.2523 Q196.9053,601.9825 196.2744,601.9825 Q194.9297,601.9825 194.2449,603.0492 Q193.5601,604.1158 193.5601,606.2159 Q193.5601,608.3077 194.2449,609.3744 Q194.9297,610.441 196.2744,610.441 Q196.9053,610.441 197.4988,610.1712 Q198.0923,609.9015 198.7231,609.3204 Z " fill="#000000"/><text fill="#000000" font-family="sans-serif" font-size="14" lengthAdjust="spacing" textLength="35" x="216.25" y="611.691">Entry</text><rect fill="#FFFFFF" height="16.1328" style="stroke:#A80036;stroke-width:1.0;stroke-dasharray:2.0,2.0;" width="72" x="433" y="587.4"/><text fill="#000000" font-family="sans-serif" font-size="12" font-style="italic" lengthAdjust="spacing" textLength="70" x="434" y="600.0016">Model, Data</text><line style="stroke:#A80036;stroke-width:1.0;" x1="8" x2="501" y1="622.4" y2="622.4"/><rect fill="none" height="6" style="stroke:#C82930;stroke-width:1.0;" width="6" x="15" y="633.1441"/><text fill="#000000" font-family="sans-serif" font-size="14" lengthAdjust="spacing" textLength="221" x="27" y="639.9352">final Class&lt;Model&gt; modelClass;</text><ellipse cx="18" cy="652.6324" fill="none" rx="3" ry="3" style="stroke:#038048;stroke-width:1.0;"/><text fill="#000000" font-family="sans-serif" font-size="14" lengthAdjust="spacing" textLength="197" x="27" y="656.4234">final Class&lt;Data&gt; dataClass;</text><ellipse cx="18" cy="669.1207" fill="none" rx="3" ry="3" style="stroke:#038048;stroke-width:1.0;"/><text fill="#000000" font-family="sans-serif" font-size="14" lengthAdjust="spacing" textLength="469" x="27" y="672.9117">final ModelLoaderFactory&lt;? extends Model, ? extends Data&gt; factory;</text><line style="stroke:#A80036;stroke-width:1.0;" x1="8" x2="501" y1="679.8648" y2="679.8648"/></g><!--class ModelLoaderFactory--><g id="elem_ModelLoaderFactory"><rect codeLine="6" fill="#FEFECE" filter="url(#f16avnkgd77bwq)" height="64.4883" id="ModelLoaderFactory" style="stroke:#A80036;stroke-width:1.0;" width="464" x="22.5" y="465.91"/><ellipse cx="167.25" cy="481.91" fill="#B4A7E5" rx="11" ry="11" style="stroke:#A80036;stroke-width:1.0;"/><path d="M163.1777,477.6751 L163.1777,475.5169 L170.5571,475.5169 L170.5571,477.6751 L168.0918,477.6751 L168.0918,485.7518 L170.5571,485.7518 L170.5571,487.91 L163.1777,487.91 L163.1777,485.7518 L165.6431,485.7518 L165.6431,477.6751 Z " fill="#000000"/><text fill="#000000" font-family="sans-serif" font-size="14" font-style="italic" lengthAdjust="spacing" textLength="139" x="187.75" y="487.201">ModelLoaderFactory</text><rect fill="#FFFFFF" height="16.1328" style="stroke:#A80036;stroke-width:1.0;stroke-dasharray:2.0,2.0;" width="25" x="464.5" y="462.91"/><text fill="#000000" font-family="sans-serif" font-size="12" font-style="italic" lengthAdjust="spacing" textLength="23" x="465.5" y="475.5116">T, Y</text><line style="stroke:#A80036;stroke-width:1.0;" x1="23.5" x2="485.5" y1="497.91" y2="497.91"/><line style="stroke:#A80036;stroke-width:1.0;" x1="23.5" x2="485.5" y1="505.91" y2="505.91"/><text fill="#000000" font-family="sans-serif" font-size="14" lengthAdjust="spacing" textLength="452" x="28.5" y="523.4452">ModelLoader&lt;T, Y&gt; build(MultiModelLoaderFactory multiFactory);</text></g><!--class Key--><g id="elem_Key"><rect codeLine="10" fill="#FEFECE" filter="url(#f16avnkgd77bwq)" height="48" id="Key" style="stroke:#A80036;stroke-width:1.0;" width="56" x="386.5" y="18.25"/><ellipse cx="401.5" cy="34.25" fill="#B4A7E5" rx="11" ry="11" style="stroke:#A80036;stroke-width:1.0;"/><path d="M397.4277,30.0151 L397.4277,27.8569 L404.8071,27.8569 L404.8071,30.0151 L402.3418,30.0151 L402.3418,38.0918 L404.8071,38.0918 L404.8071,40.25 L397.4277,40.25 L397.4277,38.0918 L399.8931,38.0918 L399.8931,30.0151 Z " fill="#000000"/><text fill="#000000" font-family="sans-serif" font-size="14" font-style="italic" lengthAdjust="spacing" textLength="24" x="415.5" y="39.541">Key</text><line style="stroke:#A80036;stroke-width:1.0;" x1="387.5" x2="441.5" y1="50.25" y2="50.25"/><line style="stroke:#A80036;stroke-width:1.0;" x1="387.5" x2="441.5" y1="58.25" y2="58.25"/></g><!--class ModelLoader--><g id="elem_ModelLoader"><rect codeLine="12" fill="#FEFECE" filter="url(#f16avnkgd77bwq)" height="113.9531" id="ModelLoader" style="stroke:#A80036;stroke-width:1.0;" width="526" x="225.5" y="291.96"/><ellipse cx="402.75" cy="307.96" fill="#B4A7E5" rx="11" ry="11" style="stroke:#A80036;stroke-width:1.0;"/><path d="M398.6777,303.7251 L398.6777,301.5669 L406.0571,301.5669 L406.0571,303.7251 L403.5918,303.7251 L403.5918,311.8018 L406.0571,311.8018 L406.0571,313.96 L398.6777,313.96 L398.6777,311.8018 L401.1431,311.8018 L401.1431,303.7251 Z " fill="#000000"/><text fill="#000000" font-family="sans-serif" font-size="14" font-style="italic" lengthAdjust="spacing" textLength="89" x="423.25" y="313.251">ModelLoader</text><rect fill="#FFFFFF" height="16.1328" style="stroke:#A80036;stroke-width:1.0;stroke-dasharray:2.0,2.0;" width="72" x="682.5" y="288.96"/><text fill="#000000" font-family="sans-serif" font-size="12" font-style="italic" lengthAdjust="spacing" textLength="70" x="683.5" y="301.5616">Model, Data</text><line style="stroke:#A80036;stroke-width:1.0;" x1="226.5" x2="750.5" y1="323.96" y2="323.96"/><line style="stroke:#A80036;stroke-width:1.0;" x1="226.5" x2="750.5" y1="331.96" y2="331.96"/><ellipse cx="236.5" cy="345.7041" fill="#84BE84" rx="3" ry="3" style="stroke:#038048;stroke-width:1.0;"/><text fill="#000000" font-family="sans-serif" font-size="14" lengthAdjust="spacing" textLength="225" x="245.5" y="349.4952">LoadData&lt;Data&gt; buildLoadData(</text><text fill="#000000" font-family="sans-serif" font-size="14" lengthAdjust="spacing" textLength="500" x="245.5" y="365.9834">@NonNull Model model, int width, int height, @NonNull Options options);</text><text fill="#000000" font-family="sans-serif" font-size="14" lengthAdjust="spacing" textLength="4" x="245.5" y="382.4717">&#160;</text><ellipse cx="236.5" cy="395.169" fill="#84BE84" rx="3" ry="3" style="stroke:#038048;stroke-width:1.0;"/><text fill="#000000" font-family="sans-serif" font-size="14" lengthAdjust="spacing" textLength="288" x="245.5" y="398.96">boolean handles(@NonNull Model model);</text></g><!--class LoadData--><g id="elem_LoadData"><rect codeLine="18" fill="#FEFECE" filter="url(#f16avnkgd77bwq)" height="97.4648" id="LoadData" style="stroke:#A80036;stroke-width:1.0;" width="251" x="363" y="134.49"/><ellipse cx="436.75" cy="150.49" fill="#ADD1B2" rx="11" ry="11" style="stroke:#A80036;stroke-width:1.0;"/><path d="M439.7231,156.1331 Q439.1421,156.4319 438.5029,156.5813 Q437.8638,156.7307 437.1582,156.7307 Q434.6514,156.7307 433.3315,155.0789 Q432.0117,153.427 432.0117,150.3059 Q432.0117,147.1765 433.3315,145.5247 Q434.6514,143.8728 437.1582,143.8728 Q437.8638,143.8728 438.5112,144.0222 Q439.1587,144.1716 439.7231,144.4705 L439.7231,147.1931 Q439.0923,146.6121 438.4988,146.3423 Q437.9053,146.0725 437.2744,146.0725 Q435.9297,146.0725 435.2449,147.1392 Q434.5601,148.2058 434.5601,150.3059 Q434.5601,152.3977 435.2449,153.4644 Q435.9297,154.531 437.2744,154.531 Q437.9053,154.531 438.4988,154.2612 Q439.0923,153.9915 439.7231,153.4104 Z " fill="#000000"/><text fill="#000000" font-family="sans-serif" font-size="14" lengthAdjust="spacing" textLength="64" x="457.25" y="155.781">LoadData</text><rect fill="#FFFFFF" height="16.1328" style="stroke:#A80036;stroke-width:1.0;stroke-dasharray:2.0,2.0;" width="29" x="588" y="131.49"/><text fill="#000000" font-family="sans-serif" font-size="12" font-style="italic" lengthAdjust="spacing" textLength="27" x="589" y="144.0916">Data</text><line style="stroke:#A80036;stroke-width:1.0;" x1="364" x2="613" y1="166.49" y2="166.49"/><ellipse cx="374" cy="180.2341" fill="none" rx="3" ry="3" style="stroke:#038048;stroke-width:1.0;"/><text fill="#000000" font-family="sans-serif" font-size="14" lengthAdjust="spacing" textLength="136" x="383" y="184.0252">final Key sourceKey;</text><ellipse cx="374" cy="196.7224" fill="none" rx="3" ry="3" style="stroke:#038048;stroke-width:1.0;"/><text fill="#000000" font-family="sans-serif" font-size="14" lengthAdjust="spacing" textLength="203" x="383" y="200.5134">final List&lt;Key&gt; alternateKeys;</text><ellipse cx="374" cy="213.2107" fill="none" rx="3" ry="3" style="stroke:#038048;stroke-width:1.0;"/><text fill="#000000" font-family="sans-serif" font-size="14" lengthAdjust="spacing" textLength="225" x="383" y="217.0017">final DataFetcher&lt;Data&gt; fetcher;</text><line style="stroke:#A80036;stroke-width:1.0;" x1="364" x2="613" y1="223.9548" y2="223.9548"/></g><!--class DataFetcher--><g id="elem_DataFetcher"><rect codeLine="24" fill="#FEFECE" filter="url(#f16avnkgd77bwq)" height="64.4883" id="DataFetcher" style="stroke:#A80036;stroke-width:1.0;" width="619" x="478" y="10"/><ellipse cx="736.25" cy="26" fill="#B4A7E5" rx="11" ry="11" style="stroke:#A80036;stroke-width:1.0;"/><path d="M732.1777,21.7651 L732.1777,19.6069 L739.5571,19.6069 L739.5571,21.7651 L737.0918,21.7651 L737.0918,29.8418 L739.5571,29.8418 L739.5571,32 L732.1777,32 L732.1777,29.8418 L734.6431,29.8418 L734.6431,21.7651 Z " fill="#000000"/><text fill="#000000" font-family="sans-serif" font-size="14" font-style="italic" lengthAdjust="spacing" textLength="82" x="756.75" y="31.291">DataFetcher</text><rect fill="#FFFFFF" height="16.1328" style="stroke:#A80036;stroke-width:1.0;stroke-dasharray:2.0,2.0;" width="10" x="1090" y="7"/><text fill="#000000" font-family="sans-serif" font-size="12" font-style="italic" lengthAdjust="spacing" textLength="8" x="1091" y="19.6016">T</text><line style="stroke:#A80036;stroke-width:1.0;" x1="479" x2="1096" y1="42" y2="42"/><line style="stroke:#A80036;stroke-width:1.0;" x1="479" x2="1096" y1="50" y2="50"/><ellipse cx="489" cy="63.7441" fill="#84BE84" rx="3" ry="3" style="stroke:#038048;stroke-width:1.0;"/><text fill="#000000" font-family="sans-serif" font-size="14" lengthAdjust="spacing" textLength="593" x="498" y="67.5352">void loadData(@NonNull Priority priority, @NonNull DataCallback&lt;? super T&gt; callback);</text></g><!--class MultiModelLoader--><g id="elem_MultiModelLoader"><rect codeLine="27" fill="#FEFECE" filter="url(#f16avnkgd77bwq)" height="64.4883" id="MultiModelLoader" style="stroke:#A80036;stroke-width:1.0;" width="402" x="521.5" y="465.91"/><ellipse cx="656.75" cy="481.91" fill="#ADD1B2" rx="11" ry="11" style="stroke:#A80036;stroke-width:1.0;"/><path d="M659.7231,487.5531 Q659.1421,487.8519 658.5029,488.0013 Q657.8638,488.1507 657.1582,488.1507 Q654.6514,488.1507 653.3315,486.4989 Q652.0117,484.847 652.0117,481.7259 Q652.0117,478.5965 653.3315,476.9447 Q654.6514,475.2928 657.1582,475.2928 Q657.8638,475.2928 658.5112,475.4422 Q659.1587,475.5916 659.7231,475.8905 L659.7231,478.6131 Q659.0923,478.0321 658.4988,477.7623 Q657.9053,477.4925 657.2744,477.4925 Q655.9297,477.4925 655.2449,478.5592 Q654.5601,479.6258 654.5601,481.7259 Q654.5601,483.8177 655.2449,484.8844 Q655.9297,485.951 657.2744,485.951 Q657.9053,485.951 658.4988,485.6812 Q659.0923,485.4115 659.7231,484.8304 Z " fill="#000000"/><text fill="#000000" font-family="sans-serif" font-size="14" lengthAdjust="spacing" textLength="123" x="677.25" y="487.201">MultiModelLoader</text><line style="stroke:#A80036;stroke-width:1.0;" x1="522.5" x2="922.5" y1="497.91" y2="497.91"/><rect fill="none" height="6" style="stroke:#C82930;stroke-width:1.0;" width="6" x="529.5" y="508.6541"/><text fill="#000000" font-family="sans-serif" font-size="14" lengthAdjust="spacing" textLength="376" x="541.5" y="515.4452">final List&lt;ModelLoader&lt;Model, Data&gt;&gt; modelLoaders;</text><line style="stroke:#A80036;stroke-width:1.0;" x1="522.5" x2="922.5" y1="522.3983" y2="522.3983"/></g><!--class HttpUrlFetcher--><g id="elem_HttpUrlFetcher"><rect codeLine="30" fill="#FEFECE" filter="url(#f16avnkgd77bwq)" height="48" id="HttpUrlFetcher" style="stroke:#A80036;stroke-width:1.0;" width="132" x="721.5" y="159.22"/><ellipse cx="736.5" cy="175.22" fill="#ADD1B2" rx="11" ry="11" style="stroke:#A80036;stroke-width:1.0;"/><path d="M739.4731,180.8631 Q738.8921,181.1619 738.2529,181.3113 Q737.6138,181.4607 736.9082,181.4607 Q734.4014,181.4607 733.0815,179.8089 Q731.7617,178.157 731.7617,175.0359 Q731.7617,171.9065 733.0815,170.2547 Q734.4014,168.6028 736.9082,168.6028 Q737.6138,168.6028 738.2612,168.7522 Q738.9087,168.9016 739.4731,169.2005 L739.4731,171.9231 Q738.8423,171.3421 738.2488,171.0723 Q737.6553,170.8025 737.0244,170.8025 Q735.6797,170.8025 734.9949,171.8692 Q734.3101,172.9358 734.3101,175.0359 Q734.3101,177.1277 734.9949,178.1944 Q735.6797,179.261 737.0244,179.261 Q737.6553,179.261 738.2488,178.9912 Q738.8423,178.7215 739.4731,178.1404 Z " fill="#000000"/><text fill="#000000" font-family="sans-serif" font-size="14" lengthAdjust="spacing" textLength="100" x="750.5" y="180.511">HttpUrlFetcher</text><line style="stroke:#A80036;stroke-width:1.0;" x1="722.5" x2="852.5" y1="191.22" y2="191.22"/><line style="stroke:#A80036;stroke-width:1.0;" x1="722.5" x2="852.5" y1="199.22" y2="199.22"/></g><!--class Registry--><g id="elem_Registry"><rect fill="#FEFECE" filter="url(#f16avnkgd77bwq)" height="48" id="Registry" style="stroke:#A80036;stroke-width:1.0;" width="87" x="211" y="980.35"/><ellipse cx="226" cy="996.35" fill="#ADD1B2" rx="11" ry="11" style="stroke:#A80036;stroke-width:1.0;"/><path d="M228.9731,1001.9931 Q228.3921,1002.2919 227.7529,1002.4413 Q227.1138,1002.5907 226.4082,1002.5907 Q223.9014,1002.5907 222.5815,1000.9389 Q221.2617,999.287 221.2617,996.1659 Q221.2617,993.0365 222.5815,991.3847 Q223.9014,989.7328 226.4082,989.7328 Q227.1138,989.7328 227.7612,989.8822 Q228.4087,990.0316 228.9731,990.3305 L228.9731,993.0531 Q228.3423,992.4721 227.7488,992.2023 Q227.1553,991.9325 226.5244,991.9325 Q225.1797,991.9325 224.4949,992.9992 Q223.8101,994.0658 223.8101,996.1659 Q223.8101,998.2577 224.4949,999.3244 Q225.1797,1000.391 226.5244,1000.391 Q227.1553,1000.391 227.7488,1000.1212 Q228.3423,999.8515 228.9731,999.2704 Z " fill="#000000"/><text fill="#000000" font-family="sans-serif" font-size="14" lengthAdjust="spacing" textLength="55" x="240" y="1001.641">Registry</text><line style="stroke:#A80036;stroke-width:1.0;" x1="212" x2="297" y1="1012.35" y2="1012.35"/><line style="stroke:#A80036;stroke-width:1.0;" x1="212" x2="297" y1="1020.35" y2="1020.35"/></g><!--class ModelLoaderRegistry--><g id="elem_ModelLoaderRegistry"><rect fill="#FEFECE" filter="url(#f16avnkgd77bwq)" height="48" id="ModelLoaderRegistry" style="stroke:#A80036;stroke-width:1.0;" width="176" x="166.5" y="872.35"/><ellipse cx="181.5" cy="888.35" fill="#ADD1B2" rx="11" ry="11" style="stroke:#A80036;stroke-width:1.0;"/><path d="M184.4731,893.9931 Q183.8921,894.2919 183.2529,894.4413 Q182.6138,894.5907 181.9082,894.5907 Q179.4014,894.5907 178.0815,892.9389 Q176.7617,891.287 176.7617,888.1659 Q176.7617,885.0365 178.0815,883.3847 Q179.4014,881.7328 181.9082,881.7328 Q182.6138,881.7328 183.2612,881.8822 Q183.9087,882.0316 184.4731,882.3305 L184.4731,885.0531 Q183.8423,884.4721 183.2488,884.2023 Q182.6553,883.9325 182.0244,883.9325 Q180.6797,883.9325 179.9949,884.9992 Q179.3101,886.0658 179.3101,888.1659 Q179.3101,890.2577 179.9949,891.3244 Q180.6797,892.391 182.0244,892.391 Q182.6553,892.391 183.2488,892.1212 Q183.8423,891.8515 184.4731,891.2704 Z " fill="#000000"/><text fill="#000000" font-family="sans-serif" font-size="14" lengthAdjust="spacing" textLength="144" x="195.5" y="893.641">ModelLoaderRegistry</text><line style="stroke:#A80036;stroke-width:1.0;" x1="167.5" x2="341.5" y1="904.35" y2="904.35"/><line style="stroke:#A80036;stroke-width:1.0;" x1="167.5" x2="341.5" y1="912.35" y2="912.35"/></g><!--class MultiModelLoaderFactory--><g id="elem_MultiModelLoaderFactory"><rect codeLine="40" fill="#FEFECE" filter="url(#f16avnkgd77bwq)" height="64.4883" id="MultiModelLoaderFactory" style="stroke:#A80036;stroke-width:1.0;" width="380" x="64.5" y="747.86"/><ellipse cx="163.75" cy="763.86" fill="#ADD1B2" rx="11" ry="11" style="stroke:#A80036;stroke-width:1.0;"/><path d="M166.7231,769.5031 Q166.1421,769.8019 165.5029,769.9513 Q164.8638,770.1007 164.1582,770.1007 Q161.6514,770.1007 160.3315,768.4489 Q159.0117,766.797 159.0117,763.6759 Q159.0117,760.5465 160.3315,758.8947 Q161.6514,757.2428 164.1582,757.2428 Q164.8638,757.2428 165.5112,757.3922 Q166.1587,757.5416 166.7231,757.8405 L166.7231,760.5631 Q166.0923,759.9821 165.4988,759.7123 Q164.9053,759.4425 164.2744,759.4425 Q162.9297,759.4425 162.2449,760.5092 Q161.5601,761.5758 161.5601,763.6759 Q161.5601,765.7677 162.2449,766.8344 Q162.9297,767.901 164.2744,767.901 Q164.9053,767.901 165.4988,767.6312 Q166.0923,767.3615 166.7231,766.7804 Z " fill="#000000"/><text fill="#000000" font-family="sans-serif" font-size="14" lengthAdjust="spacing" textLength="173" x="184.25" y="769.151">MultiModelLoaderFactory</text><line style="stroke:#A80036;stroke-width:1.0;" x1="65.5" x2="443.5" y1="779.86" y2="779.86"/><line style="stroke:#A80036;stroke-width:1.0;" x1="65.5" x2="443.5" y1="787.86" y2="787.86"/><rect fill="#F24D5C" height="6" style="stroke:#C82930;stroke-width:1.0;" width="6" x="72.5" y="798.6041"/><text fill="#000000" font-family="sans-serif" font-size="14" lengthAdjust="spacing" textLength="354" x="84.5" y="805.3952">final List&lt;Entry&lt;?, ?&gt;&gt; entries = new ArrayList&lt;&gt;();</text></g><!--reverse link DataFetcher to LoadData--><g id="link_DataFetcher_LoadData"><path codeLine="31" d="M708.3972,80.0162 C670.8172,97.4762 634.29,114.46 592.23,134.01 " fill="none" id="DataFetcher-backto-LoadData" style="stroke:#A80036;stroke-width:1.0;"/><polygon fill="#A80036" points="719.28,74.96,712.1532,73.8605,708.3972,80.0162,715.524,81.1157,719.28,74.96" style="stroke:#A80036;stroke-width:1.0;"/></g><!--reverse link LoadData to ModelLoader--><g id="link_LoadData_ModelLoader"><path codeLine="32" d="M488.5,244.01 C488.5,262.7 488.5,272.27 488.5,291.7 " fill="none" id="LoadData-backto-ModelLoader" style="stroke:#A80036;stroke-width:1.0;"/><polygon fill="#A80036" points="488.5,232.01,484.5,238.01,488.5,244.01,492.5,238.01,488.5,232.01" style="stroke:#A80036;stroke-width:1.0;"/></g><!--reverse link Key to LoadData--><g id="link_Key_LoadData"><path codeLine="33" d="M432.529,77.1025 C442.319,95.4925 450.68,111.2 462.86,134.07 " fill="none" id="Key-backto-LoadData" style="stroke:#A80036;stroke-width:1.0;"/><polygon fill="#A80036" points="426.89,66.51,426.1786,73.6859,432.529,77.1025,433.2403,69.9266,426.89,66.51" style="stroke:#A80036;stroke-width:1.0;"/></g><!--reverse link ModelLoader to ModelLoaderFactory--><g id="link_ModelLoader_ModelLoaderFactory"><path codeLine="34" d="M388.8735,412.6111 C356.8835,432.7411 332.13,448.31 304.63,465.61 " fill="none" id="ModelLoader-backto-ModelLoaderFactory" style="stroke:#A80036;stroke-width:1.0;"/><polygon fill="#A80036" points="399.03,406.22,391.8214,406.03,388.8735,412.6111,396.0821,412.801,399.03,406.22" style="stroke:#A80036;stroke-width:1.0;"/></g><!--reverse link ModelLoaderFactory to Entry--><g id="link_ModelLoaderFactory_Entry"><path codeLine="35" d="M254.5,542.69 C254.5,560.23 254.5,570.42 254.5,590.07 " fill="none" id="ModelLoaderFactory-backto-Entry" style="stroke:#A80036;stroke-width:1.0;"/><polygon fill="#A80036" points="254.5,530.69,250.5,536.69,254.5,542.69,258.5,536.69,254.5,530.69" style="stroke:#A80036;stroke-width:1.0;"/></g><!--reverse link ModelLoader to MultiModelLoader--><g id="link_ModelLoader_MultiModelLoader"><path codeLine="36" d="M593.2047,415.8066 C625.1947,435.9366 644.87,448.31 672.37,465.61 " fill="none" id="ModelLoader-backto-MultiModelLoader" style="stroke:#A80036;stroke-width:1.0;stroke-dasharray:7.0,7.0;"/><polygon fill="none" points="577.97,406.22,590.0092,420.8848,596.4003,410.7284,577.97,406.22" style="stroke:#A80036;stroke-width:1.0;"/></g><!--reverse link DataFetcher to HttpUrlFetcher--><g id="link_DataFetcher_HttpUrlFetcher"><path codeLine="37" d="M787.5,92.78 C787.5,118.41 787.5,135.97 787.5,159.04 " fill="none" id="DataFetcher-backto-HttpUrlFetcher" style="stroke:#A80036;stroke-width:1.0;stroke-dasharray:7.0,7.0;"/><polygon fill="none" points="787.5,74.78,781.5,92.78,793.5,92.78,787.5,74.78" style="stroke:#A80036;stroke-width:1.0;"/></g><!--reverse link ModelLoaderRegistry to Registry--><g id="link_ModelLoaderRegistry_Registry"><path codeLine="38" d="M254.5,932.61 C254.5,950.29 254.5,962.48 254.5,980.14 " fill="none" id="ModelLoaderRegistry-backto-Registry" style="stroke:#A80036;stroke-width:1.0;"/><polygon fill="#A80036" points="254.5,920.61,250.5,926.61,254.5,932.61,258.5,926.61,254.5,920.61" style="stroke:#A80036;stroke-width:1.0;"/></g><!--reverse link MultiModelLoaderFactory to ModelLoaderRegistry--><g id="link_MultiModelLoaderFactory_ModelLoaderRegistry"><path codeLine="39" d="M254.5,824.63 C254.5,843.38 254.5,854.78 254.5,871.91 " fill="none" id="MultiModelLoaderFactory-backto-ModelLoaderRegistry" style="stroke:#A80036;stroke-width:1.0;"/><polygon fill="#A80036" points="254.5,812.63,250.5,818.63,254.5,824.63,258.5,818.63,254.5,812.63" style="stroke:#A80036;stroke-width:1.0;"/></g><!--reverse link Entry to MultiModelLoaderFactory--><g id="link_Entry_MultiModelLoaderFactory"><path codeLine="43" d="M254.5,700.35 C254.5,719.95 254.5,730.04 254.5,747.53 " fill="none" id="Entry-backto-MultiModelLoaderFactory" style="stroke:#A80036;stroke-width:1.0;"/><polygon fill="#A80036" points="254.5,688.35,250.5,694.35,254.5,700.35,258.5,694.35,254.5,688.35" style="stroke:#A80036;stroke-width:1.0;"/></g><!--SRC=[TLHDK-Cm3BtxL-ZONLh-GDa00yimmyVkx9G3HpSHn8EnCxQpR0VsloDR3dNQD8V4bfxqf2Sx_aKPSDQZgBNq7dwQu3OdTxP1FOTB6MG5xm9W0K_AI0qN4SJk2bxZ9rcM13aQGJYqeVSU84NVMjcWkv9riCHt2lWle6ayPEQjWHCzCN0f_Wjb0ZhQurIYrHmUkUB2cQthNkbcTjVheFOZuJNQy-PRv2c8Rd3pVeXvf5KaZer6LpHa6HBpO9ib33zdzzRSzpfhmeBEWNZWJJMXvMMBwhaDyotuLnUKDHuiVwdQJBksLgCqq4hJQFIpgVIfDvxrkCgXTXuIjGpUzgv6MYr7hblbmmbPAv2Q134oH8mVWsBAAmnrImhb4V9kHzeIj_gguQzL3UX1iAysVZjbdGeRwFAY42KYBwJMQrc_q7doVOSELXNKsLRqlNi4c7LHjdTemFdGiyTlKrw7q3qudJiHWxAmwBl5zx99KMJEtW6y6qMYYec3oix28TATtRVd0B7RBXpttV57LMOObvy1PTL_y9bacM8PF6B2Dg2dhzo1QMJln53uttHAVmUQ0z96eOSVOF0DpfsJcmIgPcdIXwuvLvGoVG80]--></g></svg>