<?xml version="1.0" encoding="us-ascii" standalone="no"?><svg xmlns="http://www.w3.org/2000/svg" xmlns:xlink="http://www.w3.org/1999/xlink" contentStyleType="text/css" height="789px" preserveAspectRatio="none" style="width:1986px;height:789px;background:#FFFFFF;" version="1.1" viewBox="0 0 1986 789" width="1986px" zoomAndPan="magnify"><defs><filter height="300%" id="fd3a1x509ytoi" width="300%" x="-1" y="-1"><feGaussianBlur result="blurOut" stdDeviation="2.0"/><feColorMatrix in="blurOut" result="blurOut2" type="matrix" values="0 0 0 0 0 0 0 0 0 0 0 0 0 0 0 0 0 0 .4 0"/><feOffset dx="4.0" dy="4.0" in="blurOut2" result="blurOut3"/><feBlend in="SourceGraphic" in2="blurOut3" mode="normal"/></filter></defs><g><line style="stroke:#A80036;stroke-width:1.0;stroke-dasharray:5.0,5.0;" x1="29" x2="29" y1="88.4883" y2="704.8359"/><line style="stroke:#A80036;stroke-width:1.0;stroke-dasharray:5.0,5.0;" x1="162" x2="162" y1="88.4883" y2="704.8359"/><line style="stroke:#A80036;stroke-width:1.0;stroke-dasharray:5.0,5.0;" x1="299" x2="299" y1="88.4883" y2="704.8359"/><line style="stroke:#A80036;stroke-width:1.0;stroke-dasharray:5.0,5.0;" x1="561" x2="561" y1="88.4883" y2="704.8359"/><line style="stroke:#A80036;stroke-width:1.0;stroke-dasharray:5.0,5.0;" x1="712" x2="712" y1="88.4883" y2="704.8359"/><line style="stroke:#A80036;stroke-width:1.0;stroke-dasharray:5.0,5.0;" x1="1109.5" x2="1109.5" y1="88.4883" y2="704.8359"/><line style="stroke:#A80036;stroke-width:1.0;stroke-dasharray:5.0,5.0;" x1="1249.5" x2="1249.5" y1="88.4883" y2="704.8359"/><line style="stroke:#A80036;stroke-width:1.0;stroke-dasharray:5.0,5.0;" x1="1946.5" x2="1946.5" y1="88.4883" y2="704.8359"/><text fill="#000000" font-family="sans-serif" font-size="14" lengthAdjust="spacing" textLength="42" x="5" y="85.5352">&#23458;&#25143;&#31471;</text><ellipse cx="29" cy="15" fill="#FEFECE" filter="url(#fd3a1x509ytoi)" rx="8" ry="8" style="stroke:#A80036;stroke-width:2.0;"/><path d="M29,23 L29,50 M16,31 L42,31 M29,50 L16,65 M29,50 L42,65 " fill="none" filter="url(#fd3a1x509ytoi)" style="stroke:#A80036;stroke-width:2.0;"/><text fill="#000000" font-family="sans-serif" font-size="14" lengthAdjust="spacing" textLength="42" x="5" y="717.3711">&#23458;&#25143;&#31471;</text><ellipse cx="29" cy="730.3242" fill="#FEFECE" filter="url(#fd3a1x509ytoi)" rx="8" ry="8" style="stroke:#A80036;stroke-width:2.0;"/><path d="M29,738.3242 L29,765.3242 M16,746.3242 L42,746.3242 M29,765.3242 L16,780.3242 M29,765.3242 L42,780.3242 " fill="none" filter="url(#fd3a1x509ytoi)" style="stroke:#A80036;stroke-width:2.0;"/><rect fill="#FEFECE" filter="url(#fd3a1x509ytoi)" height="30.4883" style="stroke:#A80036;stroke-width:1.5;" width="194" x="63" y="53"/><text fill="#000000" font-family="sans-serif" font-size="14" lengthAdjust="spacing" textLength="180" x="70" y="73.5352">IActivityTaskManager.Stub</text><rect fill="#FEFECE" filter="url(#fd3a1x509ytoi)" height="30.4883" style="stroke:#A80036;stroke-width:1.5;" width="194" x="63" y="703.8359"/><text fill="#000000" font-family="sans-serif" font-size="14" lengthAdjust="spacing" textLength="180" x="70" y="724.3711">IActivityTaskManager.Stub</text><rect fill="#FEFECE" filter="url(#fd3a1x509ytoi)" height="30.4883" style="stroke:#A80036;stroke-width:1.5;" width="53" x="271" y="53"/><text fill="#000000" font-family="sans-serif" font-size="14" lengthAdjust="spacing" textLength="39" x="278" y="73.5352">Proxy</text><rect fill="#FEFECE" filter="url(#fd3a1x509ytoi)" height="30.4883" style="stroke:#A80036;stroke-width:1.5;" width="53" x="271" y="703.8359"/><text fill="#000000" font-family="sans-serif" font-size="14" lengthAdjust="spacing" textLength="39" x="278" y="724.3711">Proxy</text><rect fill="#FEFECE" filter="url(#fd3a1x509ytoi)" height="30.4883" style="stroke:#A80036;stroke-width:1.5;" width="97" x="511" y="53"/><text fill="#000000" font-family="sans-serif" font-size="14" lengthAdjust="spacing" textLength="83" x="518" y="73.5352">BinderProxy</text><rect fill="#FEFECE" filter="url(#fd3a1x509ytoi)" height="30.4883" style="stroke:#A80036;stroke-width:1.5;" width="97" x="511" y="703.8359"/><text fill="#000000" font-family="sans-serif" font-size="14" lengthAdjust="spacing" textLength="83" x="518" y="724.3711">BinderProxy</text><rect fill="#FEFECE" filter="url(#fd3a1x509ytoi)" height="30.4883" style="stroke:#A80036;stroke-width:1.5;" width="177" x="622" y="53"/><text fill="#000000" font-family="sans-serif" font-size="14" lengthAdjust="spacing" textLength="163" x="629" y="73.5352">android_util_Binder.cpp</text><rect fill="#FEFECE" filter="url(#fd3a1x509ytoi)" height="30.4883" style="stroke:#A80036;stroke-width:1.5;" width="177" x="622" y="703.8359"/><text fill="#000000" font-family="sans-serif" font-size="14" lengthAdjust="spacing" textLength="163" x="629" y="724.3711">android_util_Binder.cpp</text><rect fill="#FEFECE" filter="url(#fd3a1x509ytoi)" height="30.4883" style="stroke:#A80036;stroke-width:1.5;" width="104" x="1055.5" y="53"/><text fill="#000000" font-family="sans-serif" font-size="14" lengthAdjust="spacing" textLength="90" x="1062.5" y="73.5352">BpBinder.cpp</text><rect fill="#FEFECE" filter="url(#fd3a1x509ytoi)" height="30.4883" style="stroke:#A80036;stroke-width:1.5;" width="104" x="1055.5" y="703.8359"/><text fill="#000000" font-family="sans-serif" font-size="14" lengthAdjust="spacing" textLength="90" x="1062.5" y="724.3711">BpBinder.cpp</text><rect fill="#FEFECE" filter="url(#fd3a1x509ytoi)" height="30.4883" style="stroke:#A80036;stroke-width:1.5;" width="148" x="1173.5" y="53"/><text fill="#000000" font-family="sans-serif" font-size="14" lengthAdjust="spacing" textLength="134" x="1180.5" y="73.5352">IPCThreadState.cpp</text><rect fill="#FEFECE" filter="url(#fd3a1x509ytoi)" height="30.4883" style="stroke:#A80036;stroke-width:1.5;" width="148" x="1173.5" y="703.8359"/><text fill="#000000" font-family="sans-serif" font-size="14" lengthAdjust="spacing" textLength="134" x="1180.5" y="724.3711">IPCThreadState.cpp</text><rect fill="#FEFECE" filter="url(#fd3a1x509ytoi)" height="30.4883" style="stroke:#A80036;stroke-width:1.5;" width="56" x="1916.5" y="53"/><text fill="#000000" font-family="sans-serif" font-size="14" lengthAdjust="spacing" textLength="42" x="1923.5" y="73.5352">&#39537;&#21160;&#23618;</text><rect fill="#FEFECE" filter="url(#fd3a1x509ytoi)" height="30.4883" style="stroke:#A80036;stroke-width:1.5;" width="56" x="1916.5" y="703.8359"/><text fill="#000000" font-family="sans-serif" font-size="14" lengthAdjust="spacing" textLength="42" x="1923.5" y="724.3711">&#39537;&#21160;&#23618;</text><polygon fill="#A80036" points="150,100.4883,160,104.4883,150,108.4883,154,104.4883" style="stroke:#A80036;stroke-width:1.0;"/><line style="stroke:#A80036;stroke-width:1.0;stroke-dasharray:2.0,2.0;" x1="29" x2="156" y1="104.4883" y2="104.4883"/><line style="stroke:#A80036;stroke-width:1.0;stroke-dasharray:2.0,2.0;" x1="162" x2="204" y1="133.7988" y2="133.7988"/><line style="stroke:#A80036;stroke-width:1.0;stroke-dasharray:2.0,2.0;" x1="204" x2="204" y1="133.7988" y2="146.7988"/><line style="stroke:#A80036;stroke-width:1.0;stroke-dasharray:2.0,2.0;" x1="163" x2="204" y1="146.7988" y2="146.7988"/><polygon fill="#A80036" points="173,142.7988,163,146.7988,173,150.7988,169,146.7988" style="stroke:#A80036;stroke-width:1.0;"/><text fill="#000000" font-family="sans-serif" font-size="13" lengthAdjust="spacing" textLength="69" x="169" y="129.0566">asInterface</text><polygon fill="#A80036" points="287.5,156.7988,297.5,160.7988,287.5,164.7988,291.5,160.7988" style="stroke:#A80036;stroke-width:1.0;"/><line style="stroke:#A80036;stroke-width:1.0;stroke-dasharray:2.0,2.0;" x1="162" x2="293.5" y1="160.7988" y2="160.7988"/><line style="stroke:#A80036;stroke-width:1.0;stroke-dasharray:2.0,2.0;" x1="299.5" x2="341.5" y1="205.4199" y2="205.4199"/><line style="stroke:#A80036;stroke-width:1.0;stroke-dasharray:2.0,2.0;" x1="341.5" x2="341.5" y1="205.4199" y2="218.4199"/><line style="stroke:#A80036;stroke-width:1.0;stroke-dasharray:2.0,2.0;" x1="300.5" x2="341.5" y1="218.4199" y2="218.4199"/><polygon fill="#A80036" points="310.5,214.4199,300.5,218.4199,310.5,222.4199,306.5,218.4199" style="stroke:#A80036;stroke-width:1.0;"/><text fill="#000000" font-family="sans-serif" font-size="13" lengthAdjust="spacing" textLength="248" x="306.5" y="185.3672">startActivity(&#26500;&#36896;_data&#21644;reply&#30340;Parcel&#65292;</text><text fill="#000000" font-family="sans-serif" font-size="13" lengthAdjust="spacing" textLength="218" x="306.5" y="200.6777">&#28982;&#21518;&#23558;intent&#20013;&#30340;&#25968;&#25454;&#20889;&#20837;&#21040;_data&#20013;)</text><polygon fill="#A80036" points="549.5,228.4199,559.5,232.4199,549.5,236.4199,553.5,232.4199" style="stroke:#A80036;stroke-width:1.0;"/><line style="stroke:#A80036;stroke-width:1.0;stroke-dasharray:2.0,2.0;" x1="299.5" x2="555.5" y1="232.4199" y2="232.4199"/><line style="stroke:#A80036;stroke-width:1.0;stroke-dasharray:2.0,2.0;" x1="561.5" x2="603.5" y1="261.7305" y2="261.7305"/><line style="stroke:#A80036;stroke-width:1.0;stroke-dasharray:2.0,2.0;" x1="603.5" x2="603.5" y1="261.7305" y2="274.7305"/><line style="stroke:#A80036;stroke-width:1.0;stroke-dasharray:2.0,2.0;" x1="562.5" x2="603.5" y1="274.7305" y2="274.7305"/><polygon fill="#A80036" points="572.5,270.7305,562.5,274.7305,572.5,278.7305,568.5,274.7305" style="stroke:#A80036;stroke-width:1.0;"/><text fill="#000000" font-family="sans-serif" font-size="13" lengthAdjust="spacing" textLength="51" x="568.5" y="256.9883">transact</text><polygon fill="#A80036" points="700.5,284.7305,710.5,288.7305,700.5,292.7305,704.5,288.7305" style="stroke:#A80036;stroke-width:1.0;"/><line style="stroke:#A80036;stroke-width:1.0;stroke-dasharray:2.0,2.0;" x1="561.5" x2="706.5" y1="288.7305" y2="288.7305"/><line style="stroke:#A80036;stroke-width:1.0;stroke-dasharray:2.0,2.0;" x1="712.5" x2="754.5" y1="318.041" y2="318.041"/><line style="stroke:#A80036;stroke-width:1.0;stroke-dasharray:2.0,2.0;" x1="754.5" x2="754.5" y1="318.041" y2="331.041"/><line style="stroke:#A80036;stroke-width:1.0;stroke-dasharray:2.0,2.0;" x1="713.5" x2="754.5" y1="331.041" y2="331.041"/><polygon fill="#A80036" points="723.5,327.041,713.5,331.041,723.5,335.041,719.5,331.041" style="stroke:#A80036;stroke-width:1.0;"/><text fill="#000000" font-family="sans-serif" font-size="13" lengthAdjust="spacing" textLength="383" x="719.5" y="313.2988">android_os_BinderProxy_transact(java&#23618;&#30340;parcel&#36716;&#25104;native&#23618;)</text><polygon fill="#A80036" points="1097.5,341.041,1107.5,345.041,1097.5,349.041,1101.5,345.041" style="stroke:#A80036;stroke-width:1.0;"/><line style="stroke:#A80036;stroke-width:1.0;stroke-dasharray:2.0,2.0;" x1="712.5" x2="1103.5" y1="345.041" y2="345.041"/><line style="stroke:#A80036;stroke-width:1.0;stroke-dasharray:2.0,2.0;" x1="1109.5" x2="1151.5" y1="374.3516" y2="374.3516"/><line style="stroke:#A80036;stroke-width:1.0;stroke-dasharray:2.0,2.0;" x1="1151.5" x2="1151.5" y1="374.3516" y2="387.3516"/><line style="stroke:#A80036;stroke-width:1.0;stroke-dasharray:2.0,2.0;" x1="1110.5" x2="1151.5" y1="387.3516" y2="387.3516"/><polygon fill="#A80036" points="1120.5,383.3516,1110.5,387.3516,1120.5,391.3516,1116.5,387.3516" style="stroke:#A80036;stroke-width:1.0;"/><text fill="#000000" font-family="sans-serif" font-size="13" lengthAdjust="spacing" textLength="51" x="1116.5" y="369.6094">transact</text><polygon fill="#A80036" points="1237.5,397.3516,1247.5,401.3516,1237.5,405.3516,1241.5,401.3516" style="stroke:#A80036;stroke-width:1.0;"/><line style="stroke:#A80036;stroke-width:1.0;stroke-dasharray:2.0,2.0;" x1="1109.5" x2="1243.5" y1="401.3516" y2="401.3516"/><line style="stroke:#A80036;stroke-width:1.0;stroke-dasharray:2.0,2.0;" x1="1249.5" x2="1291.5" y1="430.6621" y2="430.6621"/><line style="stroke:#A80036;stroke-width:1.0;stroke-dasharray:2.0,2.0;" x1="1291.5" x2="1291.5" y1="430.6621" y2="443.6621"/><line style="stroke:#A80036;stroke-width:1.0;stroke-dasharray:2.0,2.0;" x1="1250.5" x2="1291.5" y1="443.6621" y2="443.6621"/><polygon fill="#A80036" points="1260.5,439.6621,1250.5,443.6621,1260.5,447.6621,1256.5,443.6621" style="stroke:#A80036;stroke-width:1.0;"/><text fill="#000000" font-family="sans-serif" font-size="13" lengthAdjust="spacing" textLength="51" x="1256.5" y="425.9199">transact</text><line style="stroke:#A80036;stroke-width:1.0;stroke-dasharray:2.0,2.0;" x1="1249.5" x2="1291.5" y1="488.2832" y2="488.2832"/><line style="stroke:#A80036;stroke-width:1.0;stroke-dasharray:2.0,2.0;" x1="1291.5" x2="1291.5" y1="488.2832" y2="501.2832"/><line style="stroke:#A80036;stroke-width:1.0;stroke-dasharray:2.0,2.0;" x1="1250.5" x2="1291.5" y1="501.2832" y2="501.2832"/><polygon fill="#A80036" points="1260.5,497.2832,1250.5,501.2832,1260.5,505.2832,1256.5,501.2832" style="stroke:#A80036;stroke-width:1.0;"/><text fill="#000000" font-family="sans-serif" font-size="13" lengthAdjust="spacing" textLength="297" x="1256.5" y="468.2305">writeTransactionData(&#24448;oOut&#30340;Parcel&#20013;&#20889;&#25968;&#25454;&#65292;</text><text fill="#000000" font-family="sans-serif" font-size="13" lengthAdjust="spacing" textLength="221" x="1256.5" y="483.541">&#25968;&#25454;&#32467;&#26500;&#26159;binder_transaction_data)</text><line style="stroke:#A80036;stroke-width:1.0;stroke-dasharray:2.0,2.0;" x1="1249.5" x2="1291.5" y1="530.5938" y2="530.5938"/><line style="stroke:#A80036;stroke-width:1.0;stroke-dasharray:2.0,2.0;" x1="1291.5" x2="1291.5" y1="530.5938" y2="543.5938"/><line style="stroke:#A80036;stroke-width:1.0;stroke-dasharray:2.0,2.0;" x1="1250.5" x2="1291.5" y1="543.5938" y2="543.5938"/><polygon fill="#A80036" points="1260.5,539.5938,1250.5,543.5938,1260.5,547.5938,1256.5,543.5938" style="stroke:#A80036;stroke-width:1.0;"/><text fill="#000000" font-family="sans-serif" font-size="13" lengthAdjust="spacing" textLength="683" x="1256.5" y="525.8516">waitForResponse(&#24490;&#29615;&#35835;&#21462;&#25351;&#20196;&#65292;&#30452;&#21040;&#35835;&#21462;&#21040;BR_REPLY&#25110;BR_TRANSACTION_COMPLETE&#65292;&#25968;&#25454;&#35299;&#26512;&#24182;&#20445;&#23384;&#21040;mIn&#20013;)</text><line style="stroke:#A80036;stroke-width:1.0;stroke-dasharray:2.0,2.0;" x1="1249.5" x2="1291.5" y1="572.9043" y2="572.9043"/><line style="stroke:#A80036;stroke-width:1.0;stroke-dasharray:2.0,2.0;" x1="1291.5" x2="1291.5" y1="572.9043" y2="585.9043"/><line style="stroke:#A80036;stroke-width:1.0;stroke-dasharray:2.0,2.0;" x1="1250.5" x2="1291.5" y1="585.9043" y2="585.9043"/><polygon fill="#A80036" points="1260.5,581.9043,1250.5,585.9043,1260.5,589.9043,1256.5,585.9043" style="stroke:#A80036;stroke-width:1.0;"/><text fill="#000000" font-family="sans-serif" font-size="13" lengthAdjust="spacing" textLength="492" x="1256.5" y="568.1621">talkWithDriver(&#23558;mIn&#21644;mOut&#30340;&#39318;&#22320;&#22336;&#23384;&#20648;&#21040;binder_write_read&#20013;&#65292;&#20934;&#22791;&#21457;&#36215;ioctl)</text><polygon fill="#A80036" points="1934.5,611.2148,1944.5,615.2148,1934.5,619.2148,1938.5,615.2148" style="stroke:#A80036;stroke-width:1.0;"/><line style="stroke:#A80036;stroke-width:1.0;stroke-dasharray:2.0,2.0;" x1="1249.5" x2="1940.5" y1="615.2148" y2="615.2148"/><text fill="#000000" font-family="sans-serif" font-size="13" lengthAdjust="spacing" textLength="296" x="1256.5" y="610.4727">ioctl&#26041;&#27861;&#20256;&#20837;&#21018;&#25165;binder_write_read&#25968;&#25454;&#21040;&#39537;&#21160;&#23618;</text><polygon fill="#A80036" points="1260.5,640.5254,1250.5,644.5254,1260.5,648.5254,1256.5,644.5254" style="stroke:#A80036;stroke-width:1.0;"/><line style="stroke:#A80036;stroke-width:1.0;stroke-dasharray:2.0,2.0;" x1="1254.5" x2="1945.5" y1="644.5254" y2="644.5254"/><text fill="#000000" font-family="sans-serif" font-size="13" lengthAdjust="spacing" textLength="235" x="1266.5" y="639.7832">&#39537;&#21160;&#23618;&#36890;&#36807;ioctl&#26041;&#27861;&#23558;&#25968;&#25454;&#20256;&#21040;native&#23618;</text><line style="stroke:#A80036;stroke-width:1.0;stroke-dasharray:2.0,2.0;" x1="1249.5" x2="1291.5" y1="673.8359" y2="673.8359"/><line style="stroke:#A80036;stroke-width:1.0;stroke-dasharray:2.0,2.0;" x1="1291.5" x2="1291.5" y1="673.8359" y2="686.8359"/><line style="stroke:#A80036;stroke-width:1.0;stroke-dasharray:2.0,2.0;" x1="1250.5" x2="1291.5" y1="686.8359" y2="686.8359"/><polygon fill="#A80036" points="1260.5,682.8359,1250.5,686.8359,1260.5,690.8359,1256.5,686.8359" style="stroke:#A80036;stroke-width:1.0;"/><text fill="#000000" font-family="sans-serif" font-size="13" lengthAdjust="spacing" textLength="671" x="1256.5" y="669.0938">&#22312;waitForResponse&#20013;&#35835;&#21462;&#21040;BR_REPLY&#25351;&#20196;&#65292;&#35299;&#26512;&#25968;&#25454;&#20026;binder_transaction_data&#24182;&#20445;&#23384;&#21040;mIn&#20013;&#65292;&#20889;&#22238;&#21040;reply&#20013;</text><!--SRC=[ZLJDRjf04BxxANA4G_8072e1eH9I4X0WLPKgMHkpRLo8RQsNjDnGHC6jI49Q1QKaGL6RjlGdmL7R_9IqUHbs3QU-GWSRN2S4nCKQp-mttynyiwjdP6M6g3eMa4HLCiDEtd7ZtFhQ4bnhTlPUD2XHUKsc-HJICuj8GKymcKlItB8mDZ895K1wLA6OF4OIdfWXJjJdUS7-3ly2EaM43Z4-tYZs2eTY6b74NbS8rh9vgrwC8oBXxD-hoYF5AfwnwYOpIp8mAhHpSGnnlcFoZHDMUijUV626QSCXudUfGhAIniIXzzWt8m5AaAB3t6uTGKgQg79Qp54vApgXEKdJX37-yOZ0qA_geeT27FBwdg8rn4xNeIFDxhZx-nitgWg2uM3m-oTGXZHFPTwVMp5FapSFHUFXr0h1A9saY68xpQZhpdF_KquBU4PaYbC3bAmgyw2NZ_qfgB4STUK60K5HHrfRUiUqsczWIVXkQzcktXqUfB5rzqzV1PBfVPKaiAwfYewXW2_MPglRQhEj6g-KE-qZeBNsVi16EKumGWan4OalFEH63SnK8hYK38PJqTYI68ujnXSYgGXWd4AxdzxpHfLTddMk3zZnBe1NeugzbLFF5MKp3sIwCaz0V-A3fOSCS2rMdJ7rFjROliaE2ltiwqqW68p47g_OpmLqK0yhbzXHcMrjTt-Uowf4isDAw7q-PQ-Qi6W1-nIlNVBlEvshG_jMrVdBZP7yWujdc2vKSAsxUtB3lKAzUrts445xJhe-es6wMp_rkDX-yvQaqFweSaDb7Nq6b1U_ngpJg7xzWS9BizS0Z_r0WUyV]--></g></svg>