<?xml version="1.0" encoding="us-ascii" standalone="no"?><svg xmlns="http://www.w3.org/2000/svg" xmlns:xlink="http://www.w3.org/1999/xlink" contentStyleType="text/css" height="379px" preserveAspectRatio="none" style="width:496px;height:379px;background:#FFFFFF;" version="1.1" viewBox="0 0 496 379" width="496px" zoomAndPan="magnify"><defs><filter height="300%" id="foym7kz4bgp1p" width="300%" x="-1" y="-1"><feGaussianBlur result="blurOut" stdDeviation="2.0"/><feColorMatrix in="blurOut" result="blurOut2" type="matrix" values="0 0 0 0 0 0 0 0 0 0 0 0 0 0 0 0 0 0 .4 0"/><feOffset dx="4.0" dy="4.0" in="blurOut2" result="blurOut3"/><feBlend in="SourceGraphic" in2="blurOut3" mode="normal"/></filter></defs><g><line style="stroke:#A80036;stroke-width:1.0;stroke-dasharray:5.0,5.0;" x1="34" x2="34" y1="40.4883" y2="336.2832"/><line style="stroke:#A80036;stroke-width:1.0;stroke-dasharray:5.0,5.0;" x1="245" x2="245" y1="40.4883" y2="336.2832"/><line style="stroke:#A80036;stroke-width:1.0;stroke-dasharray:5.0,5.0;" x1="455.5" x2="455.5" y1="40.4883" y2="336.2832"/><rect fill="#FEFECE" filter="url(#foym7kz4bgp1p)" height="30.4883" style="stroke:#A80036;stroke-width:1.5;" width="54" x="5" y="5"/><text fill="#000000" font-family="sans-serif" font-size="14" lengthAdjust="spacing" textLength="40" x="12" y="25.5352">Client</text><rect fill="#FEFECE" filter="url(#foym7kz4bgp1p)" height="30.4883" style="stroke:#A80036;stroke-width:1.5;" width="54" x="5" y="335.2832"/><text fill="#000000" font-family="sans-serif" font-size="14" lengthAdjust="spacing" textLength="40" x="12" y="355.8184">Client</text><rect fill="#FEFECE" filter="url(#foym7kz4bgp1p)" height="30.4883" style="stroke:#A80036;stroke-width:1.5;" width="86" x="200" y="5"/><text fill="#000000" font-family="sans-serif" font-size="14" lengthAdjust="spacing" textLength="72" x="207" y="25.5352">Binder&#39537;&#21160;</text><rect fill="#FEFECE" filter="url(#foym7kz4bgp1p)" height="30.4883" style="stroke:#A80036;stroke-width:1.5;" width="86" x="200" y="335.2832"/><text fill="#000000" font-family="sans-serif" font-size="14" lengthAdjust="spacing" textLength="72" x="207" y="355.8184">Binder&#39537;&#21160;</text><rect fill="#FEFECE" filter="url(#foym7kz4bgp1p)" height="30.4883" style="stroke:#A80036;stroke-width:1.5;" width="57" x="425.5" y="5"/><text fill="#000000" font-family="sans-serif" font-size="14" lengthAdjust="spacing" textLength="43" x="432.5" y="25.5352">Server</text><rect fill="#FEFECE" filter="url(#foym7kz4bgp1p)" height="30.4883" style="stroke:#A80036;stroke-width:1.5;" width="57" x="425.5" y="335.2832"/><text fill="#000000" font-family="sans-serif" font-size="14" lengthAdjust="spacing" textLength="43" x="432.5" y="355.8184">Server</text><polygon fill="#A80036" points="233,67.7988,243,71.7988,233,75.7988,237,71.7988" style="stroke:#A80036;stroke-width:1.0;"/><line style="stroke:#A80036;stroke-width:1.0;stroke-dasharray:2.0,2.0;" x1="34" x2="239" y1="71.7988" y2="71.7988"/><text fill="#000000" font-family="sans-serif" font-size="13" lengthAdjust="spacing" textLength="115" x="41" y="67.0566">BC_TRANSACTION</text><polygon fill="#A80036" points="45,97.1094,35,101.1094,45,105.1094,41,101.1094" style="stroke:#A80036;stroke-width:1.0;"/><line style="stroke:#A80036;stroke-width:1.0;stroke-dasharray:2.0,2.0;" x1="39" x2="244" y1="101.1094" y2="101.1094"/><text fill="#000000" font-family="sans-serif" font-size="13" lengthAdjust="spacing" textLength="187" x="51" y="96.3672">BR_TRANSACTION_COMPLETE</text><rect fill="#FBFB77" filter="url(#foym7kz4bgp1p)" height="23" style="stroke:#A80036;stroke-width:1.0;" width="34" x="439" y="114.1094"/><text fill="#000000" font-family="sans-serif" font-size="13" lengthAdjust="spacing" textLength="26" x="443" y="130.6777">&#20241;&#30496;</text><polygon fill="#A80036" points="444,159.7305,454,163.7305,444,167.7305,448,163.7305" style="stroke:#A80036;stroke-width:1.0;"/><line style="stroke:#A80036;stroke-width:1.0;stroke-dasharray:2.0,2.0;" x1="245" x2="450" y1="163.7305" y2="163.7305"/><text fill="#000000" font-family="sans-serif" font-size="13" lengthAdjust="spacing" textLength="114" x="252" y="158.9883">BR_TRANSACTION</text><polygon fill="#A80036" points="256,189.041,246,193.041,256,197.041,252,193.041" style="stroke:#A80036;stroke-width:1.0;"/><line style="stroke:#A80036;stroke-width:1.0;stroke-dasharray:2.0,2.0;" x1="250" x2="455" y1="193.041" y2="193.041"/><text fill="#000000" font-family="sans-serif" font-size="13" lengthAdjust="spacing" textLength="60" x="262" y="188.2988">BC_REPLY</text><polygon fill="#A80036" points="444,218.3516,454,222.3516,444,226.3516,448,222.3516" style="stroke:#A80036;stroke-width:1.0;"/><line style="stroke:#A80036;stroke-width:1.0;stroke-dasharray:2.0,2.0;" x1="245" x2="450" y1="222.3516" y2="222.3516"/><text fill="#000000" font-family="sans-serif" font-size="13" lengthAdjust="spacing" textLength="187" x="252" y="217.6094">BR_TRANSACTION_COMPLETE</text><rect fill="#FBFB77" filter="url(#foym7kz4bgp1p)" height="23" style="stroke:#A80036;stroke-width:1.0;" width="34" x="439" y="235.3516"/><text fill="#000000" font-family="sans-serif" font-size="13" lengthAdjust="spacing" textLength="26" x="443" y="251.9199">&#20241;&#30496;</text><rect fill="#FBFB77" filter="url(#foym7kz4bgp1p)" height="23" style="stroke:#A80036;stroke-width:1.0;" width="34" x="17" y="268.6621"/><text fill="#000000" font-family="sans-serif" font-size="13" lengthAdjust="spacing" textLength="26" x="21" y="285.2305">&#20241;&#30496;</text><polygon fill="#A80036" points="45,314.2832,35,318.2832,45,322.2832,41,318.2832" style="stroke:#A80036;stroke-width:1.0;"/><line style="stroke:#A80036;stroke-width:1.0;stroke-dasharray:2.0,2.0;" x1="39" x2="244" y1="318.2832" y2="318.2832"/><text fill="#000000" font-family="sans-serif" font-size="13" lengthAdjust="spacing" textLength="59" x="51" y="313.541">BR_REPLY</text><!--SRC=[AyxEp5CeoYzEvNBEoKpDAz7LjNFAp4j9BNgvSkFJhXLMJixn8K6EVi6EpY6U_dvSo790fH0zLav1o8hYdVrz0tnSGrovYlBoIr8LyijIYnI2Kuk05DUJFHEVprd0bPgN0f92DmwY2CquBeWe5eS5kGRuH19b1WbEGb80yHq1DoE20EmS0000]--></g></svg>