<?xml version="1.0" encoding="us-ascii" standalone="no"?><svg xmlns="http://www.w3.org/2000/svg" xmlns:xlink="http://www.w3.org/1999/xlink" contentStyleType="text/css" height="1429px" preserveAspectRatio="none" style="width:2248px;height:1429px;background:#FFFFFF;" version="1.1" viewBox="0 0 2248 1429" width="2248px" zoomAndPan="magnify"><defs><filter height="300%" id="frhswdmzzhp5o" width="300%" x="-1" y="-1"><feGaussianBlur result="blurOut" stdDeviation="2.0"/><feColorMatrix in="blurOut" result="blurOut2" type="matrix" values="0 0 0 0 0 0 0 0 0 0 0 0 0 0 0 0 0 0 .4 0"/><feOffset dx="4.0" dy="4.0" in="blurOut2" result="blurOut3"/><feBlend in="SourceGraphic" in2="blurOut3" mode="normal"/></filter></defs><g><line style="stroke:#A80036;stroke-width:1.0;stroke-dasharray:5.0,5.0;" x1="31" x2="31" y1="40.4883" y2="1386.4941"/><line style="stroke:#A80036;stroke-width:1.0;stroke-dasharray:5.0,5.0;" x1="292.5" x2="292.5" y1="40.4883" y2="1386.4941"/><line style="stroke:#A80036;stroke-width:1.0;stroke-dasharray:5.0,5.0;" x1="465.5" x2="465.5" y1="40.4883" y2="1386.4941"/><line style="stroke:#A80036;stroke-width:1.0;stroke-dasharray:5.0,5.0;" x1="776.5" x2="776.5" y1="40.4883" y2="1386.4941"/><line style="stroke:#A80036;stroke-width:1.0;stroke-dasharray:5.0,5.0;" x1="1108.5" x2="1108.5" y1="40.4883" y2="1386.4941"/><line style="stroke:#A80036;stroke-width:1.0;stroke-dasharray:5.0,5.0;" x1="1290.5" x2="1290.5" y1="40.4883" y2="1386.4941"/><line style="stroke:#A80036;stroke-width:1.0;stroke-dasharray:5.0,5.0;" x1="1389.5" x2="1389.5" y1="40.4883" y2="1386.4941"/><line style="stroke:#A80036;stroke-width:1.0;stroke-dasharray:5.0,5.0;" x1="1565" x2="1565" y1="40.4883" y2="1386.4941"/><line style="stroke:#A80036;stroke-width:1.0;stroke-dasharray:5.0,5.0;" x1="1748" x2="1748" y1="40.4883" y2="1386.4941"/><line style="stroke:#A80036;stroke-width:1.0;stroke-dasharray:5.0,5.0;" x1="1955" x2="1955" y1="40.4883" y2="1386.4941"/><line style="stroke:#A80036;stroke-width:1.0;stroke-dasharray:5.0,5.0;" x1="2126" x2="2126" y1="40.4883" y2="1386.4941"/><rect fill="#FEFECE" filter="url(#frhswdmzzhp5o)" height="30.4883" style="stroke:#A80036;stroke-width:1.5;" width="49" x="5" y="5"/><text fill="#000000" font-family="sans-serif" font-size="14" lengthAdjust="spacing" textLength="35" x="12" y="25.5352">Glide</text><rect fill="#FEFECE" filter="url(#frhswdmzzhp5o)" height="30.4883" style="stroke:#A80036;stroke-width:1.5;" width="49" x="5" y="1385.4941"/><text fill="#000000" font-family="sans-serif" font-size="14" lengthAdjust="spacing" textLength="35" x="12" y="1406.0293">Glide</text><rect fill="#FEFECE" filter="url(#frhswdmzzhp5o)" height="30.4883" style="stroke:#A80036;stroke-width:1.5;" width="190" x="195.5" y="5"/><text fill="#000000" font-family="sans-serif" font-size="14" lengthAdjust="spacing" textLength="176" x="202.5" y="25.5352">RequestManagerRetriever</text><rect fill="#FEFECE" filter="url(#frhswdmzzhp5o)" height="30.4883" style="stroke:#A80036;stroke-width:1.5;" width="190" x="195.5" y="1385.4941"/><text fill="#000000" font-family="sans-serif" font-size="14" lengthAdjust="spacing" textLength="176" x="202.5" y="1406.0293">RequestManagerRetriever</text><rect fill="#FEFECE" filter="url(#frhswdmzzhp5o)" height="30.4883" style="stroke:#A80036;stroke-width:1.5;" width="129" x="399.5" y="5"/><text fill="#000000" font-family="sans-serif" font-size="14" lengthAdjust="spacing" textLength="115" x="406.5" y="25.5352">RequestManager</text><rect fill="#FEFECE" filter="url(#frhswdmzzhp5o)" height="30.4883" style="stroke:#A80036;stroke-width:1.5;" width="129" x="399.5" y="1385.4941"/><text fill="#000000" font-family="sans-serif" font-size="14" lengthAdjust="spacing" textLength="115" x="406.5" y="1406.0293">RequestManager</text><rect fill="#FEFECE" filter="url(#frhswdmzzhp5o)" height="30.4883" style="stroke:#A80036;stroke-width:1.5;" width="111" x="719.5" y="5"/><text fill="#000000" font-family="sans-serif" font-size="14" lengthAdjust="spacing" textLength="97" x="726.5" y="25.5352">SingleRequest</text><rect fill="#FEFECE" filter="url(#frhswdmzzhp5o)" height="30.4883" style="stroke:#A80036;stroke-width:1.5;" width="111" x="719.5" y="1385.4941"/><text fill="#000000" font-family="sans-serif" font-size="14" lengthAdjust="spacing" textLength="97" x="726.5" y="1406.0293">SingleRequest</text><rect fill="#FEFECE" filter="url(#frhswdmzzhp5o)" height="30.4883" style="stroke:#A80036;stroke-width:1.5;" width="61" x="1076.5" y="5"/><text fill="#000000" font-family="sans-serif" font-size="14" lengthAdjust="spacing" textLength="47" x="1083.5" y="25.5352">Engine</text><rect fill="#FEFECE" filter="url(#frhswdmzzhp5o)" height="30.4883" style="stroke:#A80036;stroke-width:1.5;" width="61" x="1076.5" y="1385.4941"/><text fill="#000000" font-family="sans-serif" font-size="14" lengthAdjust="spacing" textLength="47" x="1083.5" y="1406.0293">Engine</text><rect fill="#FEFECE" filter="url(#frhswdmzzhp5o)" height="30.4883" style="stroke:#A80036;stroke-width:1.5;" width="83" x="1247.5" y="5"/><text fill="#000000" font-family="sans-serif" font-size="14" lengthAdjust="spacing" textLength="69" x="1254.5" y="25.5352">EngineJob</text><rect fill="#FEFECE" filter="url(#frhswdmzzhp5o)" height="30.4883" style="stroke:#A80036;stroke-width:1.5;" width="83" x="1247.5" y="1385.4941"/><text fill="#000000" font-family="sans-serif" font-size="14" lengthAdjust="spacing" textLength="69" x="1254.5" y="1406.0293">EngineJob</text><rect fill="#FEFECE" filter="url(#frhswdmzzhp5o)" height="30.4883" style="stroke:#A80036;stroke-width:1.5;" width="87" x="1344.5" y="5"/><text fill="#000000" font-family="sans-serif" font-size="14" lengthAdjust="spacing" textLength="73" x="1351.5" y="25.5352">DecodeJob</text><rect fill="#FEFECE" filter="url(#frhswdmzzhp5o)" height="30.4883" style="stroke:#A80036;stroke-width:1.5;" width="87" x="1344.5" y="1385.4941"/><text fill="#000000" font-family="sans-serif" font-size="14" lengthAdjust="spacing" textLength="73" x="1351.5" y="1406.0293">DecodeJob</text><rect fill="#FEFECE" filter="url(#frhswdmzzhp5o)" height="30.4883" style="stroke:#A80036;stroke-width:1.5;" width="130" x="1498" y="5"/><text fill="#000000" font-family="sans-serif" font-size="14" lengthAdjust="spacing" textLength="116" x="1505" y="25.5352">SourceGenerator</text><rect fill="#FEFECE" filter="url(#frhswdmzzhp5o)" height="30.4883" style="stroke:#A80036;stroke-width:1.5;" width="130" x="1498" y="1385.4941"/><text fill="#000000" font-family="sans-serif" font-size="14" lengthAdjust="spacing" textLength="116" x="1505" y="1406.0293">SourceGenerator</text><rect fill="#FEFECE" filter="url(#frhswdmzzhp5o)" height="30.4883" style="stroke:#A80036;stroke-width:1.5;" width="114" x="1689" y="5"/><text fill="#000000" font-family="sans-serif" font-size="14" lengthAdjust="spacing" textLength="100" x="1696" y="25.5352">HttpUrlFetcher</text><rect fill="#FEFECE" filter="url(#frhswdmzzhp5o)" height="30.4883" style="stroke:#A80036;stroke-width:1.5;" width="114" x="1689" y="1385.4941"/><text fill="#000000" font-family="sans-serif" font-size="14" lengthAdjust="spacing" textLength="100" x="1696" y="1406.0293">HttpUrlFetcher</text><rect fill="#FEFECE" filter="url(#frhswdmzzhp5o)" height="30.4883" style="stroke:#A80036;stroke-width:1.5;" width="156" x="1875" y="5"/><text fill="#000000" font-family="sans-serif" font-size="14" lengthAdjust="spacing" textLength="142" x="1882" y="25.5352">DataCacheGenerator</text><rect fill="#FEFECE" filter="url(#frhswdmzzhp5o)" height="30.4883" style="stroke:#A80036;stroke-width:1.5;" width="156" x="1875" y="1385.4941"/><text fill="#000000" font-family="sans-serif" font-size="14" lengthAdjust="spacing" textLength="142" x="1882" y="1406.0293">DataCacheGenerator</text><rect fill="#FEFECE" filter="url(#frhswdmzzhp5o)" height="30.4883" style="stroke:#A80036;stroke-width:1.5;" width="154" x="2047" y="5"/><text fill="#000000" font-family="sans-serif" font-size="14" lengthAdjust="spacing" textLength="140" x="2054" y="25.5352">ByteBufferFileLoader</text><rect fill="#FEFECE" filter="url(#frhswdmzzhp5o)" height="30.4883" style="stroke:#A80036;stroke-width:1.5;" width="154" x="2047" y="1385.4941"/><text fill="#000000" font-family="sans-serif" font-size="14" lengthAdjust="spacing" textLength="140" x="2054" y="1406.0293">ByteBufferFileLoader</text><line style="stroke:#A80036;stroke-width:1.0;stroke-dasharray:2.0,2.0;" x1="31.5" x2="73.5" y1="71.7988" y2="71.7988"/><line style="stroke:#A80036;stroke-width:1.0;stroke-dasharray:2.0,2.0;" x1="73.5" x2="73.5" y1="71.7988" y2="84.7988"/><line style="stroke:#A80036;stroke-width:1.0;stroke-dasharray:2.0,2.0;" x1="32.5" x2="73.5" y1="84.7988" y2="84.7988"/><polygon fill="#A80036" points="42.5,80.7988,32.5,84.7988,42.5,88.7988,38.5,84.7988" style="stroke:#A80036;stroke-width:1.0;"/><text fill="#000000" font-family="sans-serif" font-size="13" lengthAdjust="spacing" textLength="247" x="38.5" y="67.0566">get&#26041;&#27861;&#65306;&#21021;&#22987;&#21270;&#21442;&#25968;&#65292;&#21333;&#20363;&#21019;&#24314;Glide&#23545;&#35937;</text><polygon fill="#A80036" points="280.5,110.1094,290.5,114.1094,280.5,118.1094,284.5,114.1094" style="stroke:#A80036;stroke-width:1.0;"/><line style="stroke:#A80036;stroke-width:1.0;stroke-dasharray:2.0,2.0;" x1="31.5" x2="286.5" y1="114.1094" y2="114.1094"/><text fill="#000000" font-family="sans-serif" font-size="13" lengthAdjust="spacing" textLength="178" x="38.5" y="109.3672">getRequestManagerRetriever</text><polygon fill="#A80036" points="454,144.4199,464,148.4199,454,152.4199,458,148.4199" style="stroke:#A80036;stroke-width:1.0;"/><line style="stroke:#A80036;stroke-width:1.0;stroke-dasharray:2.0,2.0;" x1="292.5" x2="460" y1="148.4199" y2="148.4199"/><text fill="#000000" font-family="sans-serif" font-size="13" lengthAdjust="spacing" textLength="46" x="299.5" y="143.6777">get&#26041;&#27861;</text><path d="M471,127.1094 L471,152.1094 L741,152.1094 L741,137.1094 L731,127.1094 L471,127.1094 " fill="#FBFB77" filter="url(#frhswdmzzhp5o)" style="stroke:#A80036;stroke-width:1.0;"/><path d="M731,127.1094 L731,137.1094 L741,137.1094 L731,127.1094 " fill="#FBFB77" style="stroke:#A80036;stroke-width:1.0;"/><text fill="#000000" font-family="sans-serif" font-size="13" lengthAdjust="spacing" textLength="249" x="477" y="144.6777">&#27599;&#19968;&#20010;Lifecycle&#23545;&#24212;&#19968;&#20010;RequestManager</text><line style="stroke:#A80036;stroke-width:1.0;stroke-dasharray:2.0,2.0;" x1="466" x2="508" y1="182.7305" y2="182.7305"/><line style="stroke:#A80036;stroke-width:1.0;stroke-dasharray:2.0,2.0;" x1="508" x2="508" y1="182.7305" y2="195.7305"/><line style="stroke:#A80036;stroke-width:1.0;stroke-dasharray:2.0,2.0;" x1="467" x2="508" y1="195.7305" y2="195.7305"/><polygon fill="#A80036" points="477,191.7305,467,195.7305,477,199.7305,473,195.7305" style="stroke:#A80036;stroke-width:1.0;"/><text fill="#000000" font-family="sans-serif" font-size="13" lengthAdjust="spacing" textLength="52" x="473" y="177.9883">load(url)</text><line style="stroke:#A80036;stroke-width:1.0;stroke-dasharray:2.0,2.0;" x1="466" x2="508" y1="225.041" y2="225.041"/><line style="stroke:#A80036;stroke-width:1.0;stroke-dasharray:2.0,2.0;" x1="508" x2="508" y1="225.041" y2="238.041"/><line style="stroke:#A80036;stroke-width:1.0;stroke-dasharray:2.0,2.0;" x1="467" x2="508" y1="238.041" y2="238.041"/><polygon fill="#A80036" points="477,234.041,467,238.041,477,242.041,473,238.041" style="stroke:#A80036;stroke-width:1.0;"/><text fill="#000000" font-family="sans-serif" font-size="13" lengthAdjust="spacing" textLength="172" x="473" y="220.2988">as&#26041;&#27861;&#65306;&#26500;&#24314;RequestBuilder</text><line style="stroke:#A80036;stroke-width:1.0;stroke-dasharray:2.0,2.0;" x1="466" x2="508" y1="267.3516" y2="267.3516"/><line style="stroke:#A80036;stroke-width:1.0;stroke-dasharray:2.0,2.0;" x1="508" x2="508" y1="267.3516" y2="280.3516"/><line style="stroke:#A80036;stroke-width:1.0;stroke-dasharray:2.0,2.0;" x1="467" x2="508" y1="280.3516" y2="280.3516"/><polygon fill="#A80036" points="477,276.3516,467,280.3516,477,284.3516,473,280.3516" style="stroke:#A80036;stroke-width:1.0;"/><text fill="#000000" font-family="sans-serif" font-size="13" lengthAdjust="spacing" textLength="100" x="473" y="262.6094">into(imageView)</text><line style="stroke:#A80036;stroke-width:1.0;stroke-dasharray:2.0,2.0;" x1="466" x2="508" y1="309.6621" y2="309.6621"/><line style="stroke:#A80036;stroke-width:1.0;stroke-dasharray:2.0,2.0;" x1="508" x2="508" y1="309.6621" y2="322.6621"/><line style="stroke:#A80036;stroke-width:1.0;stroke-dasharray:2.0,2.0;" x1="467" x2="508" y1="322.6621" y2="322.6621"/><polygon fill="#A80036" points="477,318.6621,467,322.6621,477,326.6621,473,322.6621" style="stroke:#A80036;stroke-width:1.0;"/><text fill="#000000" font-family="sans-serif" font-size="13" lengthAdjust="spacing" textLength="297" x="473" y="304.9199">&#21253;&#35013;imageView&#65292;&#26500;&#24314;DrawableImageViewTarget</text><line style="stroke:#A80036;stroke-width:1.0;stroke-dasharray:2.0,2.0;" x1="466" x2="508" y1="351.9727" y2="351.9727"/><line style="stroke:#A80036;stroke-width:1.0;stroke-dasharray:2.0,2.0;" x1="508" x2="508" y1="351.9727" y2="364.9727"/><line style="stroke:#A80036;stroke-width:1.0;stroke-dasharray:2.0,2.0;" x1="467" x2="508" y1="364.9727" y2="364.9727"/><polygon fill="#A80036" points="477,360.9727,467,364.9727,477,368.9727,473,364.9727" style="stroke:#A80036;stroke-width:1.0;"/><text fill="#000000" font-family="sans-serif" font-size="13" lengthAdjust="spacing" textLength="200" x="473" y="347.2305">buildRequest:&#26500;&#24314;SingleRequest</text><polygon fill="#A80036" points="765,374.9727,775,378.9727,765,382.9727,769,378.9727" style="stroke:#A80036;stroke-width:1.0;"/><line style="stroke:#A80036;stroke-width:1.0;stroke-dasharray:2.0,2.0;" x1="466" x2="771" y1="378.9727" y2="378.9727"/><line style="stroke:#A80036;stroke-width:1.0;stroke-dasharray:2.0,2.0;" x1="777" x2="819" y1="408.2832" y2="408.2832"/><line style="stroke:#A80036;stroke-width:1.0;stroke-dasharray:2.0,2.0;" x1="819" x2="819" y1="408.2832" y2="421.2832"/><line style="stroke:#A80036;stroke-width:1.0;stroke-dasharray:2.0,2.0;" x1="778" x2="819" y1="421.2832" y2="421.2832"/><polygon fill="#A80036" points="788,417.2832,778,421.2832,788,425.2832,784,421.2832" style="stroke:#A80036;stroke-width:1.0;"/><text fill="#000000" font-family="sans-serif" font-size="13" lengthAdjust="spacing" textLength="318" x="784" y="403.541">&#23558;SingleRequest&#32465;&#23450;&#21040;DrawableImageViewTarget&#19978;</text><polygon fill="#A80036" points="477,431.2832,467,435.2832,477,439.2832,473,435.2832" style="stroke:#A80036;stroke-width:1.0;"/><line style="stroke:#A80036;stroke-width:1.0;stroke-dasharray:2.0,2.0;" x1="471" x2="776" y1="435.2832" y2="435.2832"/><line style="stroke:#A80036;stroke-width:1.0;stroke-dasharray:2.0,2.0;" x1="466" x2="508" y1="464.5938" y2="464.5938"/><line style="stroke:#A80036;stroke-width:1.0;stroke-dasharray:2.0,2.0;" x1="508" x2="508" y1="464.5938" y2="477.5938"/><line style="stroke:#A80036;stroke-width:1.0;stroke-dasharray:2.0,2.0;" x1="467" x2="508" y1="477.5938" y2="477.5938"/><polygon fill="#A80036" points="477,473.5938,467,477.5938,477,481.5938,473,477.5938" style="stroke:#A80036;stroke-width:1.0;"/><text fill="#000000" font-family="sans-serif" font-size="13" lengthAdjust="spacing" textLength="84" x="473" y="459.8516">&#35843;&#29992;track&#26041;&#27861;</text><polygon fill="#A80036" points="765,487.5938,775,491.5938,765,495.5938,769,491.5938" style="stroke:#A80036;stroke-width:1.0;"/><line style="stroke:#A80036;stroke-width:1.0;stroke-dasharray:2.0,2.0;" x1="466" x2="771" y1="491.5938" y2="491.5938"/><line style="stroke:#A80036;stroke-width:1.0;stroke-dasharray:2.0,2.0;" x1="777" x2="819" y1="520.9043" y2="520.9043"/><line style="stroke:#A80036;stroke-width:1.0;stroke-dasharray:2.0,2.0;" x1="819" x2="819" y1="520.9043" y2="533.9043"/><line style="stroke:#A80036;stroke-width:1.0;stroke-dasharray:2.0,2.0;" x1="778" x2="819" y1="533.9043" y2="533.9043"/><polygon fill="#A80036" points="788,529.9043,778,533.9043,788,537.9043,784,533.9043" style="stroke:#A80036;stroke-width:1.0;"/><text fill="#000000" font-family="sans-serif" font-size="13" lengthAdjust="spacing" textLength="87" x="784" y="516.1621">&#35843;&#29992;begin&#26041;&#27861;</text><line style="stroke:#A80036;stroke-width:1.0;stroke-dasharray:2.0,2.0;" x1="777" x2="819" y1="563.2148" y2="563.2148"/><line style="stroke:#A80036;stroke-width:1.0;stroke-dasharray:2.0,2.0;" x1="819" x2="819" y1="563.2148" y2="576.2148"/><line style="stroke:#A80036;stroke-width:1.0;stroke-dasharray:2.0,2.0;" x1="778" x2="819" y1="576.2148" y2="576.2148"/><polygon fill="#A80036" points="788,572.2148,778,576.2148,788,580.2148,784,576.2148" style="stroke:#A80036;stroke-width:1.0;"/><text fill="#000000" font-family="sans-serif" font-size="13" lengthAdjust="spacing" textLength="258" x="784" y="558.4727">&#33719;&#21462;DrawableImageViewTarget&#19978;view&#22823;&#23567;</text><line style="stroke:#A80036;stroke-width:1.0;stroke-dasharray:2.0,2.0;" x1="777" x2="819" y1="605.5254" y2="605.5254"/><line style="stroke:#A80036;stroke-width:1.0;stroke-dasharray:2.0,2.0;" x1="819" x2="819" y1="605.5254" y2="618.5254"/><line style="stroke:#A80036;stroke-width:1.0;stroke-dasharray:2.0,2.0;" x1="778" x2="819" y1="618.5254" y2="618.5254"/><polygon fill="#A80036" points="788,614.5254,778,618.5254,788,622.5254,784,618.5254" style="stroke:#A80036;stroke-width:1.0;"/><text fill="#000000" font-family="sans-serif" font-size="13" lengthAdjust="spacing" textLength="130" x="784" y="600.7832">&#22238;&#35843;onSizeReady&#26041;&#27861;</text><polygon fill="#A80036" points="1097,628.5254,1107,632.5254,1097,636.5254,1101,632.5254" style="stroke:#A80036;stroke-width:1.0;"/><line style="stroke:#A80036;stroke-width:1.0;stroke-dasharray:2.0,2.0;" x1="777" x2="1103" y1="632.5254" y2="632.5254"/><line style="stroke:#A80036;stroke-width:1.0;stroke-dasharray:2.0,2.0;" x1="1109" x2="1151" y1="661.8359" y2="661.8359"/><line style="stroke:#A80036;stroke-width:1.0;stroke-dasharray:2.0,2.0;" x1="1151" x2="1151" y1="661.8359" y2="674.8359"/><line style="stroke:#A80036;stroke-width:1.0;stroke-dasharray:2.0,2.0;" x1="1110" x2="1151" y1="674.8359" y2="674.8359"/><polygon fill="#A80036" points="1120,670.8359,1110,674.8359,1120,678.8359,1116,674.8359" style="stroke:#A80036;stroke-width:1.0;"/><text fill="#000000" font-family="sans-serif" font-size="13" lengthAdjust="spacing" textLength="79" x="1116" y="657.0938">&#35843;&#29992;load&#26041;&#27861;</text><line style="stroke:#A80036;stroke-width:1.0;stroke-dasharray:2.0,2.0;" x1="1109" x2="1151" y1="704.1465" y2="704.1465"/><line style="stroke:#A80036;stroke-width:1.0;stroke-dasharray:2.0,2.0;" x1="1151" x2="1151" y1="704.1465" y2="717.1465"/><line style="stroke:#A80036;stroke-width:1.0;stroke-dasharray:2.0,2.0;" x1="1110" x2="1151" y1="717.1465" y2="717.1465"/><polygon fill="#A80036" points="1120,713.1465,1110,717.1465,1120,721.1465,1116,717.1465" style="stroke:#A80036;stroke-width:1.0;"/><text fill="#000000" font-family="sans-serif" font-size="13" lengthAdjust="spacing" textLength="168" x="1116" y="699.4043">&#21019;&#24314;EngineJob&#21644;DecodeJob</text><polygon fill="#A80036" points="1279,727.1465,1289,731.1465,1279,735.1465,1283,731.1465" style="stroke:#A80036;stroke-width:1.0;"/><line style="stroke:#A80036;stroke-width:1.0;stroke-dasharray:2.0,2.0;" x1="1109" x2="1285" y1="731.1465" y2="731.1465"/><line style="stroke:#A80036;stroke-width:1.0;stroke-dasharray:2.0,2.0;" x1="1291" x2="1333" y1="760.457" y2="760.457"/><line style="stroke:#A80036;stroke-width:1.0;stroke-dasharray:2.0,2.0;" x1="1333" x2="1333" y1="760.457" y2="773.457"/><line style="stroke:#A80036;stroke-width:1.0;stroke-dasharray:2.0,2.0;" x1="1292" x2="1333" y1="773.457" y2="773.457"/><polygon fill="#A80036" points="1302,769.457,1292,773.457,1302,777.457,1298,773.457" style="stroke:#A80036;stroke-width:1.0;"/><text fill="#000000" font-family="sans-serif" font-size="13" lengthAdjust="spacing" textLength="81" x="1298" y="755.7148">&#35843;&#29992;start&#26041;&#27861;</text><polygon fill="#A80036" points="1378,783.457,1388,787.457,1378,791.457,1382,787.457" style="stroke:#A80036;stroke-width:1.0;"/><line style="stroke:#A80036;stroke-width:1.0;stroke-dasharray:2.0,2.0;" x1="1291" x2="1384" y1="787.457" y2="787.457"/><line style="stroke:#A80036;stroke-width:1.0;stroke-dasharray:2.0,2.0;" x1="1390" x2="1432" y1="816.7676" y2="816.7676"/><line style="stroke:#A80036;stroke-width:1.0;stroke-dasharray:2.0,2.0;" x1="1432" x2="1432" y1="816.7676" y2="829.7676"/><line style="stroke:#A80036;stroke-width:1.0;stroke-dasharray:2.0,2.0;" x1="1391" x2="1432" y1="829.7676" y2="829.7676"/><polygon fill="#A80036" points="1401,825.7676,1391,829.7676,1401,833.7676,1397,829.7676" style="stroke:#A80036;stroke-width:1.0;"/><text fill="#000000" font-family="sans-serif" font-size="13" lengthAdjust="spacing" textLength="161" x="1397" y="812.0254">&#25191;&#34892;run&#65292;runWrapped&#26041;&#27861;</text><polygon fill="#A80036" points="1553,839.7676,1563,843.7676,1553,847.7676,1557,843.7676" style="stroke:#A80036;stroke-width:1.0;"/><line style="stroke:#A80036;stroke-width:1.0;stroke-dasharray:2.0,2.0;" x1="1390" x2="1559" y1="843.7676" y2="843.7676"/><line style="stroke:#A80036;stroke-width:1.0;stroke-dasharray:2.0,2.0;" x1="1565" x2="1607" y1="873.0781" y2="873.0781"/><line style="stroke:#A80036;stroke-width:1.0;stroke-dasharray:2.0,2.0;" x1="1607" x2="1607" y1="873.0781" y2="886.0781"/><line style="stroke:#A80036;stroke-width:1.0;stroke-dasharray:2.0,2.0;" x1="1566" x2="1607" y1="886.0781" y2="886.0781"/><polygon fill="#A80036" points="1576,882.0781,1566,886.0781,1576,890.0781,1572,886.0781" style="stroke:#A80036;stroke-width:1.0;"/><text fill="#000000" font-family="sans-serif" font-size="13" lengthAdjust="spacing" textLength="85" x="1572" y="868.3359">startNext&#26041;&#27861;</text><polygon fill="#A80036" points="1736,896.0781,1746,900.0781,1736,904.0781,1740,900.0781" style="stroke:#A80036;stroke-width:1.0;"/><line style="stroke:#A80036;stroke-width:1.0;stroke-dasharray:2.0,2.0;" x1="1565" x2="1742" y1="900.0781" y2="900.0781"/><line style="stroke:#A80036;stroke-width:1.0;stroke-dasharray:2.0,2.0;" x1="1748" x2="1790" y1="929.3887" y2="929.3887"/><line style="stroke:#A80036;stroke-width:1.0;stroke-dasharray:2.0,2.0;" x1="1790" x2="1790" y1="929.3887" y2="942.3887"/><line style="stroke:#A80036;stroke-width:1.0;stroke-dasharray:2.0,2.0;" x1="1749" x2="1790" y1="942.3887" y2="942.3887"/><polygon fill="#A80036" points="1759,938.3887,1749,942.3887,1759,946.3887,1755,942.3887" style="stroke:#A80036;stroke-width:1.0;"/><text fill="#000000" font-family="sans-serif" font-size="13" lengthAdjust="spacing" textLength="108" x="1755" y="924.6465">&#35843;&#29992;loadData&#26041;&#27861;</text><line style="stroke:#A80036;stroke-width:1.0;stroke-dasharray:2.0,2.0;" x1="1748" x2="1790" y1="971.6992" y2="971.6992"/><line style="stroke:#A80036;stroke-width:1.0;stroke-dasharray:2.0,2.0;" x1="1790" x2="1790" y1="971.6992" y2="984.6992"/><line style="stroke:#A80036;stroke-width:1.0;stroke-dasharray:2.0,2.0;" x1="1749" x2="1790" y1="984.6992" y2="984.6992"/><polygon fill="#A80036" points="1759,980.6992,1749,984.6992,1759,988.6992,1755,984.6992" style="stroke:#A80036;stroke-width:1.0;"/><text fill="#000000" font-family="sans-serif" font-size="13" lengthAdjust="spacing" textLength="193" x="1755" y="966.957">&#21457;&#36215;http&#35831;&#27714;&#65292;&#36820;&#22238;InputStream</text><polygon fill="#A80036" points="1576,994.6992,1566,998.6992,1576,1002.6992,1572,998.6992" style="stroke:#A80036;stroke-width:1.0;"/><line style="stroke:#A80036;stroke-width:1.0;stroke-dasharray:2.0,2.0;" x1="1570" x2="1747" y1="998.6992" y2="998.6992"/><line style="stroke:#A80036;stroke-width:1.0;stroke-dasharray:2.0,2.0;" x1="1565" x2="1607" y1="1028.0098" y2="1028.0098"/><line style="stroke:#A80036;stroke-width:1.0;stroke-dasharray:2.0,2.0;" x1="1607" x2="1607" y1="1028.0098" y2="1041.0098"/><line style="stroke:#A80036;stroke-width:1.0;stroke-dasharray:2.0,2.0;" x1="1566" x2="1607" y1="1041.0098" y2="1041.0098"/><polygon fill="#A80036" points="1576,1037.0098,1566,1041.0098,1576,1045.0098,1572,1041.0098" style="stroke:#A80036;stroke-width:1.0;"/><text fill="#000000" font-family="sans-serif" font-size="13" lengthAdjust="spacing" textLength="137" x="1572" y="1023.2676">&#20877;&#27425;&#25191;&#34892;startNext&#26041;&#27861;</text><line style="stroke:#A80036;stroke-width:1.0;stroke-dasharray:2.0,2.0;" x1="1565" x2="1607" y1="1070.3203" y2="1070.3203"/><line style="stroke:#A80036;stroke-width:1.0;stroke-dasharray:2.0,2.0;" x1="1607" x2="1607" y1="1070.3203" y2="1083.3203"/><line style="stroke:#A80036;stroke-width:1.0;stroke-dasharray:2.0,2.0;" x1="1566" x2="1607" y1="1083.3203" y2="1083.3203"/><polygon fill="#A80036" points="1576,1079.3203,1566,1083.3203,1576,1087.3203,1572,1083.3203" style="stroke:#A80036;stroke-width:1.0;"/><text fill="#000000" font-family="sans-serif" font-size="13" lengthAdjust="spacing" textLength="169" x="1572" y="1065.5781">&#20445;&#23384;&#21407;&#22987;&#22270;&#29255;&#21040;&#26412;&#22320;&#30913;&#30424;&#32531;&#23384;</text><polygon fill="#A80036" points="1943,1093.3203,1953,1097.3203,1943,1101.3203,1947,1097.3203" style="stroke:#A80036;stroke-width:1.0;"/><line style="stroke:#A80036;stroke-width:1.0;stroke-dasharray:2.0,2.0;" x1="1565" x2="1949" y1="1097.3203" y2="1097.3203"/><line style="stroke:#A80036;stroke-width:1.0;stroke-dasharray:2.0,2.0;" x1="1955" x2="1997" y1="1126.6309" y2="1126.6309"/><line style="stroke:#A80036;stroke-width:1.0;stroke-dasharray:2.0,2.0;" x1="1997" x2="1997" y1="1126.6309" y2="1139.6309"/><line style="stroke:#A80036;stroke-width:1.0;stroke-dasharray:2.0,2.0;" x1="1956" x2="1997" y1="1139.6309" y2="1139.6309"/><polygon fill="#A80036" points="1966,1135.6309,1956,1139.6309,1966,1143.6309,1962,1139.6309" style="stroke:#A80036;stroke-width:1.0;"/><text fill="#000000" font-family="sans-serif" font-size="13" lengthAdjust="spacing" textLength="111" x="1962" y="1121.8887">&#35843;&#29992;startNext&#26041;&#27861;</text><polygon fill="#A80036" points="2114,1149.6309,2124,1153.6309,2114,1157.6309,2118,1153.6309" style="stroke:#A80036;stroke-width:1.0;"/><line style="stroke:#A80036;stroke-width:1.0;stroke-dasharray:2.0,2.0;" x1="1955" x2="2120" y1="1153.6309" y2="1153.6309"/><line style="stroke:#A80036;stroke-width:1.0;stroke-dasharray:2.0,2.0;" x1="2126" x2="2168" y1="1182.9414" y2="1182.9414"/><line style="stroke:#A80036;stroke-width:1.0;stroke-dasharray:2.0,2.0;" x1="2168" x2="2168" y1="1182.9414" y2="1195.9414"/><line style="stroke:#A80036;stroke-width:1.0;stroke-dasharray:2.0,2.0;" x1="2127" x2="2168" y1="1195.9414" y2="1195.9414"/><polygon fill="#A80036" points="2137,1191.9414,2127,1195.9414,2137,1199.9414,2133,1195.9414" style="stroke:#A80036;stroke-width:1.0;"/><text fill="#000000" font-family="sans-serif" font-size="13" lengthAdjust="spacing" textLength="108" x="2133" y="1178.1992">&#35843;&#29992;loadData&#26041;&#27861;</text><polygon fill="#A80036" points="1966,1221.252,1956,1225.252,1966,1229.252,1962,1225.252" style="stroke:#A80036;stroke-width:1.0;"/><line style="stroke:#A80036;stroke-width:1.0;stroke-dasharray:2.0,2.0;" x1="1960" x2="2125" y1="1225.252" y2="1225.252"/><text fill="#000000" font-family="sans-serif" font-size="13" lengthAdjust="spacing" textLength="147" x="1972" y="1220.5098">&#22238;&#35843;&#21040;onDataReady&#26041;&#27861;</text><polygon fill="#A80036" points="1401,1250.5625,1391,1254.5625,1401,1258.5625,1397,1254.5625" style="stroke:#A80036;stroke-width:1.0;"/><line style="stroke:#A80036;stroke-width:1.0;stroke-dasharray:2.0,2.0;" x1="1395" x2="1954" y1="1254.5625" y2="1254.5625"/><text fill="#000000" font-family="sans-serif" font-size="13" lengthAdjust="spacing" textLength="161" x="1407" y="1249.8203">&#25191;&#34892;run&#65292;runWrapped&#26041;&#27861;</text><line style="stroke:#A80036;stroke-width:1.0;stroke-dasharray:2.0,2.0;" x1="1390" x2="1432" y1="1283.873" y2="1283.873"/><line style="stroke:#A80036;stroke-width:1.0;stroke-dasharray:2.0,2.0;" x1="1432" x2="1432" y1="1283.873" y2="1296.873"/><line style="stroke:#A80036;stroke-width:1.0;stroke-dasharray:2.0,2.0;" x1="1391" x2="1432" y1="1296.873" y2="1296.873"/><polygon fill="#A80036" points="1401,1292.873,1391,1296.873,1401,1300.873,1397,1296.873" style="stroke:#A80036;stroke-width:1.0;"/><text fill="#000000" font-family="sans-serif" font-size="13" lengthAdjust="spacing" textLength="52" x="1397" y="1279.1309">&#24320;&#22987;&#35299;&#30721;</text><polygon fill="#A80036" points="788,1322.1836,778,1326.1836,788,1330.1836,784,1326.1836" style="stroke:#A80036;stroke-width:1.0;"/><line style="stroke:#A80036;stroke-width:1.0;stroke-dasharray:2.0,2.0;" x1="782" x2="1389" y1="1326.1836" y2="1326.1836"/><text fill="#000000" font-family="sans-serif" font-size="13" lengthAdjust="spacing" textLength="192" x="794" y="1321.4414">&#35299;&#30721;&#23436;&#25104;&#21518;&#22238;&#35843;&#21040;SingleRequest</text><line style="stroke:#A80036;stroke-width:1.0;stroke-dasharray:2.0,2.0;" x1="777" x2="819" y1="1355.4941" y2="1355.4941"/><line style="stroke:#A80036;stroke-width:1.0;stroke-dasharray:2.0,2.0;" x1="819" x2="819" y1="1355.4941" y2="1368.4941"/><line style="stroke:#A80036;stroke-width:1.0;stroke-dasharray:2.0,2.0;" x1="778" x2="819" y1="1368.4941" y2="1368.4941"/><polygon fill="#A80036" points="788,1364.4941,778,1368.4941,788,1372.4941,784,1368.4941" style="stroke:#A80036;stroke-width:1.0;"/><text fill="#000000" font-family="sans-serif" font-size="13" lengthAdjust="spacing" textLength="284" x="784" y="1350.752">&#22312;DrawableImageViewTarget&#19978;&#30340;view&#23637;&#31034;&#22270;&#29255;</text><!--SRC=[fLJBJjj05DtxAzYLBYZxBBgW54f5ko1zh2Vs9Onmnkbu3AKhe42X108jGOW0BG8fgA8GL5My8lYPZEqTlz1nR18_PQ5kx9dxEFVSnrnz79CkgkaWFHfZhAXdUdkBAYBCAAXFPAtGgyC70uWCFGf6UOeAalG86KmZHY47L986LQn0Jy_JrZ-J1sPkNff_AdUDRRwuoslBlBJ9oxDcfNxNAF6LIlDccIzM-VLLovwVNjfd-ssC4IUKpbuXWl90Hu1H31D07TG4bPGWZu1rc4b4Oz15SNwCIUPfkNantRpuDOn7GPwILOSHlzfmXK442OZIvVY6OaP3gHfIkWsgFawrH7gxMkRUdAYAf-ypiAf4ielwOyAqRbmGvtSO9jFZyTAyVJ3VTX0jSSFsKpI9SYeCtMlU82eAbegNStXwiemBbSKahu8dYm84rO5RM9lXzOM0mBfUvoTYhEe9T9iNNoE8eHwc9MJNFriRHumYUToRbl_Am8NBGHuJ3ox5VlMSbpUJqviG5tvOu_LoMkcgUoAsHhBuav0XPIeX_7CYg87a_jftZxSpnvvVsC1zm-xbfPRZtqhz86kASmxRTaJYv9TwKNI6A0k4SUqwWEsJNvenbshsVeaQH4on-Bwdg5Y4Uxv-bwncK1a6WG15JADIw1wroBGelOQFzxIY7Y_4fdnBrG5WyfWOg-0relVLinynvA6cEV7okltttDd9zkcvUJOhyhHlDqHdXqZHO5b6GIpZ2CZ3i-KBA-RnlblEzCp3titRNVvxYw_-S7PzzSPQ-Y8UgBbpp7Vgri6CLTso6j-5GGoIKufdID3ka8sAOktya-CZ6-lTDyMWpnWT1Jg0LHWMBH3zYXCcsCRtBW4WXghx4aLDDE9e_OynFjk73tZ7XJUcHHlise7rSoRu1e9hfcN0JqhcuXfVMsrJVD1otZbAtbFMzbnhLPrLhCChToh-0G00]--></g></svg>