<?xml version="1.0" encoding="us-ascii" standalone="no"?><svg xmlns="http://www.w3.org/2000/svg" xmlns:xlink="http://www.w3.org/1999/xlink" contentStyleType="text/css" height="2133.3333px" preserveAspectRatio="none" style="width:3226px;height:2133px;" version="1.1" viewBox="0 0 3226 2133" width="3226.0417px" zoomAndPan="magnify"><defs><linearGradient id="g1crl67cwix4mg0" x1="50%" x2="50%" y1="0%" y2="100%"><stop offset="0%" stop-color="#F18E3E"/><stop offset="100%" stop-color="#EC7211"/></linearGradient></defs><g><line style="stroke:#ABB6C2;stroke-width:1.0416666666666667;stroke-dasharray:5.0,5.0;" x1="73.9583" x2="73.9583" y1="46.4417" y2="2088.741"/><line style="stroke:#ABB6C2;stroke-width:1.0416666666666667;stroke-dasharray:5.0,5.0;" x1="336.4583" x2="336.4583" y1="46.4417" y2="2088.741"/><line style="stroke:#ABB6C2;stroke-width:1.0416666666666667;stroke-dasharray:5.0,5.0;" x1="586.4583" x2="586.4583" y1="46.4417" y2="2088.741"/><line style="stroke:#ABB6C2;stroke-width:1.0416666666666667;stroke-dasharray:5.0,5.0;" x1="906.7708" x2="906.7708" y1="46.4417" y2="2088.741"/><line style="stroke:#ABB6C2;stroke-width:1.0416666666666667;stroke-dasharray:5.0,5.0;" x1="1246.875" x2="1246.875" y1="46.4417" y2="2088.741"/><line style="stroke:#ABB6C2;stroke-width:1.0416666666666667;stroke-dasharray:5.0,5.0;" x1="1436.9792" x2="1436.9792" y1="46.4417" y2="2088.741"/><line style="stroke:#ABB6C2;stroke-width:1.0416666666666667;stroke-dasharray:5.0,5.0;" x1="1833.8542" x2="1833.8542" y1="46.4417" y2="2088.741"/><line style="stroke:#ABB6C2;stroke-width:1.0416666666666667;stroke-dasharray:5.0,5.0;" x1="2194.7917" x2="2194.7917" y1="46.4417" y2="2088.741"/><line style="stroke:#ABB6C2;stroke-width:1.0416666666666667;stroke-dasharray:5.0,5.0;" x1="2412.5" x2="2412.5" y1="46.4417" y2="2088.741"/><line style="stroke:#ABB6C2;stroke-width:1.0416666666666667;stroke-dasharray:5.0,5.0;" x1="2641.6667" x2="2641.6667" y1="46.4417" y2="2088.741"/><line style="stroke:#ABB6C2;stroke-width:1.0416666666666667;stroke-dasharray:5.0,5.0;" x1="2881.25" x2="2881.25" y1="46.4417" y2="2088.741"/><rect fill="url(#g1crl67cwix4mg0)" height="40.1917" rx="4.1667" ry="4.1667" style="stroke:#EC7211;stroke-width:1.5625;" width="55.2083" x="46.875" y="5.2083"/><text fill="#FFFFFF" font-family="Verdana" font-size="12.5" lengthAdjust="spacing" textLength="30.2083" x="59.375" y="30.2755">Glide</text><rect fill="url(#g1crl67cwix4mg0)" height="40.1917" rx="4.1667" ry="4.1667" style="stroke:#EC7211;stroke-width:1.5625;" width="55.2083" x="46.875" y="2087.6994"/><text fill="#FFFFFF" font-family="Verdana" font-size="12.5" lengthAdjust="spacing" textLength="30.2083" x="59.375" y="2112.7665">Glide</text><rect fill="url(#g1crl67cwix4mg0)" height="40.1917" rx="4.1667" ry="4.1667" style="stroke:#EC7211;stroke-width:1.5625;" width="184.375" x="244.7917" y="5.2083"/><text fill="#FFFFFF" font-family="Verdana" font-size="12.5" lengthAdjust="spacing" textLength="159.375" x="257.2917" y="30.2755">RequestManagerRetriever</text><rect fill="url(#g1crl67cwix4mg0)" height="40.1917" rx="4.1667" ry="4.1667" style="stroke:#EC7211;stroke-width:1.5625;" width="184.375" x="244.7917" y="2087.6994"/><text fill="#FFFFFF" font-family="Verdana" font-size="12.5" lengthAdjust="spacing" textLength="159.375" x="257.2917" y="2112.7665">RequestManagerRetriever</text><rect fill="url(#g1crl67cwix4mg0)" height="40.1917" rx="4.1667" ry="4.1667" style="stroke:#EC7211;stroke-width:1.5625;" width="128.125" x="522.9167" y="5.2083"/><text fill="#FFFFFF" font-family="Verdana" font-size="12.5" lengthAdjust="spacing" textLength="103.125" x="535.4167" y="30.2755">RequestManager</text><rect fill="url(#g1crl67cwix4mg0)" height="40.1917" rx="4.1667" ry="4.1667" style="stroke:#EC7211;stroke-width:1.5625;" width="128.125" x="522.9167" y="2087.6994"/><text fill="#FFFFFF" font-family="Verdana" font-size="12.5" lengthAdjust="spacing" textLength="103.125" x="535.4167" y="2112.7665">RequestManager</text><rect fill="url(#g1crl67cwix4mg0)" height="40.1917" rx="4.1667" ry="4.1667" style="stroke:#EC7211;stroke-width:1.5625;" width="112.5" x="850.5208" y="5.2083"/><text fill="#FFFFFF" font-family="Verdana" font-size="12.5" lengthAdjust="spacing" textLength="87.5" x="863.0208" y="30.2755">SingleRequest</text><rect fill="url(#g1crl67cwix4mg0)" height="40.1917" rx="4.1667" ry="4.1667" style="stroke:#EC7211;stroke-width:1.5625;" width="112.5" x="850.5208" y="2087.6994"/><text fill="#FFFFFF" font-family="Verdana" font-size="12.5" lengthAdjust="spacing" textLength="87.5" x="863.0208" y="2112.7665">SingleRequest</text><rect fill="url(#g1crl67cwix4mg0)" height="40.1917" rx="4.1667" ry="4.1667" style="stroke:#EC7211;stroke-width:1.5625;" width="67.7083" x="1213.5417" y="5.2083"/><text fill="#FFFFFF" font-family="Verdana" font-size="12.5" lengthAdjust="spacing" textLength="42.7083" x="1226.0417" y="30.2755">Engine</text><rect fill="url(#g1crl67cwix4mg0)" height="40.1917" rx="4.1667" ry="4.1667" style="stroke:#EC7211;stroke-width:1.5625;" width="67.7083" x="1213.5417" y="2087.6994"/><text fill="#FFFFFF" font-family="Verdana" font-size="12.5" lengthAdjust="spacing" textLength="42.7083" x="1226.0417" y="2112.7665">Engine</text><rect fill="url(#g1crl67cwix4mg0)" height="40.1917" rx="4.1667" ry="4.1667" style="stroke:#EC7211;stroke-width:1.5625;" width="87.5" x="1393.2292" y="5.2083"/><text fill="#FFFFFF" font-family="Verdana" font-size="12.5" lengthAdjust="spacing" textLength="62.5" x="1405.7292" y="30.2755">EngineJob</text><rect fill="url(#g1crl67cwix4mg0)" height="40.1917" rx="4.1667" ry="4.1667" style="stroke:#EC7211;stroke-width:1.5625;" width="87.5" x="1393.2292" y="2087.6994"/><text fill="#FFFFFF" font-family="Verdana" font-size="12.5" lengthAdjust="spacing" textLength="62.5" x="1405.7292" y="2112.7665">EngineJob</text><rect fill="url(#g1crl67cwix4mg0)" height="40.1917" rx="4.1667" ry="4.1667" style="stroke:#EC7211;stroke-width:1.5625;" width="89.5833" x="1789.0625" y="5.2083"/><text fill="#FFFFFF" font-family="Verdana" font-size="12.5" lengthAdjust="spacing" textLength="64.5833" x="1801.5625" y="30.2755">DecodeJob</text><rect fill="url(#g1crl67cwix4mg0)" height="40.1917" rx="4.1667" ry="4.1667" style="stroke:#EC7211;stroke-width:1.5625;" width="89.5833" x="1789.0625" y="2087.6994"/><text fill="#FFFFFF" font-family="Verdana" font-size="12.5" lengthAdjust="spacing" textLength="64.5833" x="1801.5625" y="2112.7665">DecodeJob</text><rect fill="url(#g1crl67cwix4mg0)" height="40.1917" rx="4.1667" ry="4.1667" style="stroke:#EC7211;stroke-width:1.5625;" width="130.2083" x="2130.2083" y="5.2083"/><text fill="#FFFFFF" font-family="Verdana" font-size="12.5" lengthAdjust="spacing" textLength="105.2083" x="2142.7083" y="30.2755">SourceGenerator</text><rect fill="url(#g1crl67cwix4mg0)" height="40.1917" rx="4.1667" ry="4.1667" style="stroke:#EC7211;stroke-width:1.5625;" width="130.2083" x="2130.2083" y="2087.6994"/><text fill="#FFFFFF" font-family="Verdana" font-size="12.5" lengthAdjust="spacing" textLength="105.2083" x="2142.7083" y="2112.7665">SourceGenerator</text><rect fill="url(#g1crl67cwix4mg0)" height="40.1917" rx="4.1667" ry="4.1667" style="stroke:#EC7211;stroke-width:1.5625;" width="116.6667" x="2354.1667" y="5.2083"/><text fill="#FFFFFF" font-family="Verdana" font-size="12.5" lengthAdjust="spacing" textLength="91.6667" x="2366.6667" y="30.2755">HttpUrlFetcher</text><rect fill="url(#g1crl67cwix4mg0)" height="40.1917" rx="4.1667" ry="4.1667" style="stroke:#EC7211;stroke-width:1.5625;" width="116.6667" x="2354.1667" y="2087.6994"/><text fill="#FFFFFF" font-family="Verdana" font-size="12.5" lengthAdjust="spacing" textLength="91.6667" x="2366.6667" y="2112.7665">HttpUrlFetcher</text><rect fill="url(#g1crl67cwix4mg0)" height="40.1917" rx="4.1667" ry="4.1667" style="stroke:#EC7211;stroke-width:1.5625;" width="154.1667" x="2564.5833" y="5.2083"/><text fill="#FFFFFF" font-family="Verdana" font-size="12.5" lengthAdjust="spacing" textLength="129.1667" x="2577.0833" y="30.2755">DataCacheGenerator</text><rect fill="url(#g1crl67cwix4mg0)" height="40.1917" rx="4.1667" ry="4.1667" style="stroke:#EC7211;stroke-width:1.5625;" width="154.1667" x="2564.5833" y="2087.6994"/><text fill="#FFFFFF" font-family="Verdana" font-size="12.5" lengthAdjust="spacing" textLength="129.1667" x="2577.0833" y="2112.7665">DataCacheGenerator</text><rect fill="url(#g1crl67cwix4mg0)" height="40.1917" rx="4.1667" ry="4.1667" style="stroke:#EC7211;stroke-width:1.5625;" width="137.5" x="2812.5" y="5.2083"/><text fill="#FFFFFF" font-family="Verdana" font-size="12.5" lengthAdjust="spacing" textLength="112.5" x="2825" y="30.2755">ByteBufferFetcher</text><rect fill="url(#g1crl67cwix4mg0)" height="40.1917" rx="4.1667" ry="4.1667" style="stroke:#EC7211;stroke-width:1.5625;" width="137.5" x="2812.5" y="2087.6994"/><text fill="#FFFFFF" font-family="Verdana" font-size="12.5" lengthAdjust="spacing" textLength="112.5" x="2825" y="2112.7665">ByteBufferFetcher</text><line style="stroke:#EC7211;stroke-width:3.125;stroke-dasharray:2.0,2.0;" x1="74.4792" x2="118.2292" y1="88.7166" y2="88.7166"/><line style="stroke:#EC7211;stroke-width:3.125;stroke-dasharray:2.0,2.0;" x1="118.2292" x2="118.2292" y1="88.7166" y2="102.2583"/><line style="stroke:#EC7211;stroke-width:3.125;stroke-dasharray:2.0,2.0;" x1="75.5208" x2="118.2292" y1="102.2583" y2="102.2583"/><polygon fill="#EC7211" points="85.9375,98.0916,75.5208,102.2583,85.9375,106.425,81.7708,102.2583" style="stroke:#EC7211;stroke-width:1.0416666666666667;"/><text fill="#4E5D6C" font-family="Verdana" font-size="12.5" lengthAdjust="spacing" textLength="237.5" x="86.9792" y="78.8005">get&#26041;&#27861;&#65306;&#21021;&#22987;&#21270;&#21442;&#25968;&#65292;&#21333;&#20363;&#21019;&#24314;Glide&#23545;&#35937;</text><polygon fill="#EC7211" points="324.4792,138.2833,334.8958,142.45,324.4792,146.6166,328.6458,142.45" style="stroke:#EC7211;stroke-width:1.0416666666666667;"/><line style="stroke:#EC7211;stroke-width:3.125;stroke-dasharray:2.0,2.0;" x1="74.4792" x2="330.7292" y1="142.45" y2="142.45"/><text fill="#4E5D6C" font-family="Verdana" font-size="12.5" lengthAdjust="spacing" textLength="179.1667" x="86.9792" y="132.5338">getRequestManagerRetriever</text><polygon fill="#EC7211" points="574.4792,181.5999,584.8958,185.7666,574.4792,189.9333,578.6458,185.7666" style="stroke:#EC7211;stroke-width:1.0416666666666667;"/><line style="stroke:#EC7211;stroke-width:3.125;stroke-dasharray:2.0,2.0;" x1="336.9792" x2="580.7292" y1="185.7666" y2="185.7666"/><text fill="#4E5D6C" font-family="Verdana" font-size="12.5" lengthAdjust="spacing" textLength="44.7917" x="349.4792" y="175.8504">get&#26041;&#27861;</text><path d="M591.6667,160.1583 L591.6667,187.2416 A4.1667,4.1667 0 0 0 595.8333,191.4083 L862.5,191.4083 A4.1667,4.1667 0 0 0 866.6667,187.2416 L866.6667,166.4083 L856.25,155.9916 L595.8333,155.9916 A4.1667,4.1667 0 0 0 591.6667,160.1583 " fill="#0073BB" style="stroke:#005C96;stroke-width:1.0416666666666667;"/><path d="M856.25,155.9916 L856.25,164.325 A2.0833,2.0833 0 0 0 858.3333,166.4083 L866.6667,166.4083 L856.25,155.9916 " fill="#0073BB" style="stroke:#005C96;stroke-width:1.0416666666666667;"/><text fill="#FFFFFF" font-family="Verdana" font-size="12.5" lengthAdjust="spacing" textLength="242.7083" x="603.125" y="178.9754">&#27599;&#19968;&#20010;Lifecycle&#23545;&#24212;&#19968;&#20010;RequestManager</text><line style="stroke:#EC7211;stroke-width:3.125;stroke-dasharray:2.0,2.0;" x1="586.9792" x2="630.7292" y1="229.0833" y2="229.0833"/><line style="stroke:#EC7211;stroke-width:3.125;stroke-dasharray:2.0,2.0;" x1="630.7292" x2="630.7292" y1="229.0833" y2="242.6249"/><line style="stroke:#EC7211;stroke-width:3.125;stroke-dasharray:2.0,2.0;" x1="588.0208" x2="630.7292" y1="242.6249" y2="242.6249"/><polygon fill="#EC7211" points="598.4375,238.4583,588.0208,242.6249,598.4375,246.7916,594.2708,242.6249" style="stroke:#EC7211;stroke-width:1.0416666666666667;"/><text fill="#4E5D6C" font-family="Verdana" font-size="12.5" lengthAdjust="spacing" textLength="52.0833" x="599.4792" y="219.1671">load(url)</text><line style="stroke:#EC7211;stroke-width:3.125;stroke-dasharray:2.0,2.0;" x1="586.9792" x2="630.7292" y1="282.8166" y2="282.8166"/><line style="stroke:#EC7211;stroke-width:3.125;stroke-dasharray:2.0,2.0;" x1="630.7292" x2="630.7292" y1="282.8166" y2="296.3582"/><line style="stroke:#EC7211;stroke-width:3.125;stroke-dasharray:2.0,2.0;" x1="588.0208" x2="630.7292" y1="296.3582" y2="296.3582"/><polygon fill="#EC7211" points="598.4375,292.1916,588.0208,296.3582,598.4375,300.5249,594.2708,296.3582" style="stroke:#EC7211;stroke-width:1.0416666666666667;"/><text fill="#4E5D6C" font-family="Verdana" font-size="12.5" lengthAdjust="spacing" textLength="168.75" x="599.4792" y="272.9004">as&#26041;&#27861;&#65306;&#26500;&#24314;RequestBuilder</text><line style="stroke:#EC7211;stroke-width:3.125;stroke-dasharray:2.0,2.0;" x1="586.9792" x2="630.7292" y1="336.5499" y2="336.5499"/><line style="stroke:#EC7211;stroke-width:3.125;stroke-dasharray:2.0,2.0;" x1="630.7292" x2="630.7292" y1="336.5499" y2="350.0916"/><line style="stroke:#EC7211;stroke-width:3.125;stroke-dasharray:2.0,2.0;" x1="588.0208" x2="630.7292" y1="350.0916" y2="350.0916"/><polygon fill="#EC7211" points="598.4375,345.9249,588.0208,350.0916,598.4375,354.2582,594.2708,350.0916" style="stroke:#EC7211;stroke-width:1.0416666666666667;"/><text fill="#4E5D6C" font-family="Verdana" font-size="12.5" lengthAdjust="spacing" textLength="101.0417" x="599.4792" y="326.6337">into(imageView)</text><line style="stroke:#EC7211;stroke-width:3.125;stroke-dasharray:2.0,2.0;" x1="586.9792" x2="630.7292" y1="390.2832" y2="390.2832"/><line style="stroke:#EC7211;stroke-width:3.125;stroke-dasharray:2.0,2.0;" x1="630.7292" x2="630.7292" y1="390.2832" y2="403.8249"/><line style="stroke:#EC7211;stroke-width:3.125;stroke-dasharray:2.0,2.0;" x1="588.0208" x2="630.7292" y1="403.8249" y2="403.8249"/><polygon fill="#EC7211" points="598.4375,399.6582,588.0208,403.8249,598.4375,407.9915,594.2708,403.8249" style="stroke:#EC7211;stroke-width:1.0416666666666667;"/><text fill="#4E5D6C" font-family="Verdana" font-size="12.5" lengthAdjust="spacing" textLength="294.7917" x="599.4792" y="380.367">&#21253;&#35013;imageView&#65292;&#26500;&#24314;DrawableImageViewTarget</text><line style="stroke:#EC7211;stroke-width:3.125;stroke-dasharray:2.0,2.0;" x1="586.9792" x2="630.7292" y1="444.0165" y2="444.0165"/><line style="stroke:#EC7211;stroke-width:3.125;stroke-dasharray:2.0,2.0;" x1="630.7292" x2="630.7292" y1="444.0165" y2="457.5582"/><line style="stroke:#EC7211;stroke-width:3.125;stroke-dasharray:2.0,2.0;" x1="588.0208" x2="630.7292" y1="457.5582" y2="457.5582"/><polygon fill="#EC7211" points="598.4375,453.3915,588.0208,457.5582,598.4375,461.7249,594.2708,457.5582" style="stroke:#EC7211;stroke-width:1.0416666666666667;"/><text fill="#4E5D6C" font-family="Verdana" font-size="12.5" lengthAdjust="spacing" textLength="196.875" x="599.4792" y="434.1003">buildRequest:&#26500;&#24314;SingleRequest</text><polygon fill="#EC7211" points="894.2708,467.9749,904.6875,472.1415,894.2708,476.3082,898.4375,472.1415" style="stroke:#EC7211;stroke-width:1.0416666666666667;"/><line style="stroke:#EC7211;stroke-width:3.125;stroke-dasharray:2.0,2.0;" x1="586.9792" x2="900.5208" y1="472.1415" y2="472.1415"/><line style="stroke:#EC7211;stroke-width:3.125;stroke-dasharray:2.0,2.0;" x1="906.7708" x2="950.5208" y1="512.3332" y2="512.3332"/><line style="stroke:#EC7211;stroke-width:3.125;stroke-dasharray:2.0,2.0;" x1="950.5208" x2="950.5208" y1="512.3332" y2="525.8748"/><line style="stroke:#EC7211;stroke-width:3.125;stroke-dasharray:2.0,2.0;" x1="907.8125" x2="950.5208" y1="525.8748" y2="525.8748"/><polygon fill="#EC7211" points="918.2292,521.7082,907.8125,525.8748,918.2292,530.0415,914.0625,525.8748" style="stroke:#EC7211;stroke-width:1.0416666666666667;"/><text fill="#4E5D6C" font-family="Verdana" font-size="12.5" lengthAdjust="spacing" textLength="315.625" x="919.2708" y="502.417">&#23558;SingleRequest&#32465;&#23450;&#21040;DrawableImageViewTarget&#19978;</text><polygon fill="#EC7211" points="598.4375,536.2915,588.0208,540.4582,598.4375,544.6248,594.2708,540.4582" style="stroke:#EC7211;stroke-width:1.0416666666666667;"/><line style="stroke:#EC7211;stroke-width:3.125;stroke-dasharray:2.0,2.0;" x1="592.1875" x2="905.7292" y1="540.4582" y2="540.4582"/><line style="stroke:#EC7211;stroke-width:3.125;stroke-dasharray:2.0,2.0;" x1="586.9792" x2="630.7292" y1="580.6498" y2="580.6498"/><line style="stroke:#EC7211;stroke-width:3.125;stroke-dasharray:2.0,2.0;" x1="630.7292" x2="630.7292" y1="580.6498" y2="594.1915"/><line style="stroke:#EC7211;stroke-width:3.125;stroke-dasharray:2.0,2.0;" x1="588.0208" x2="630.7292" y1="594.1915" y2="594.1915"/><polygon fill="#EC7211" points="598.4375,590.0248,588.0208,594.1915,598.4375,598.3582,594.2708,594.1915" style="stroke:#EC7211;stroke-width:1.0416666666666667;"/><text fill="#4E5D6C" font-family="Verdana" font-size="12.5" lengthAdjust="spacing" textLength="81.25" x="599.4792" y="570.7336">&#35843;&#29992;track&#26041;&#27861;</text><polygon fill="#EC7211" points="894.2708,604.6082,904.6875,608.7748,894.2708,612.9415,898.4375,608.7748" style="stroke:#EC7211;stroke-width:1.0416666666666667;"/><line style="stroke:#EC7211;stroke-width:3.125;stroke-dasharray:2.0,2.0;" x1="586.9792" x2="900.5208" y1="608.7748" y2="608.7748"/><line style="stroke:#EC7211;stroke-width:3.125;stroke-dasharray:2.0,2.0;" x1="906.7708" x2="950.5208" y1="648.9665" y2="648.9665"/><line style="stroke:#EC7211;stroke-width:3.125;stroke-dasharray:2.0,2.0;" x1="950.5208" x2="950.5208" y1="648.9665" y2="662.5081"/><line style="stroke:#EC7211;stroke-width:3.125;stroke-dasharray:2.0,2.0;" x1="907.8125" x2="950.5208" y1="662.5081" y2="662.5081"/><polygon fill="#EC7211" points="918.2292,658.3415,907.8125,662.5081,918.2292,666.6748,914.0625,662.5081" style="stroke:#EC7211;stroke-width:1.0416666666666667;"/><text fill="#4E5D6C" font-family="Verdana" font-size="12.5" lengthAdjust="spacing" textLength="83.3333" x="919.2708" y="639.0503">&#35843;&#29992;begin&#26041;&#27861;</text><line style="stroke:#EC7211;stroke-width:3.125;stroke-dasharray:2.0,2.0;" x1="906.7708" x2="950.5208" y1="702.6998" y2="702.6998"/><line style="stroke:#EC7211;stroke-width:3.125;stroke-dasharray:2.0,2.0;" x1="950.5208" x2="950.5208" y1="702.6998" y2="716.2415"/><line style="stroke:#EC7211;stroke-width:3.125;stroke-dasharray:2.0,2.0;" x1="907.8125" x2="950.5208" y1="716.2415" y2="716.2415"/><polygon fill="#EC7211" points="918.2292,712.0748,907.8125,716.2415,918.2292,720.4081,914.0625,716.2415" style="stroke:#EC7211;stroke-width:1.0416666666666667;"/><text fill="#4E5D6C" font-family="Verdana" font-size="12.5" lengthAdjust="spacing" textLength="256.25" x="919.2708" y="692.7836">&#33719;&#21462;DrawableImageViewTarget&#19978;view&#22823;&#23567;</text><line style="stroke:#EC7211;stroke-width:3.125;stroke-dasharray:2.0,2.0;" x1="906.7708" x2="950.5208" y1="756.4331" y2="756.4331"/><line style="stroke:#EC7211;stroke-width:3.125;stroke-dasharray:2.0,2.0;" x1="950.5208" x2="950.5208" y1="756.4331" y2="769.9748"/><line style="stroke:#EC7211;stroke-width:3.125;stroke-dasharray:2.0,2.0;" x1="907.8125" x2="950.5208" y1="769.9748" y2="769.9748"/><polygon fill="#EC7211" points="918.2292,765.8081,907.8125,769.9748,918.2292,774.1414,914.0625,769.9748" style="stroke:#EC7211;stroke-width:1.0416666666666667;"/><text fill="#4E5D6C" font-family="Verdana" font-size="12.5" lengthAdjust="spacing" textLength="128.125" x="919.2708" y="746.5169">&#22238;&#35843;onSizeReady&#26041;&#27861;</text><polygon fill="#EC7211" points="1234.8958,780.3914,1245.3125,784.5581,1234.8958,788.7248,1239.0625,784.5581" style="stroke:#EC7211;stroke-width:1.0416666666666667;"/><line style="stroke:#EC7211;stroke-width:3.125;stroke-dasharray:2.0,2.0;" x1="906.7708" x2="1241.1458" y1="784.5581" y2="784.5581"/><line style="stroke:#EC7211;stroke-width:3.125;stroke-dasharray:2.0,2.0;" x1="1247.3958" x2="1291.1458" y1="824.7498" y2="824.7498"/><line style="stroke:#EC7211;stroke-width:3.125;stroke-dasharray:2.0,2.0;" x1="1291.1458" x2="1291.1458" y1="824.7498" y2="838.2914"/><line style="stroke:#EC7211;stroke-width:3.125;stroke-dasharray:2.0,2.0;" x1="1248.4375" x2="1291.1458" y1="838.2914" y2="838.2914"/><polygon fill="#EC7211" points="1258.8542,834.1248,1248.4375,838.2914,1258.8542,842.4581,1254.6875,838.2914" style="stroke:#EC7211;stroke-width:1.0416666666666667;"/><text fill="#4E5D6C" font-family="Verdana" font-size="12.5" lengthAdjust="spacing" textLength="75" x="1259.8958" y="814.8336">&#35843;&#29992;load&#26041;&#27861;</text><line style="stroke:#EC7211;stroke-width:3.125;stroke-dasharray:2.0,2.0;" x1="1247.3958" x2="1291.1458" y1="878.4831" y2="878.4831"/><line style="stroke:#EC7211;stroke-width:3.125;stroke-dasharray:2.0,2.0;" x1="1291.1458" x2="1291.1458" y1="878.4831" y2="892.0247"/><line style="stroke:#EC7211;stroke-width:3.125;stroke-dasharray:2.0,2.0;" x1="1248.4375" x2="1291.1458" y1="892.0247" y2="892.0247"/><polygon fill="#EC7211" points="1258.8542,887.8581,1248.4375,892.0247,1258.8542,896.1914,1254.6875,892.0247" style="stroke:#EC7211;stroke-width:1.0416666666666667;"/><text fill="#4E5D6C" font-family="Verdana" font-size="12.5" lengthAdjust="spacing" textLength="164.5833" x="1259.8958" y="868.5669">&#21019;&#24314;EngineJob&#21644;DecodeJob</text><polygon fill="#EC7211" points="1424.4792,902.4414,1434.8958,906.6081,1424.4792,910.7747,1428.6458,906.6081" style="stroke:#EC7211;stroke-width:1.0416666666666667;"/><line style="stroke:#EC7211;stroke-width:3.125;stroke-dasharray:2.0,2.0;" x1="1247.3958" x2="1430.7292" y1="906.6081" y2="906.6081"/><line style="stroke:#EC7211;stroke-width:3.125;stroke-dasharray:2.0,2.0;" x1="1436.9792" x2="1480.7292" y1="946.7997" y2="946.7997"/><line style="stroke:#EC7211;stroke-width:3.125;stroke-dasharray:2.0,2.0;" x1="1480.7292" x2="1480.7292" y1="946.7997" y2="960.3414"/><line style="stroke:#EC7211;stroke-width:3.125;stroke-dasharray:2.0,2.0;" x1="1438.0208" x2="1480.7292" y1="960.3414" y2="960.3414"/><polygon fill="#EC7211" points="1448.4375,956.1747,1438.0208,960.3414,1448.4375,964.5081,1444.2708,960.3414" style="stroke:#EC7211;stroke-width:1.0416666666666667;"/><text fill="#4E5D6C" font-family="Verdana" font-size="12.5" lengthAdjust="spacing" textLength="79.1667" x="1449.4792" y="936.8835">&#35843;&#29992;start&#26041;&#27861;</text><polygon fill="#EC7211" points="1821.3542,970.7581,1831.7708,974.9247,1821.3542,979.0914,1825.5208,974.9247" style="stroke:#EC7211;stroke-width:1.0416666666666667;"/><line style="stroke:#EC7211;stroke-width:3.125;stroke-dasharray:2.0,2.0;" x1="1436.9792" x2="1827.6042" y1="974.9247" y2="974.9247"/><line style="stroke:#EC7211;stroke-width:3.125;stroke-dasharray:2.0,2.0;" x1="1833.8542" x2="1877.6042" y1="1015.1164" y2="1015.1164"/><line style="stroke:#EC7211;stroke-width:3.125;stroke-dasharray:2.0,2.0;" x1="1877.6042" x2="1877.6042" y1="1015.1164" y2="1028.658"/><line style="stroke:#EC7211;stroke-width:3.125;stroke-dasharray:2.0,2.0;" x1="1834.8958" x2="1877.6042" y1="1028.658" y2="1028.658"/><polygon fill="#EC7211" points="1845.3125,1024.4914,1834.8958,1028.658,1845.3125,1032.8247,1841.1458,1028.658" style="stroke:#EC7211;stroke-width:1.0416666666666667;"/><text fill="#4E5D6C" font-family="Verdana" font-size="12.5" lengthAdjust="spacing" textLength="160.4167" x="1846.3542" y="1005.2002">&#25191;&#34892;run&#65292;runWrapped&#26041;&#27861;</text><polygon fill="#EC7211" points="2182.8125,1039.0747,2193.2292,1043.2414,2182.8125,1047.408,2186.9792,1043.2414" style="stroke:#EC7211;stroke-width:1.0416666666666667;"/><line style="stroke:#EC7211;stroke-width:3.125;stroke-dasharray:2.0,2.0;" x1="1833.8542" x2="2189.0625" y1="1043.2414" y2="1043.2414"/><line style="stroke:#EC7211;stroke-width:3.125;stroke-dasharray:2.0,2.0;" x1="2195.3125" x2="2239.0625" y1="1083.433" y2="1083.433"/><line style="stroke:#EC7211;stroke-width:3.125;stroke-dasharray:2.0,2.0;" x1="2239.0625" x2="2239.0625" y1="1083.433" y2="1096.9747"/><line style="stroke:#EC7211;stroke-width:3.125;stroke-dasharray:2.0,2.0;" x1="2196.3542" x2="2239.0625" y1="1096.9747" y2="1096.9747"/><polygon fill="#EC7211" points="2206.7708,1092.808,2196.3542,1096.9747,2206.7708,1101.1414,2202.6042,1096.9747" style="stroke:#EC7211;stroke-width:1.0416666666666667;"/><text fill="#4E5D6C" font-family="Verdana" font-size="12.5" lengthAdjust="spacing" textLength="83.3333" x="2207.8125" y="1073.5168">startNext&#26041;&#27861;</text><polygon fill="#EC7211" points="2400,1107.3914,2410.4167,1111.558,2400,1115.7247,2404.1667,1111.558" style="stroke:#EC7211;stroke-width:1.0416666666666667;"/><line style="stroke:#EC7211;stroke-width:3.125;stroke-dasharray:2.0,2.0;" x1="2195.3125" x2="2406.25" y1="1111.558" y2="1111.558"/><line style="stroke:#EC7211;stroke-width:3.125;stroke-dasharray:2.0,2.0;" x1="2412.5" x2="2456.25" y1="1151.7497" y2="1151.7497"/><line style="stroke:#EC7211;stroke-width:3.125;stroke-dasharray:2.0,2.0;" x1="2456.25" x2="2456.25" y1="1151.7497" y2="1165.2913"/><line style="stroke:#EC7211;stroke-width:3.125;stroke-dasharray:2.0,2.0;" x1="2413.5417" x2="2456.25" y1="1165.2913" y2="1165.2913"/><polygon fill="#EC7211" points="2423.9583,1161.1247,2413.5417,1165.2913,2423.9583,1169.458,2419.7917,1165.2913" style="stroke:#EC7211;stroke-width:1.0416666666666667;"/><text fill="#4E5D6C" font-family="Verdana" font-size="12.5" lengthAdjust="spacing" textLength="104.1667" x="2425" y="1141.8335">&#35843;&#29992;loadData&#26041;&#27861;</text><line style="stroke:#EC7211;stroke-width:3.125;stroke-dasharray:2.0,2.0;" x1="2412.5" x2="2456.25" y1="1205.483" y2="1205.483"/><line style="stroke:#EC7211;stroke-width:3.125;stroke-dasharray:2.0,2.0;" x1="2456.25" x2="2456.25" y1="1205.483" y2="1219.0247"/><line style="stroke:#EC7211;stroke-width:3.125;stroke-dasharray:2.0,2.0;" x1="2413.5417" x2="2456.25" y1="1219.0247" y2="1219.0247"/><polygon fill="#EC7211" points="2423.9583,1214.858,2413.5417,1219.0247,2423.9583,1223.1913,2419.7917,1219.0247" style="stroke:#EC7211;stroke-width:1.0416666666666667;"/><text fill="#4E5D6C" font-family="Verdana" font-size="12.5" lengthAdjust="spacing" textLength="193.75" x="2425" y="1195.5668">&#21457;&#36215;http&#35831;&#27714;&#65292;&#36820;&#22238;InputStream</text><polygon fill="#EC7211" points="2206.7708,1229.4413,2196.3542,1233.608,2206.7708,1237.7747,2202.6042,1233.608" style="stroke:#EC7211;stroke-width:1.0416666666666667;"/><line style="stroke:#EC7211;stroke-width:3.125;stroke-dasharray:2.0,2.0;" x1="2200.5208" x2="2411.4583" y1="1233.608" y2="1233.608"/><line style="stroke:#EC7211;stroke-width:3.125;stroke-dasharray:2.0,2.0;" x1="2195.3125" x2="2239.0625" y1="1273.7996" y2="1273.7996"/><line style="stroke:#EC7211;stroke-width:3.125;stroke-dasharray:2.0,2.0;" x1="2239.0625" x2="2239.0625" y1="1273.7996" y2="1287.3413"/><line style="stroke:#EC7211;stroke-width:3.125;stroke-dasharray:2.0,2.0;" x1="2196.3542" x2="2239.0625" y1="1287.3413" y2="1287.3413"/><polygon fill="#EC7211" points="2206.7708,1283.1746,2196.3542,1287.3413,2206.7708,1291.508,2202.6042,1287.3413" style="stroke:#EC7211;stroke-width:1.0416666666666667;"/><text fill="#4E5D6C" font-family="Verdana" font-size="12.5" lengthAdjust="spacing" textLength="133.3333" x="2207.8125" y="1263.8835">&#20877;&#27425;&#25191;&#34892;startNext&#26041;&#27861;</text><line style="stroke:#EC7211;stroke-width:3.125;stroke-dasharray:2.0,2.0;" x1="2195.3125" x2="2239.0625" y1="1327.533" y2="1327.533"/><line style="stroke:#EC7211;stroke-width:3.125;stroke-dasharray:2.0,2.0;" x1="2239.0625" x2="2239.0625" y1="1327.533" y2="1341.0746"/><line style="stroke:#EC7211;stroke-width:3.125;stroke-dasharray:2.0,2.0;" x1="2196.3542" x2="2239.0625" y1="1341.0746" y2="1341.0746"/><polygon fill="#EC7211" points="2206.7708,1336.908,2196.3542,1341.0746,2206.7708,1345.2413,2202.6042,1341.0746" style="stroke:#EC7211;stroke-width:1.0416666666666667;"/><text fill="#4E5D6C" font-family="Verdana" font-size="12.5" lengthAdjust="spacing" textLength="162.5" x="2207.8125" y="1317.6168">&#20445;&#23384;&#21407;&#22987;&#22270;&#29255;&#21040;&#26412;&#22320;&#30913;&#30424;&#32531;&#23384;</text><polygon fill="#EC7211" points="2629.1667,1351.4913,2639.5833,1355.658,2629.1667,1359.8246,2633.3333,1355.658" style="stroke:#EC7211;stroke-width:1.0416666666666667;"/><line style="stroke:#EC7211;stroke-width:3.125;stroke-dasharray:2.0,2.0;" x1="2195.3125" x2="2635.4167" y1="1355.658" y2="1355.658"/><line style="stroke:#EC7211;stroke-width:3.125;stroke-dasharray:2.0,2.0;" x1="2641.6667" x2="2685.4167" y1="1395.8496" y2="1395.8496"/><line style="stroke:#EC7211;stroke-width:3.125;stroke-dasharray:2.0,2.0;" x1="2685.4167" x2="2685.4167" y1="1395.8496" y2="1409.3913"/><line style="stroke:#EC7211;stroke-width:3.125;stroke-dasharray:2.0,2.0;" x1="2642.7083" x2="2685.4167" y1="1409.3913" y2="1409.3913"/><polygon fill="#EC7211" points="2653.125,1405.2246,2642.7083,1409.3913,2653.125,1413.5579,2648.9583,1409.3913" style="stroke:#EC7211;stroke-width:1.0416666666666667;"/><text fill="#4E5D6C" font-family="Verdana" font-size="12.5" lengthAdjust="spacing" textLength="108.3333" x="2654.1667" y="1385.9334">&#35843;&#29992;startNext&#26041;&#27861;</text><polygon fill="#EC7211" points="2868.75,1419.8079,2879.1667,1423.9746,2868.75,1428.1413,2872.9167,1423.9746" style="stroke:#EC7211;stroke-width:1.0416666666666667;"/><line style="stroke:#EC7211;stroke-width:3.125;stroke-dasharray:2.0,2.0;" x1="2641.6667" x2="2875" y1="1423.9746" y2="1423.9746"/><line style="stroke:#EC7211;stroke-width:3.125;stroke-dasharray:2.0,2.0;" x1="2881.25" x2="2925" y1="1464.1663" y2="1464.1663"/><line style="stroke:#EC7211;stroke-width:3.125;stroke-dasharray:2.0,2.0;" x1="2925" x2="2925" y1="1464.1663" y2="1477.7079"/><line style="stroke:#EC7211;stroke-width:3.125;stroke-dasharray:2.0,2.0;" x1="2882.2917" x2="2925" y1="1477.7079" y2="1477.7079"/><polygon fill="#EC7211" points="2892.7083,1473.5413,2882.2917,1477.7079,2892.7083,1481.8746,2888.5417,1477.7079" style="stroke:#EC7211;stroke-width:1.0416666666666667;"/><text fill="#4E5D6C" font-family="Verdana" font-size="12.5" lengthAdjust="spacing" textLength="325" x="2893.75" y="1454.2501">&#35843;&#29992;loadData&#26041;&#27861;&#65288;&#23558;InputStream&#36716;&#21270;&#25104;ByteBuffer&#65289;</text><polygon fill="#EC7211" points="2653.125,1513.7329,2642.7083,1517.8996,2653.125,1522.0662,2648.9583,1517.8996" style="stroke:#EC7211;stroke-width:1.0416666666666667;"/><line style="stroke:#EC7211;stroke-width:3.125;stroke-dasharray:2.0,2.0;" x1="2646.875" x2="2880.2083" y1="1517.8996" y2="1517.8996"/><text fill="#4E5D6C" font-family="Verdana" font-size="12.5" lengthAdjust="spacing" textLength="144.7917" x="2664.5833" y="1507.9834">&#22238;&#35843;&#21040;onDataReady&#26041;&#27861;</text><polygon fill="#EC7211" points="1845.3125,1553.9246,1834.8958,1558.0912,1845.3125,1562.2579,1841.1458,1558.0912" style="stroke:#EC7211;stroke-width:1.0416666666666667;"/><line style="stroke:#EC7211;stroke-width:3.125;stroke-dasharray:2.0,2.0;" x1="1839.0625" x2="2640.625" y1="1558.0912" y2="1558.0912"/><text fill="#4E5D6C" font-family="Verdana" font-size="12.5" lengthAdjust="spacing" textLength="160.4167" x="1856.7708" y="1548.175">&#25191;&#34892;run&#65292;runWrapped&#26041;&#27861;</text><line style="stroke:#EC7211;stroke-width:3.125;stroke-dasharray:2.0,2.0;" x1="1833.8542" x2="1877.6042" y1="1598.2829" y2="1598.2829"/><line style="stroke:#EC7211;stroke-width:3.125;stroke-dasharray:2.0,2.0;" x1="1877.6042" x2="1877.6042" y1="1598.2829" y2="1611.8245"/><line style="stroke:#EC7211;stroke-width:3.125;stroke-dasharray:2.0,2.0;" x1="1834.8958" x2="1877.6042" y1="1611.8245" y2="1611.8245"/><polygon fill="#EC7211" points="1845.3125,1607.6579,1834.8958,1611.8245,1845.3125,1615.9912,1841.1458,1611.8245" style="stroke:#EC7211;stroke-width:1.0416666666666667;"/><text fill="#4E5D6C" font-family="Verdana" font-size="12.5" lengthAdjust="spacing" textLength="50" x="1846.3542" y="1588.3667">&#24320;&#22987;&#35299;&#30721;</text><line style="stroke:#EC7211;stroke-width:3.125;stroke-dasharray:2.0,2.0;" x1="1833.8542" x2="1877.6042" y1="1652.0162" y2="1652.0162"/><line style="stroke:#EC7211;stroke-width:3.125;stroke-dasharray:2.0,2.0;" x1="1877.6042" x2="1877.6042" y1="1652.0162" y2="1665.5579"/><line style="stroke:#EC7211;stroke-width:3.125;stroke-dasharray:2.0,2.0;" x1="1834.8958" x2="1877.6042" y1="1665.5579" y2="1665.5579"/><polygon fill="#EC7211" points="1845.3125,1661.3912,1834.8958,1665.5579,1845.3125,1669.7245,1841.1458,1665.5579" style="stroke:#EC7211;stroke-width:1.0416666666666667;"/><text fill="#4E5D6C" font-family="Verdana" font-size="12.5" lengthAdjust="spacing" textLength="336.4583" x="1846.3542" y="1642.1">onResourceDecoded&#65288;&#35299;&#30721;&#25104;&#21151;&#22238;&#35843;&#65292;&#24320;&#22987;&#33719;&#21462;&#32534;&#30721;&#21442;&#25968;&#65289;</text><line style="stroke:#EC7211;stroke-width:3.125;stroke-dasharray:2.0,2.0;" x1="1833.8542" x2="1877.6042" y1="1705.7495" y2="1705.7495"/><line style="stroke:#EC7211;stroke-width:3.125;stroke-dasharray:2.0,2.0;" x1="1877.6042" x2="1877.6042" y1="1705.7495" y2="1719.2912"/><line style="stroke:#EC7211;stroke-width:3.125;stroke-dasharray:2.0,2.0;" x1="1834.8958" x2="1877.6042" y1="1719.2912" y2="1719.2912"/><polygon fill="#EC7211" points="1845.3125,1715.1245,1834.8958,1719.2912,1845.3125,1723.4578,1841.1458,1719.2912" style="stroke:#EC7211;stroke-width:1.0416666666666667;"/><text fill="#4E5D6C" font-family="Verdana" font-size="12.5" lengthAdjust="spacing" textLength="151.0417" x="1846.3542" y="1695.8333">notifyEncodeAndRelease</text><line style="stroke:#EC7211;stroke-width:3.125;stroke-dasharray:2.0,2.0;" x1="1833.8542" x2="1877.6042" y1="1759.4828" y2="1759.4828"/><line style="stroke:#EC7211;stroke-width:3.125;stroke-dasharray:2.0,2.0;" x1="1877.6042" x2="1877.6042" y1="1759.4828" y2="1773.0245"/><line style="stroke:#EC7211;stroke-width:3.125;stroke-dasharray:2.0,2.0;" x1="1834.8958" x2="1877.6042" y1="1773.0245" y2="1773.0245"/><polygon fill="#EC7211" points="1845.3125,1768.8578,1834.8958,1773.0245,1845.3125,1777.1912,1841.1458,1773.0245" style="stroke:#EC7211;stroke-width:1.0416666666666667;"/><text fill="#4E5D6C" font-family="Verdana" font-size="12.5" lengthAdjust="spacing" textLength="231.25" x="1846.3542" y="1749.5667">notifyComplete&#65288;&#36890;&#30693;EngineJob&#22238;&#35843;&#65289;</text><polygon fill="#EC7211" points="1448.4375,1809.0495,1438.0208,1813.2161,1448.4375,1817.3828,1444.2708,1813.2161" style="stroke:#EC7211;stroke-width:1.0416666666666667;"/><line style="stroke:#EC7211;stroke-width:3.125;stroke-dasharray:2.0,2.0;" x1="1442.1875" x2="1832.8125" y1="1813.2161" y2="1813.2161"/><text fill="#4E5D6C" font-family="Verdana" font-size="12.5" lengthAdjust="spacing" textLength="109.375" x="1459.8958" y="1803.3">onResourceReady</text><polygon fill="#EC7211" points="1258.8542,1849.2411,1248.4375,1853.4078,1258.8542,1857.5745,1254.6875,1853.4078" style="stroke:#EC7211;stroke-width:1.0416666666666667;"/><line style="stroke:#EC7211;stroke-width:3.125;stroke-dasharray:2.0,2.0;" x1="1252.6042" x2="1435.9375" y1="1853.4078" y2="1853.4078"/><text fill="#4E5D6C" font-family="Verdana" font-size="12.5" lengthAdjust="spacing" textLength="136.4583" x="1270.3125" y="1843.4916">onEngineJobComplete</text><line style="stroke:#EC7211;stroke-width:3.125;stroke-dasharray:2.0,2.0;" x1="1436.9792" x2="1480.7292" y1="1908.7911" y2="1908.7911"/><line style="stroke:#EC7211;stroke-width:3.125;stroke-dasharray:2.0,2.0;" x1="1480.7292" x2="1480.7292" y1="1908.7911" y2="1922.3328"/><line style="stroke:#EC7211;stroke-width:3.125;stroke-dasharray:2.0,2.0;" x1="1438.0208" x2="1480.7292" y1="1922.3328" y2="1922.3328"/><polygon fill="#EC7211" points="1448.4375,1918.1661,1438.0208,1922.3328,1448.4375,1926.4994,1444.2708,1922.3328" style="stroke:#EC7211;stroke-width:1.0416666666666667;"/><text fill="#4E5D6C" font-family="Verdana" font-size="12.5" lengthAdjust="spacing" textLength="371.875" x="1449.4792" y="1883.6833">&#22312;notifyCallbacksOfResult&#26041;&#27861;&#20013;&#25191;&#34892;&#20869;&#37096;&#31867;CallResourceReady</text><text fill="#4E5D6C" font-family="Verdana" font-size="12.5" lengthAdjust="spacing" textLength="110.4167" x="1449.4792" y="1898.8749">(&#24320;&#22987;&#20999;&#25442;&#21040;&#20027;&#32447;&#31243;)</text><polygon fill="#EC7211" points="918.2292,1958.3577,907.8125,1962.5244,918.2292,1966.6911,914.0625,1962.5244" style="stroke:#EC7211;stroke-width:1.0416666666666667;"/><line style="stroke:#EC7211;stroke-width:3.125;stroke-dasharray:2.0,2.0;" x1="911.9792" x2="1435.9375" y1="1962.5244" y2="1962.5244"/><text fill="#4E5D6C" font-family="Verdana" font-size="12.5" lengthAdjust="spacing" textLength="244.7917" x="929.6875" y="1952.6082">onResourceReady(&#22238;&#35843;&#21040;SingleRequest)</text><line style="stroke:#EC7211;stroke-width:3.125;stroke-dasharray:2.0,2.0;" x1="906.7708" x2="950.5208" y1="2002.7161" y2="2002.7161"/><line style="stroke:#EC7211;stroke-width:3.125;stroke-dasharray:2.0,2.0;" x1="950.5208" x2="950.5208" y1="2002.7161" y2="2016.2577"/><line style="stroke:#EC7211;stroke-width:3.125;stroke-dasharray:2.0,2.0;" x1="907.8125" x2="950.5208" y1="2016.2577" y2="2016.2577"/><polygon fill="#EC7211" points="918.2292,2012.0911,907.8125,2016.2577,918.2292,2020.4244,914.0625,2016.2577" style="stroke:#EC7211;stroke-width:1.0416666666666667;"/><text fill="#4E5D6C" font-family="Verdana" font-size="12.5" lengthAdjust="spacing" textLength="281.25" x="919.2708" y="1992.7999">&#22312;DrawableImageViewTarget&#19978;&#30340;view&#23637;&#31034;&#22270;&#29255;</text><line style="stroke:#EC7211;stroke-width:3.125;stroke-dasharray:2.0,2.0;" x1="1833.8542" x2="1877.6042" y1="2056.4494" y2="2056.4494"/><line style="stroke:#EC7211;stroke-width:3.125;stroke-dasharray:2.0,2.0;" x1="1877.6042" x2="1877.6042" y1="2056.4494" y2="2069.991"/><line style="stroke:#EC7211;stroke-width:3.125;stroke-dasharray:2.0,2.0;" x1="1834.8958" x2="1877.6042" y1="2069.991" y2="2069.991"/><polygon fill="#EC7211" points="1845.3125,2065.8244,1834.8958,2069.991,1845.3125,2074.1577,1841.1458,2069.991" style="stroke:#EC7211;stroke-width:1.0416666666666667;"/><text fill="#4E5D6C" font-family="Verdana" font-size="12.5" lengthAdjust="spacing" textLength="50" x="1846.3542" y="2046.5332">&#24320;&#22987;&#32534;&#30721;</text><!--SRC=[fLPBKnD14Bxlhy2JS43kELWbegZbemfyNBnCaaxOSZCRPsT5FE4321ACA50Me8XeaR9GGbaM4QBycSpkUk8ls9lPPBFPNRSiBsIdf_lhhn_JZN5FfNrCDq0vFS5vqKWD3HKrGhbPqCvazCAG0VTDe1aOpAeapqX1EKrChbEpa0QcdE8JK80-CcaCwepGF2YZcfg5mS6phTzK7hYr-iFwjdBIM1Ebjs9dGPHNHUM9jL8xQPJ5uahpru8ehOkZmvQ-sFlXx6zrCCPSrmQ_HYZ90ni3pbHu0Cn5ZRbIOkGXC9-PGdKEVKpDJt35sgiqwzFD-kUhQWuoKndDPIGEbwKmYA00pVQvjZq-mwuqdMJxJQOD96eIevCjwzqpp8ftFsogMZOKNTXUfLplLmluVLk5oMH_eZpZRCzq3B0aqkq88vCahS7bzirDmZ1XYNXfbwSdIqceSPNcDV1aOO3WTU3KUviIjTc0m3vQ4b-nhMenT9lrvo74dXec1UJKdjhBLSv8vfxNBVyLWOHBGrwb7bo2_ei3KLcD3-y17iJ77L6h9ALk_Htwrkcu-WXb93iLu_u2HMgWo9_EsUFjzh5drwiWtx0yND7JubLv139wrltkrVL5-DKjzRmOd30US2FrVC3ELxSqPStlE5jbPbBiOlnxXv5Y4Tfykqt6TPDbO1GeCC9rflISmngf5gNhyB1DAsnn2IVdBQPT19wPmBOA7aFtNVaS8Pnug4b6ehBaV3zmPxIpTs3jFy4udUDbhEnbMZJvE6U0mpa4yk_HYjb5QtTBfZCvybxhvl5RyUMDUB7fplhrN_Ry73vGQsDNRDJixSVs-XkxyHeL8f3SL9mdIDid6nP5wdLtJXVPIElXAGx3PYu7h5sia2HAAx9a9uqIpgIkz3i_Tt6_MQMNllr9OpxIGqGKyf5YkdJgtdQ_q-X4_7ll-oQYCOqLSdQsxVUFOrHqEWP6gqnIbiLufG56A9vlIhxk7fTOhM5bDrPHeRtYvsEWSM-gkQaBr3sVexWoD23u7yZVbC_hXQ867934x-arU_EJFsqy7a5d_bpnusYbD6Bwe4f7sFOJCwJ4HjNZGpGjZNl1k953U5FpkgvP_oAh8MPdVZ-jslj7hcA0m5tQBpCcIdFMuWSiUBD-P1yUszM5WO3Nu0pl2QE_qou1jO6aJR1HZTydzjgprahPNx4_7ihN-zVsaSN-0m00]--></g></svg>