<?xml version="1.0" encoding="us-ascii" standalone="no"?><svg xmlns="http://www.w3.org/2000/svg" xmlns:xlink="http://www.w3.org/1999/xlink" contentStyleType="text/css" height="2592.7083px" preserveAspectRatio="none" style="width:3358px;height:2592px;" version="1.1" viewBox="0 0 3358 2592" width="3358.3333px" zoomAndPan="magnify"><defs><linearGradient id="gktsscxg5l14b0" x1="50%" x2="50%" y1="0%" y2="100%"><stop offset="0%" stop-color="#F18E3E"/><stop offset="100%" stop-color="#EC7211"/></linearGradient></defs><g><rect fill="none" height="121.6166" rx="4.1667" ry="4.1667" style="stroke:#4E5D6C;stroke-width:1.5625;" width="486.4583" x="10.4167" y="64.15"/><rect fill="none" height="258.8582" rx="4.1667" ry="4.1667" style="stroke:#4E5D6C;stroke-width:1.5625;" width="606.7708" x="2145.8333" y="1101.1414"/><rect fill="none" height="135.1583" rx="4.1667" ry="4.1667" style="stroke:#4E5D6C;stroke-width:1.5625;" width="386.9792" x="2145.8333" y="1374.5829"/><rect fill="none" height="164.325" rx="4.1667" ry="4.1667" style="stroke:#4E5D6C;stroke-width:1.5625;" width="1206.7708" x="2145.8333" y="1524.3245"/><rect fill="none" height="244.2749" rx="4.1667" ry="4.1667" style="stroke:#4E5D6C;stroke-width:1.5625;" width="1134.375" x="1752.6042" y="1743.4245"/><rect fill="none" height="324.6582" rx="4.1667" ry="4.1667" style="stroke:#4E5D6C;stroke-width:1.5625;" width="1296.875" x="814.0625" y="2056.016"/><rect fill="none" height="135.1583" rx="4.1667" ry="4.1667" style="stroke:#4E5D6C;stroke-width:1.5625;" width="515.625" x="1752.6042" y="2395.2576"/><line style="stroke:#ABB6C2;stroke-width:0.5208333333333334;stroke-dasharray:5.0,5.0;" x1="89.5833" x2="89.5833" y1="46.4417" y2="2548.1242"/><line style="stroke:#ABB6C2;stroke-width:0.5208333333333334;stroke-dasharray:5.0,5.0;" x1="352.0833" x2="352.0833" y1="46.4417" y2="2548.1242"/><line style="stroke:#ABB6C2;stroke-width:0.5208333333333334;stroke-dasharray:5.0,5.0;" x1="602.0833" x2="602.0833" y1="46.4417" y2="2548.1242"/><line style="stroke:#ABB6C2;stroke-width:0.5208333333333334;stroke-dasharray:5.0,5.0;" x1="922.3958" x2="922.3958" y1="46.4417" y2="2548.1242"/><line style="stroke:#ABB6C2;stroke-width:0.5208333333333334;stroke-dasharray:5.0,5.0;" x1="1262.5" x2="1262.5" y1="46.4417" y2="2548.1242"/><line style="stroke:#ABB6C2;stroke-width:0.5208333333333334;stroke-dasharray:5.0,5.0;" x1="1452.6042" x2="1452.6042" y1="46.4417" y2="2548.1242"/><line style="stroke:#ABB6C2;stroke-width:0.5208333333333334;stroke-dasharray:5.0,5.0;" x1="1849.4792" x2="1849.4792" y1="46.4417" y2="2548.1242"/><line style="stroke:#ABB6C2;stroke-width:0.5208333333333334;stroke-dasharray:5.0,5.0;" x1="2262.5" x2="2262.5" y1="46.4417" y2="2548.1242"/><line style="stroke:#ABB6C2;stroke-width:0.5208333333333334;stroke-dasharray:5.0,5.0;" x1="2528.6458" x2="2528.6458" y1="46.4417" y2="2548.1242"/><line style="stroke:#ABB6C2;stroke-width:0.5208333333333334;stroke-dasharray:5.0,5.0;" x1="2757.8125" x2="2757.8125" y1="46.4417" y2="2548.1242"/><line style="stroke:#ABB6C2;stroke-width:0.5208333333333334;stroke-dasharray:5.0,5.0;" x1="2997.3958" x2="2997.3958" y1="46.4417" y2="2548.1242"/><rect fill="url(#gktsscxg5l14b0)" height="40.1917" rx="4.1667" ry="4.1667" style="stroke:#EC7211;stroke-width:0.5208333333333334;" width="55.2083" x="62.5" y="5.2083"/><text fill="#FFFFFF" font-family="Verdana" font-size="12.5" lengthAdjust="spacing" textLength="30.2083" x="75" y="30.2755">Glide</text><rect fill="url(#gktsscxg5l14b0)" height="40.1917" rx="4.1667" ry="4.1667" style="stroke:#EC7211;stroke-width:0.5208333333333334;" width="55.2083" x="62.5" y="2547.0825"/><text fill="#FFFFFF" font-family="Verdana" font-size="12.5" lengthAdjust="spacing" textLength="30.2083" x="75" y="2572.1497">Glide</text><rect fill="url(#gktsscxg5l14b0)" height="40.1917" rx="4.1667" ry="4.1667" style="stroke:#EC7211;stroke-width:0.5208333333333334;" width="184.375" x="260.4167" y="5.2083"/><text fill="#FFFFFF" font-family="Verdana" font-size="12.5" lengthAdjust="spacing" textLength="159.375" x="272.9167" y="30.2755">RequestManagerRetriever</text><rect fill="url(#gktsscxg5l14b0)" height="40.1917" rx="4.1667" ry="4.1667" style="stroke:#EC7211;stroke-width:0.5208333333333334;" width="184.375" x="260.4167" y="2547.0825"/><text fill="#FFFFFF" font-family="Verdana" font-size="12.5" lengthAdjust="spacing" textLength="159.375" x="272.9167" y="2572.1497">RequestManagerRetriever</text><rect fill="url(#gktsscxg5l14b0)" height="40.1917" rx="4.1667" ry="4.1667" style="stroke:#EC7211;stroke-width:0.5208333333333334;" width="128.125" x="538.5417" y="5.2083"/><text fill="#FFFFFF" font-family="Verdana" font-size="12.5" lengthAdjust="spacing" textLength="103.125" x="551.0417" y="30.2755">RequestManager</text><rect fill="url(#gktsscxg5l14b0)" height="40.1917" rx="4.1667" ry="4.1667" style="stroke:#EC7211;stroke-width:0.5208333333333334;" width="128.125" x="538.5417" y="2547.0825"/><text fill="#FFFFFF" font-family="Verdana" font-size="12.5" lengthAdjust="spacing" textLength="103.125" x="551.0417" y="2572.1497">RequestManager</text><rect fill="url(#gktsscxg5l14b0)" height="40.1917" rx="4.1667" ry="4.1667" style="stroke:#EC7211;stroke-width:0.5208333333333334;" width="112.5" x="866.1458" y="5.2083"/><text fill="#FFFFFF" font-family="Verdana" font-size="12.5" lengthAdjust="spacing" textLength="87.5" x="878.6458" y="30.2755">SingleRequest</text><rect fill="url(#gktsscxg5l14b0)" height="40.1917" rx="4.1667" ry="4.1667" style="stroke:#EC7211;stroke-width:0.5208333333333334;" width="112.5" x="866.1458" y="2547.0825"/><text fill="#FFFFFF" font-family="Verdana" font-size="12.5" lengthAdjust="spacing" textLength="87.5" x="878.6458" y="2572.1497">SingleRequest</text><rect fill="url(#gktsscxg5l14b0)" height="40.1917" rx="4.1667" ry="4.1667" style="stroke:#EC7211;stroke-width:0.5208333333333334;" width="67.7083" x="1229.1667" y="5.2083"/><text fill="#FFFFFF" font-family="Verdana" font-size="12.5" lengthAdjust="spacing" textLength="42.7083" x="1241.6667" y="30.2755">Engine</text><rect fill="url(#gktsscxg5l14b0)" height="40.1917" rx="4.1667" ry="4.1667" style="stroke:#EC7211;stroke-width:0.5208333333333334;" width="67.7083" x="1229.1667" y="2547.0825"/><text fill="#FFFFFF" font-family="Verdana" font-size="12.5" lengthAdjust="spacing" textLength="42.7083" x="1241.6667" y="2572.1497">Engine</text><rect fill="url(#gktsscxg5l14b0)" height="40.1917" rx="4.1667" ry="4.1667" style="stroke:#EC7211;stroke-width:0.5208333333333334;" width="87.5" x="1408.8542" y="5.2083"/><text fill="#FFFFFF" font-family="Verdana" font-size="12.5" lengthAdjust="spacing" textLength="62.5" x="1421.3542" y="30.2755">EngineJob</text><rect fill="url(#gktsscxg5l14b0)" height="40.1917" rx="4.1667" ry="4.1667" style="stroke:#EC7211;stroke-width:0.5208333333333334;" width="87.5" x="1408.8542" y="2547.0825"/><text fill="#FFFFFF" font-family="Verdana" font-size="12.5" lengthAdjust="spacing" textLength="62.5" x="1421.3542" y="2572.1497">EngineJob</text><rect fill="url(#gktsscxg5l14b0)" height="40.1917" rx="4.1667" ry="4.1667" style="stroke:#EC7211;stroke-width:0.5208333333333334;" width="89.5833" x="1804.6875" y="5.2083"/><text fill="#FFFFFF" font-family="Verdana" font-size="12.5" lengthAdjust="spacing" textLength="64.5833" x="1817.1875" y="30.2755">DecodeJob</text><rect fill="url(#gktsscxg5l14b0)" height="40.1917" rx="4.1667" ry="4.1667" style="stroke:#EC7211;stroke-width:0.5208333333333334;" width="89.5833" x="1804.6875" y="2547.0825"/><text fill="#FFFFFF" font-family="Verdana" font-size="12.5" lengthAdjust="spacing" textLength="64.5833" x="1817.1875" y="2572.1497">DecodeJob</text><rect fill="url(#gktsscxg5l14b0)" height="40.1917" rx="4.1667" ry="4.1667" style="stroke:#EC7211;stroke-width:0.5208333333333334;" width="130.2083" x="2197.9167" y="5.2083"/><text fill="#FFFFFF" font-family="Verdana" font-size="12.5" lengthAdjust="spacing" textLength="105.2083" x="2210.4167" y="30.2755">SourceGenerator</text><rect fill="url(#gktsscxg5l14b0)" height="40.1917" rx="4.1667" ry="4.1667" style="stroke:#EC7211;stroke-width:0.5208333333333334;" width="130.2083" x="2197.9167" y="2547.0825"/><text fill="#FFFFFF" font-family="Verdana" font-size="12.5" lengthAdjust="spacing" textLength="105.2083" x="2210.4167" y="2572.1497">SourceGenerator</text><rect fill="url(#gktsscxg5l14b0)" height="40.1917" rx="4.1667" ry="4.1667" style="stroke:#EC7211;stroke-width:0.5208333333333334;" width="116.6667" x="2470.3125" y="5.2083"/><text fill="#FFFFFF" font-family="Verdana" font-size="12.5" lengthAdjust="spacing" textLength="91.6667" x="2482.8125" y="30.2755">HttpUrlFetcher</text><rect fill="url(#gktsscxg5l14b0)" height="40.1917" rx="4.1667" ry="4.1667" style="stroke:#EC7211;stroke-width:0.5208333333333334;" width="116.6667" x="2470.3125" y="2547.0825"/><text fill="#FFFFFF" font-family="Verdana" font-size="12.5" lengthAdjust="spacing" textLength="91.6667" x="2482.8125" y="2572.1497">HttpUrlFetcher</text><rect fill="url(#gktsscxg5l14b0)" height="40.1917" rx="4.1667" ry="4.1667" style="stroke:#EC7211;stroke-width:0.5208333333333334;" width="154.1667" x="2680.7292" y="5.2083"/><text fill="#FFFFFF" font-family="Verdana" font-size="12.5" lengthAdjust="spacing" textLength="129.1667" x="2693.2292" y="30.2755">DataCacheGenerator</text><rect fill="url(#gktsscxg5l14b0)" height="40.1917" rx="4.1667" ry="4.1667" style="stroke:#EC7211;stroke-width:0.5208333333333334;" width="154.1667" x="2680.7292" y="2547.0825"/><text fill="#FFFFFF" font-family="Verdana" font-size="12.5" lengthAdjust="spacing" textLength="129.1667" x="2693.2292" y="2572.1497">DataCacheGenerator</text><rect fill="url(#gktsscxg5l14b0)" height="40.1917" rx="4.1667" ry="4.1667" style="stroke:#EC7211;stroke-width:0.5208333333333334;" width="137.5" x="2928.6458" y="5.2083"/><text fill="#FFFFFF" font-family="Verdana" font-size="12.5" lengthAdjust="spacing" textLength="112.5" x="2941.1458" y="30.2755">ByteBufferFetcher</text><rect fill="url(#gktsscxg5l14b0)" height="40.1917" rx="4.1667" ry="4.1667" style="stroke:#EC7211;stroke-width:0.5208333333333334;" width="137.5" x="2928.6458" y="2547.0825"/><text fill="#FFFFFF" font-family="Verdana" font-size="12.5" lengthAdjust="spacing" textLength="112.5" x="2941.1458" y="2572.1497">ByteBufferFetcher</text><path d="M14.5833,64.15 L138.5417,64.15 L138.5417,81.425 L128.125,91.8416 L10.4167,91.8416 L10.4167,68.3167 A4.1667,4.1667 0 0 1 14.5833,64.15 " fill="#EEEEEE" style="stroke:#4E5D6C;stroke-width:1.5625;"/><rect fill="none" height="121.6166" rx="4.1667" ry="4.1667" style="stroke:#4E5D6C;stroke-width:1.5625;" width="486.4583" x="10.4167" y="64.15"/><text fill="#0073BB" font-family="Verdana" font-size="12.5" font-weight="bold" lengthAdjust="spacing" textLength="70.8333" x="31.25" y="82.9671">glide&#21021;&#22987;&#21270;</text><line style="stroke:#EC7211;stroke-width:3.125;stroke-dasharray:2.0,2.0;" x1="90.1042" x2="133.8542" y1="123.7" y2="123.7"/><line style="stroke:#EC7211;stroke-width:3.125;stroke-dasharray:2.0,2.0;" x1="133.8542" x2="133.8542" y1="123.7" y2="137.2416"/><line style="stroke:#EC7211;stroke-width:3.125;stroke-dasharray:2.0,2.0;" x1="91.1458" x2="133.8542" y1="137.2416" y2="137.2416"/><polygon fill="#EC7211" points="101.5625,133.075,91.1458,137.2416,101.5625,141.4083,97.3958,137.2416" style="stroke:#EC7211;stroke-width:1.0416666666666667;"/><text fill="#4E5D6C" font-family="Verdana" font-size="12.5" lengthAdjust="spacing" textLength="237.5" x="102.6042" y="113.7838">get&#26041;&#27861;&#65306;&#21021;&#22987;&#21270;&#21442;&#25968;&#65292;&#21333;&#20363;&#21019;&#24314;Glide&#23545;&#35937;</text><polygon fill="#EC7211" points="340.1042,173.2666,350.5208,177.4333,340.1042,181.5999,344.2708,177.4333" style="stroke:#EC7211;stroke-width:1.0416666666666667;"/><line style="stroke:#EC7211;stroke-width:3.125;stroke-dasharray:2.0,2.0;" x1="90.1042" x2="346.3542" y1="177.4333" y2="177.4333"/><text fill="#4E5D6C" font-family="Verdana" font-size="12.5" lengthAdjust="spacing" textLength="179.1667" x="102.6042" y="167.5171">getRequestManagerRetriever</text><polygon fill="#EC7211" points="590.1042,223.8749,600.5208,228.0416,590.1042,232.2083,594.2708,228.0416" style="stroke:#EC7211;stroke-width:1.0416666666666667;"/><line style="stroke:#EC7211;stroke-width:3.125;stroke-dasharray:2.0,2.0;" x1="352.6042" x2="596.3542" y1="228.0416" y2="228.0416"/><text fill="#4E5D6C" font-family="Verdana" font-size="12.5" lengthAdjust="spacing" textLength="44.7917" x="365.1042" y="218.1254">get&#26041;&#27861;</text><path d="M607.2917,202.4333 L607.2917,229.5166 A4.1667,4.1667 0 0 0 611.4583,233.6833 L878.125,233.6833 A4.1667,4.1667 0 0 0 882.2917,229.5166 L882.2917,208.6833 L871.875,198.2666 L611.4583,198.2666 A4.1667,4.1667 0 0 0 607.2917,202.4333 " fill="#0073BB" style="stroke:#005C96;stroke-width:1.0416666666666667;"/><path d="M871.875,198.2666 L871.875,206.5999 A2.0833,2.0833 0 0 0 873.9583,208.6833 L882.2917,208.6833 L871.875,198.2666 " fill="#0073BB" style="stroke:#005C96;stroke-width:1.0416666666666667;"/><text fill="#FFFFFF" font-family="Verdana" font-size="12.5" lengthAdjust="spacing" textLength="242.7083" x="618.75" y="221.2504">&#27599;&#19968;&#20010;Lifecycle&#23545;&#24212;&#19968;&#20010;RequestManager</text><line style="stroke:#EC7211;stroke-width:3.125;stroke-dasharray:2.0,2.0;" x1="602.6042" x2="646.3542" y1="271.3582" y2="271.3582"/><line style="stroke:#EC7211;stroke-width:3.125;stroke-dasharray:2.0,2.0;" x1="646.3542" x2="646.3542" y1="271.3582" y2="284.8999"/><line style="stroke:#EC7211;stroke-width:3.125;stroke-dasharray:2.0,2.0;" x1="603.6458" x2="646.3542" y1="284.8999" y2="284.8999"/><polygon fill="#EC7211" points="614.0625,280.7332,603.6458,284.8999,614.0625,289.0666,609.8958,284.8999" style="stroke:#EC7211;stroke-width:1.0416666666666667;"/><text fill="#4E5D6C" font-family="Verdana" font-size="12.5" lengthAdjust="spacing" textLength="52.0833" x="615.1042" y="261.4421">load(url)</text><line style="stroke:#EC7211;stroke-width:3.125;stroke-dasharray:2.0,2.0;" x1="602.6042" x2="646.3542" y1="325.0916" y2="325.0916"/><line style="stroke:#EC7211;stroke-width:3.125;stroke-dasharray:2.0,2.0;" x1="646.3542" x2="646.3542" y1="325.0916" y2="338.6332"/><line style="stroke:#EC7211;stroke-width:3.125;stroke-dasharray:2.0,2.0;" x1="603.6458" x2="646.3542" y1="338.6332" y2="338.6332"/><polygon fill="#EC7211" points="614.0625,334.4666,603.6458,338.6332,614.0625,342.7999,609.8958,338.6332" style="stroke:#EC7211;stroke-width:1.0416666666666667;"/><text fill="#4E5D6C" font-family="Verdana" font-size="12.5" lengthAdjust="spacing" textLength="168.75" x="615.1042" y="315.1754">as&#26041;&#27861;&#65306;&#26500;&#24314;RequestBuilder</text><line style="stroke:#EC7211;stroke-width:3.125;stroke-dasharray:2.0,2.0;" x1="602.6042" x2="646.3542" y1="378.8249" y2="378.8249"/><line style="stroke:#EC7211;stroke-width:3.125;stroke-dasharray:2.0,2.0;" x1="646.3542" x2="646.3542" y1="378.8249" y2="392.3665"/><line style="stroke:#EC7211;stroke-width:3.125;stroke-dasharray:2.0,2.0;" x1="603.6458" x2="646.3542" y1="392.3665" y2="392.3665"/><polygon fill="#EC7211" points="614.0625,388.1999,603.6458,392.3665,614.0625,396.5332,609.8958,392.3665" style="stroke:#EC7211;stroke-width:1.0416666666666667;"/><text fill="#4E5D6C" font-family="Verdana" font-size="12.5" lengthAdjust="spacing" textLength="101.0417" x="615.1042" y="368.9087">into(imageView)</text><line style="stroke:#EC7211;stroke-width:3.125;stroke-dasharray:2.0,2.0;" x1="602.6042" x2="646.3542" y1="432.5582" y2="432.5582"/><line style="stroke:#EC7211;stroke-width:3.125;stroke-dasharray:2.0,2.0;" x1="646.3542" x2="646.3542" y1="432.5582" y2="446.0999"/><line style="stroke:#EC7211;stroke-width:3.125;stroke-dasharray:2.0,2.0;" x1="603.6458" x2="646.3542" y1="446.0999" y2="446.0999"/><polygon fill="#EC7211" points="614.0625,441.9332,603.6458,446.0999,614.0625,450.2665,609.8958,446.0999" style="stroke:#EC7211;stroke-width:1.0416666666666667;"/><text fill="#4E5D6C" font-family="Verdana" font-size="12.5" lengthAdjust="spacing" textLength="294.7917" x="615.1042" y="422.642">&#21253;&#35013;imageView&#65292;&#26500;&#24314;DrawableImageViewTarget</text><line style="stroke:#EC7211;stroke-width:3.125;stroke-dasharray:2.0,2.0;" x1="602.6042" x2="646.3542" y1="486.2915" y2="486.2915"/><line style="stroke:#EC7211;stroke-width:3.125;stroke-dasharray:2.0,2.0;" x1="646.3542" x2="646.3542" y1="486.2915" y2="499.8332"/><line style="stroke:#EC7211;stroke-width:3.125;stroke-dasharray:2.0,2.0;" x1="603.6458" x2="646.3542" y1="499.8332" y2="499.8332"/><polygon fill="#EC7211" points="614.0625,495.6665,603.6458,499.8332,614.0625,503.9998,609.8958,499.8332" style="stroke:#EC7211;stroke-width:1.0416666666666667;"/><text fill="#4E5D6C" font-family="Verdana" font-size="12.5" lengthAdjust="spacing" textLength="196.875" x="615.1042" y="476.3753">buildRequest:&#26500;&#24314;SingleRequest</text><polygon fill="#EC7211" points="909.8958,510.2498,920.3125,514.4165,909.8958,518.5832,914.0625,514.4165" style="stroke:#EC7211;stroke-width:1.0416666666666667;"/><line style="stroke:#EC7211;stroke-width:3.125;stroke-dasharray:2.0,2.0;" x1="602.6042" x2="916.1458" y1="514.4165" y2="514.4165"/><line style="stroke:#EC7211;stroke-width:3.125;stroke-dasharray:2.0,2.0;" x1="922.3958" x2="966.1458" y1="554.6082" y2="554.6082"/><line style="stroke:#EC7211;stroke-width:3.125;stroke-dasharray:2.0,2.0;" x1="966.1458" x2="966.1458" y1="554.6082" y2="568.1498"/><line style="stroke:#EC7211;stroke-width:3.125;stroke-dasharray:2.0,2.0;" x1="923.4375" x2="966.1458" y1="568.1498" y2="568.1498"/><polygon fill="#EC7211" points="933.8542,563.9832,923.4375,568.1498,933.8542,572.3165,929.6875,568.1498" style="stroke:#EC7211;stroke-width:1.0416666666666667;"/><text fill="#4E5D6C" font-family="Verdana" font-size="12.5" lengthAdjust="spacing" textLength="315.625" x="934.8958" y="544.692">&#23558;SingleRequest&#32465;&#23450;&#21040;DrawableImageViewTarget&#19978;</text><polygon fill="#EC7211" points="614.0625,578.5665,603.6458,582.7332,614.0625,586.8998,609.8958,582.7332" style="stroke:#EC7211;stroke-width:1.0416666666666667;"/><line style="stroke:#EC7211;stroke-width:3.125;stroke-dasharray:2.0,2.0;" x1="607.8125" x2="921.3542" y1="582.7332" y2="582.7332"/><line style="stroke:#EC7211;stroke-width:3.125;stroke-dasharray:2.0,2.0;" x1="602.6042" x2="646.3542" y1="622.9248" y2="622.9248"/><line style="stroke:#EC7211;stroke-width:3.125;stroke-dasharray:2.0,2.0;" x1="646.3542" x2="646.3542" y1="622.9248" y2="636.4665"/><line style="stroke:#EC7211;stroke-width:3.125;stroke-dasharray:2.0,2.0;" x1="603.6458" x2="646.3542" y1="636.4665" y2="636.4665"/><polygon fill="#EC7211" points="614.0625,632.2998,603.6458,636.4665,614.0625,640.6331,609.8958,636.4665" style="stroke:#EC7211;stroke-width:1.0416666666666667;"/><text fill="#4E5D6C" font-family="Verdana" font-size="12.5" lengthAdjust="spacing" textLength="81.25" x="615.1042" y="613.0086">&#35843;&#29992;track&#26041;&#27861;</text><polygon fill="#EC7211" points="909.8958,646.8831,920.3125,651.0498,909.8958,655.2165,914.0625,651.0498" style="stroke:#EC7211;stroke-width:1.0416666666666667;"/><line style="stroke:#EC7211;stroke-width:3.125;stroke-dasharray:2.0,2.0;" x1="602.6042" x2="916.1458" y1="651.0498" y2="651.0498"/><line style="stroke:#EC7211;stroke-width:3.125;stroke-dasharray:2.0,2.0;" x1="922.3958" x2="966.1458" y1="691.2415" y2="691.2415"/><line style="stroke:#EC7211;stroke-width:3.125;stroke-dasharray:2.0,2.0;" x1="966.1458" x2="966.1458" y1="691.2415" y2="704.7831"/><line style="stroke:#EC7211;stroke-width:3.125;stroke-dasharray:2.0,2.0;" x1="923.4375" x2="966.1458" y1="704.7831" y2="704.7831"/><polygon fill="#EC7211" points="933.8542,700.6165,923.4375,704.7831,933.8542,708.9498,929.6875,704.7831" style="stroke:#EC7211;stroke-width:1.0416666666666667;"/><text fill="#4E5D6C" font-family="Verdana" font-size="12.5" lengthAdjust="spacing" textLength="83.3333" x="934.8958" y="681.3253">&#35843;&#29992;begin&#26041;&#27861;</text><line style="stroke:#EC7211;stroke-width:3.125;stroke-dasharray:2.0,2.0;" x1="922.3958" x2="966.1458" y1="744.9748" y2="744.9748"/><line style="stroke:#EC7211;stroke-width:3.125;stroke-dasharray:2.0,2.0;" x1="966.1458" x2="966.1458" y1="744.9748" y2="758.5164"/><line style="stroke:#EC7211;stroke-width:3.125;stroke-dasharray:2.0,2.0;" x1="923.4375" x2="966.1458" y1="758.5164" y2="758.5164"/><polygon fill="#EC7211" points="933.8542,754.3498,923.4375,758.5164,933.8542,762.6831,929.6875,758.5164" style="stroke:#EC7211;stroke-width:1.0416666666666667;"/><text fill="#4E5D6C" font-family="Verdana" font-size="12.5" lengthAdjust="spacing" textLength="256.25" x="934.8958" y="735.0586">&#33719;&#21462;DrawableImageViewTarget&#19978;view&#22823;&#23567;</text><line style="stroke:#EC7211;stroke-width:3.125;stroke-dasharray:2.0,2.0;" x1="922.3958" x2="966.1458" y1="798.7081" y2="798.7081"/><line style="stroke:#EC7211;stroke-width:3.125;stroke-dasharray:2.0,2.0;" x1="966.1458" x2="966.1458" y1="798.7081" y2="812.2498"/><line style="stroke:#EC7211;stroke-width:3.125;stroke-dasharray:2.0,2.0;" x1="923.4375" x2="966.1458" y1="812.2498" y2="812.2498"/><polygon fill="#EC7211" points="933.8542,808.0831,923.4375,812.2498,933.8542,816.4164,929.6875,812.2498" style="stroke:#EC7211;stroke-width:1.0416666666666667;"/><text fill="#4E5D6C" font-family="Verdana" font-size="12.5" lengthAdjust="spacing" textLength="128.125" x="934.8958" y="788.7919">&#22238;&#35843;onSizeReady&#26041;&#27861;</text><polygon fill="#EC7211" points="1250.5208,822.6664,1260.9375,826.8331,1250.5208,830.9998,1254.6875,826.8331" style="stroke:#EC7211;stroke-width:1.0416666666666667;"/><line style="stroke:#EC7211;stroke-width:3.125;stroke-dasharray:2.0,2.0;" x1="922.3958" x2="1256.7708" y1="826.8331" y2="826.8331"/><line style="stroke:#EC7211;stroke-width:3.125;stroke-dasharray:2.0,2.0;" x1="1263.0208" x2="1306.7708" y1="867.0247" y2="867.0247"/><line style="stroke:#EC7211;stroke-width:3.125;stroke-dasharray:2.0,2.0;" x1="1306.7708" x2="1306.7708" y1="867.0247" y2="880.5664"/><line style="stroke:#EC7211;stroke-width:3.125;stroke-dasharray:2.0,2.0;" x1="1264.0625" x2="1306.7708" y1="880.5664" y2="880.5664"/><polygon fill="#EC7211" points="1274.4792,876.3997,1264.0625,880.5664,1274.4792,884.7331,1270.3125,880.5664" style="stroke:#EC7211;stroke-width:1.0416666666666667;"/><text fill="#4E5D6C" font-family="Verdana" font-size="12.5" lengthAdjust="spacing" textLength="75" x="1275.5208" y="857.1086">&#35843;&#29992;load&#26041;&#27861;</text><line style="stroke:#EC7211;stroke-width:3.125;stroke-dasharray:2.0,2.0;" x1="1263.0208" x2="1306.7708" y1="920.7581" y2="920.7581"/><line style="stroke:#EC7211;stroke-width:3.125;stroke-dasharray:2.0,2.0;" x1="1306.7708" x2="1306.7708" y1="920.7581" y2="934.2997"/><line style="stroke:#EC7211;stroke-width:3.125;stroke-dasharray:2.0,2.0;" x1="1264.0625" x2="1306.7708" y1="934.2997" y2="934.2997"/><polygon fill="#EC7211" points="1274.4792,930.1331,1264.0625,934.2997,1274.4792,938.4664,1270.3125,934.2997" style="stroke:#EC7211;stroke-width:1.0416666666666667;"/><text fill="#4E5D6C" font-family="Verdana" font-size="12.5" lengthAdjust="spacing" textLength="164.5833" x="1275.5208" y="910.8419">&#21019;&#24314;EngineJob&#21644;DecodeJob</text><polygon fill="#EC7211" points="1440.1042,944.7164,1450.5208,948.8831,1440.1042,953.0497,1444.2708,948.8831" style="stroke:#EC7211;stroke-width:1.0416666666666667;"/><line style="stroke:#EC7211;stroke-width:3.125;stroke-dasharray:2.0,2.0;" x1="1263.0208" x2="1446.3542" y1="948.8831" y2="948.8831"/><line style="stroke:#EC7211;stroke-width:3.125;stroke-dasharray:2.0,2.0;" x1="1452.6042" x2="1496.3542" y1="989.0747" y2="989.0747"/><line style="stroke:#EC7211;stroke-width:3.125;stroke-dasharray:2.0,2.0;" x1="1496.3542" x2="1496.3542" y1="989.0747" y2="1002.6164"/><line style="stroke:#EC7211;stroke-width:3.125;stroke-dasharray:2.0,2.0;" x1="1453.6458" x2="1496.3542" y1="1002.6164" y2="1002.6164"/><polygon fill="#EC7211" points="1464.0625,998.4497,1453.6458,1002.6164,1464.0625,1006.783,1459.8958,1002.6164" style="stroke:#EC7211;stroke-width:1.0416666666666667;"/><text fill="#4E5D6C" font-family="Verdana" font-size="12.5" lengthAdjust="spacing" textLength="79.1667" x="1465.1042" y="979.1585">&#35843;&#29992;start&#26041;&#27861;</text><polygon fill="#EC7211" points="1836.9792,1013.033,1847.3958,1017.1997,1836.9792,1021.3664,1841.1458,1017.1997" style="stroke:#EC7211;stroke-width:1.0416666666666667;"/><line style="stroke:#EC7211;stroke-width:3.125;stroke-dasharray:2.0,2.0;" x1="1452.6042" x2="1843.2292" y1="1017.1997" y2="1017.1997"/><line style="stroke:#EC7211;stroke-width:3.125;stroke-dasharray:2.0,2.0;" x1="1849.4792" x2="1893.2292" y1="1057.3914" y2="1057.3914"/><line style="stroke:#EC7211;stroke-width:3.125;stroke-dasharray:2.0,2.0;" x1="1893.2292" x2="1893.2292" y1="1057.3914" y2="1070.933"/><line style="stroke:#EC7211;stroke-width:3.125;stroke-dasharray:2.0,2.0;" x1="1850.5208" x2="1893.2292" y1="1070.933" y2="1070.933"/><polygon fill="#EC7211" points="1860.9375,1066.7664,1850.5208,1070.933,1860.9375,1075.0997,1856.7708,1070.933" style="stroke:#EC7211;stroke-width:1.0416666666666667;"/><text fill="#4E5D6C" font-family="Verdana" font-size="12.5" lengthAdjust="spacing" textLength="160.4167" x="1861.9792" y="1047.4752">&#25191;&#34892;run&#65292;runWrapped&#26041;&#27861;</text><polygon fill="#EC7211" points="2250.5208,1081.3497,2260.9375,1085.5164,2250.5208,1089.683,2254.6875,1085.5164" style="stroke:#EC7211;stroke-width:1.0416666666666667;"/><line style="stroke:#EC7211;stroke-width:3.125;stroke-dasharray:2.0,2.0;" x1="1849.4792" x2="2256.7708" y1="1085.5164" y2="1085.5164"/><path d="M2150,1101.1414 L2278.125,1101.1414 L2278.125,1118.4163 L2267.7083,1128.833 L2145.8333,1128.833 L2145.8333,1105.308 A4.1667,4.1667 0 0 1 2150,1101.1414 " fill="#EEEEEE" style="stroke:#4E5D6C;stroke-width:1.5625;"/><rect fill="none" height="258.8582" rx="4.1667" ry="4.1667" style="stroke:#4E5D6C;stroke-width:1.5625;" width="606.7708" x="2145.8333" y="1101.1414"/><text fill="#0073BB" font-family="Verdana" font-size="12.5" font-weight="bold" lengthAdjust="spacing" textLength="75" x="2166.6667" y="1119.9585">&#21152;&#36733;&#32593;&#32476;&#36164;&#28304;</text><line style="stroke:#EC7211;stroke-width:3.125;stroke-dasharray:2.0,2.0;" x1="2263.0208" x2="2306.7708" y1="1160.6913" y2="1160.6913"/><line style="stroke:#EC7211;stroke-width:3.125;stroke-dasharray:2.0,2.0;" x1="2306.7708" x2="2306.7708" y1="1160.6913" y2="1174.233"/><line style="stroke:#EC7211;stroke-width:3.125;stroke-dasharray:2.0,2.0;" x1="2264.0625" x2="2306.7708" y1="1174.233" y2="1174.233"/><polygon fill="#EC7211" points="2274.4792,1170.0663,2264.0625,1174.233,2274.4792,1178.3997,2270.3125,1174.233" style="stroke:#EC7211;stroke-width:1.0416666666666667;"/><text fill="#4E5D6C" font-family="Verdana" font-size="12.5" lengthAdjust="spacing" textLength="83.3333" x="2275.5208" y="1150.7751">startNext&#26041;&#27861;</text><polygon fill="#EC7211" points="2516.1458,1184.6497,2526.5625,1188.8163,2516.1458,1192.983,2520.3125,1188.8163" style="stroke:#EC7211;stroke-width:1.0416666666666667;"/><line style="stroke:#EC7211;stroke-width:3.125;stroke-dasharray:2.0,2.0;" x1="2263.0208" x2="2522.3958" y1="1188.8163" y2="1188.8163"/><line style="stroke:#EC7211;stroke-width:3.125;stroke-dasharray:2.0,2.0;" x1="2528.6458" x2="2572.3958" y1="1229.008" y2="1229.008"/><line style="stroke:#EC7211;stroke-width:3.125;stroke-dasharray:2.0,2.0;" x1="2572.3958" x2="2572.3958" y1="1229.008" y2="1242.5496"/><line style="stroke:#EC7211;stroke-width:3.125;stroke-dasharray:2.0,2.0;" x1="2529.6875" x2="2572.3958" y1="1242.5496" y2="1242.5496"/><polygon fill="#EC7211" points="2540.1042,1238.383,2529.6875,1242.5496,2540.1042,1246.7163,2535.9375,1242.5496" style="stroke:#EC7211;stroke-width:1.0416666666666667;"/><text fill="#4E5D6C" font-family="Verdana" font-size="12.5" lengthAdjust="spacing" textLength="104.1667" x="2541.1458" y="1219.0918">&#35843;&#29992;loadData&#26041;&#27861;</text><line style="stroke:#EC7211;stroke-width:3.125;stroke-dasharray:2.0,2.0;" x1="2528.6458" x2="2572.3958" y1="1282.7413" y2="1282.7413"/><line style="stroke:#EC7211;stroke-width:3.125;stroke-dasharray:2.0,2.0;" x1="2572.3958" x2="2572.3958" y1="1282.7413" y2="1296.283"/><line style="stroke:#EC7211;stroke-width:3.125;stroke-dasharray:2.0,2.0;" x1="2529.6875" x2="2572.3958" y1="1296.283" y2="1296.283"/><polygon fill="#EC7211" points="2540.1042,1292.1163,2529.6875,1296.283,2540.1042,1300.4496,2535.9375,1296.283" style="stroke:#EC7211;stroke-width:1.0416666666666667;"/><text fill="#4E5D6C" font-family="Verdana" font-size="12.5" lengthAdjust="spacing" textLength="193.75" x="2541.1458" y="1272.8251">&#21457;&#36215;http&#35831;&#27714;&#65292;&#36820;&#22238;InputStream</text><polygon fill="#EC7211" points="2274.4792,1347.4996,2264.0625,1351.6663,2274.4792,1355.8329,2270.3125,1351.6663" style="stroke:#EC7211;stroke-width:1.0416666666666667;"/><line style="stroke:#EC7211;stroke-width:3.125;stroke-dasharray:2.0,2.0;" x1="2268.2292" x2="2527.6042" y1="1351.6663" y2="1351.6663"/><text fill="#4E5D6C" font-family="Verdana" font-size="12.5" lengthAdjust="spacing" textLength="230.2083" x="2285.9375" y="1326.5584">&#22238;&#35843;&#21040;SourceGenerator&#20013;&#30340;&#21311;&#21517;&#20869;&#37096;&#31867;</text><text fill="#4E5D6C" font-family="Verdana" font-size="12.5" lengthAdjust="spacing" textLength="186.4583" x="2285.9375" y="1341.7501">DataCallback&#30340;onDataReady&#20013;</text><path d="M2150,1374.5829 L2303.125,1374.5829 L2303.125,1391.8579 L2292.7083,1402.2746 L2145.8333,1402.2746 L2145.8333,1378.7496 A4.1667,4.1667 0 0 1 2150,1374.5829 " fill="#EEEEEE" style="stroke:#4E5D6C;stroke-width:1.5625;"/><rect fill="none" height="135.1583" rx="4.1667" ry="4.1667" style="stroke:#4E5D6C;stroke-width:1.5625;" width="386.9792" x="2145.8333" y="1374.5829"/><text fill="#0073BB" font-family="Verdana" font-size="12.5" font-weight="bold" lengthAdjust="spacing" textLength="100" x="2166.6667" y="1393.4001">&#20445;&#23384;&#21407;&#22987;&#22270;&#29255;&#36164;&#28304;</text><line style="stroke:#EC7211;stroke-width:3.125;stroke-dasharray:2.0,2.0;" x1="2263.0208" x2="2306.7708" y1="1434.1329" y2="1434.1329"/><line style="stroke:#EC7211;stroke-width:3.125;stroke-dasharray:2.0,2.0;" x1="2306.7708" x2="2306.7708" y1="1434.1329" y2="1447.6746"/><line style="stroke:#EC7211;stroke-width:3.125;stroke-dasharray:2.0,2.0;" x1="2264.0625" x2="2306.7708" y1="1447.6746" y2="1447.6746"/><polygon fill="#EC7211" points="2274.4792,1443.5079,2264.0625,1447.6746,2274.4792,1451.8412,2270.3125,1447.6746" style="stroke:#EC7211;stroke-width:1.0416666666666667;"/><text fill="#4E5D6C" font-family="Verdana" font-size="12.5" lengthAdjust="spacing" textLength="133.3333" x="2275.5208" y="1424.2167">&#20877;&#27425;&#25191;&#34892;startNext&#26041;&#27861;</text><line style="stroke:#EC7211;stroke-width:3.125;stroke-dasharray:2.0,2.0;" x1="2263.0208" x2="2306.7708" y1="1487.8662" y2="1487.8662"/><line style="stroke:#EC7211;stroke-width:3.125;stroke-dasharray:2.0,2.0;" x1="2306.7708" x2="2306.7708" y1="1487.8662" y2="1501.4079"/><line style="stroke:#EC7211;stroke-width:3.125;stroke-dasharray:2.0,2.0;" x1="2264.0625" x2="2306.7708" y1="1501.4079" y2="1501.4079"/><polygon fill="#EC7211" points="2274.4792,1497.2412,2264.0625,1501.4079,2274.4792,1505.5745,2270.3125,1501.4079" style="stroke:#EC7211;stroke-width:1.0416666666666667;"/><text fill="#4E5D6C" font-family="Verdana" font-size="12.5" lengthAdjust="spacing" textLength="239.5833" x="2275.5208" y="1477.95">cacheData&#20013;&#20445;&#23384;&#21407;&#22987;&#22270;&#29255;&#21040;&#26412;&#22320;&#30913;&#30424;&#32531;&#23384;</text><path d="M2150,1524.3245 L2314.5833,1524.3245 L2314.5833,1541.5995 L2304.1667,1552.0162 L2145.8333,1552.0162 L2145.8333,1528.4912 A4.1667,4.1667 0 0 1 2150,1524.3245 " fill="#EEEEEE" style="stroke:#4E5D6C;stroke-width:1.5625;"/><rect fill="none" height="164.325" rx="4.1667" ry="4.1667" style="stroke:#4E5D6C;stroke-width:1.5625;" width="1206.7708" x="2145.8333" y="1524.3245"/><text fill="#0073BB" font-family="Verdana" font-size="12.5" font-weight="bold" lengthAdjust="spacing" textLength="111.4583" x="2166.6667" y="1543.1417">&#27969;&#36716;&#25104;byteBuffer</text><polygon fill="#EC7211" points="2745.3125,1554.0995,2755.7292,1558.2662,2745.3125,1562.4329,2749.4792,1558.2662" style="stroke:#EC7211;stroke-width:1.0416666666666667;"/><line style="stroke:#EC7211;stroke-width:3.125;stroke-dasharray:2.0,2.0;" x1="2263.0208" x2="2751.5625" y1="1558.2662" y2="1558.2662"/><line style="stroke:#EC7211;stroke-width:3.125;stroke-dasharray:2.0,2.0;" x1="2757.8125" x2="2801.5625" y1="1598.4578" y2="1598.4578"/><line style="stroke:#EC7211;stroke-width:3.125;stroke-dasharray:2.0,2.0;" x1="2801.5625" x2="2801.5625" y1="1598.4578" y2="1611.9995"/><line style="stroke:#EC7211;stroke-width:3.125;stroke-dasharray:2.0,2.0;" x1="2758.8542" x2="2801.5625" y1="1611.9995" y2="1611.9995"/><polygon fill="#EC7211" points="2769.2708,1607.8328,2758.8542,1611.9995,2769.2708,1616.1662,2765.1042,1611.9995" style="stroke:#EC7211;stroke-width:1.0416666666666667;"/><text fill="#4E5D6C" font-family="Verdana" font-size="12.5" lengthAdjust="spacing" textLength="108.3333" x="2770.3125" y="1588.5417">&#35843;&#29992;startNext&#26041;&#27861;</text><polygon fill="#EC7211" points="2984.8958,1622.4162,2995.3125,1626.5828,2984.8958,1630.7495,2989.0625,1626.5828" style="stroke:#EC7211;stroke-width:1.0416666666666667;"/><line style="stroke:#EC7211;stroke-width:3.125;stroke-dasharray:2.0,2.0;" x1="2757.8125" x2="2991.1458" y1="1626.5828" y2="1626.5828"/><line style="stroke:#EC7211;stroke-width:3.125;stroke-dasharray:2.0,2.0;" x1="2997.3958" x2="3041.1458" y1="1666.7745" y2="1666.7745"/><line style="stroke:#EC7211;stroke-width:3.125;stroke-dasharray:2.0,2.0;" x1="3041.1458" x2="3041.1458" y1="1666.7745" y2="1680.3162"/><line style="stroke:#EC7211;stroke-width:3.125;stroke-dasharray:2.0,2.0;" x1="2998.4375" x2="3041.1458" y1="1680.3162" y2="1680.3162"/><polygon fill="#EC7211" points="3008.8542,1676.1495,2998.4375,1680.3162,3008.8542,1684.4828,3004.6875,1680.3162" style="stroke:#EC7211;stroke-width:1.0416666666666667;"/><text fill="#4E5D6C" font-family="Verdana" font-size="12.5" lengthAdjust="spacing" textLength="325" x="3009.8958" y="1656.8583">&#35843;&#29992;loadData&#26041;&#27861;&#65288;&#23558;InputStream&#36716;&#21270;&#25104;ByteBuffer&#65289;</text><polygon fill="#EC7211" points="2769.2708,1723.6328,2758.8542,1727.7995,2769.2708,1731.9661,2765.1042,1727.7995" style="stroke:#EC7211;stroke-width:1.0416666666666667;"/><line style="stroke:#EC7211;stroke-width:3.125;stroke-dasharray:2.0,2.0;" x1="2763.0208" x2="2996.3542" y1="1727.7995" y2="1727.7995"/><text fill="#4E5D6C" font-family="Verdana" font-size="12.5" lengthAdjust="spacing" textLength="144.7917" x="2780.7292" y="1717.8833">&#22238;&#35843;&#21040;onDataReady&#26041;&#27861;</text><path d="M1756.7708,1743.4245 L1834.8958,1743.4245 L1834.8958,1760.6995 L1824.4792,1771.1161 L1752.6042,1771.1161 L1752.6042,1747.5911 A4.1667,4.1667 0 0 1 1756.7708,1743.4245 " fill="#EEEEEE" style="stroke:#4E5D6C;stroke-width:1.5625;"/><rect fill="none" height="244.2749" rx="4.1667" ry="4.1667" style="stroke:#4E5D6C;stroke-width:1.5625;" width="1134.375" x="1752.6042" y="1743.4245"/><text fill="#0073BB" font-family="Verdana" font-size="12.5" font-weight="bold" lengthAdjust="spacing" textLength="25" x="1773.4375" y="1762.2416">&#35299;&#30721;</text><polygon fill="#EC7211" points="1860.9375,1798.8078,1850.5208,1802.9744,1860.9375,1807.1411,1856.7708,1802.9744" style="stroke:#EC7211;stroke-width:1.0416666666666667;"/><line style="stroke:#EC7211;stroke-width:3.125;stroke-dasharray:2.0,2.0;" x1="1854.6875" x2="2756.7708" y1="1802.9744" y2="1802.9744"/><text fill="#4E5D6C" font-family="Verdana" font-size="12.5" lengthAdjust="spacing" textLength="348.9583" x="1872.3958" y="1793.0583">&#22238;&#35843;&#21040;onDataFetcherReady&#65292;&#27880;&#24847;&#27492;&#26102;&#22238;&#35843;&#30340;dataSource&#26159;</text><text fill="#FF0000" font-family="Verdana" font-size="12.5" lengthAdjust="spacing" textLength="200" x="2221.3542" y="1793.0583">DataSource.DATA_DISK_CACHE</text><line style="stroke:#EC7211;stroke-width:3.125;stroke-dasharray:2.0,2.0;" x1="1849.4792" x2="1893.2292" y1="1843.1661" y2="1843.1661"/><line style="stroke:#EC7211;stroke-width:3.125;stroke-dasharray:2.0,2.0;" x1="1893.2292" x2="1893.2292" y1="1843.1661" y2="1856.7078"/><line style="stroke:#EC7211;stroke-width:3.125;stroke-dasharray:2.0,2.0;" x1="1850.5208" x2="1893.2292" y1="1856.7078" y2="1856.7078"/><polygon fill="#EC7211" points="1860.9375,1852.5411,1850.5208,1856.7078,1860.9375,1860.8744,1856.7708,1856.7078" style="stroke:#EC7211;stroke-width:1.0416666666666667;"/><text fill="#4E5D6C" font-family="Verdana" font-size="12.5" lengthAdjust="spacing" textLength="160.4167" x="1861.9792" y="1833.2499">&#25191;&#34892;run&#65292;runWrapped&#26041;&#27861;</text><line style="stroke:#EC7211;stroke-width:3.125;stroke-dasharray:2.0,2.0;" x1="1849.4792" x2="1893.2292" y1="1912.0911" y2="1912.0911"/><line style="stroke:#EC7211;stroke-width:3.125;stroke-dasharray:2.0,2.0;" x1="1893.2292" x2="1893.2292" y1="1912.0911" y2="1925.6327"/><line style="stroke:#EC7211;stroke-width:3.125;stroke-dasharray:2.0,2.0;" x1="1850.5208" x2="1893.2292" y1="1925.6327" y2="1925.6327"/><polygon fill="#EC7211" points="1860.9375,1921.4661,1850.5208,1925.6327,1860.9375,1929.7994,1856.7708,1925.6327" style="stroke:#EC7211;stroke-width:1.0416666666666667;"/><text fill="#4E5D6C" font-family="Verdana" font-size="12.5" lengthAdjust="spacing" textLength="262.5" x="1861.9792" y="1886.9832">decodeFromRetrievedData&#26041;&#27861;&#20013;&#24320;&#22987;&#35299;&#30721;&#65292;</text><text fill="#4E5D6C" font-family="Verdana" font-size="12.5" lengthAdjust="spacing" textLength="229.1667" x="1861.9792" y="1902.1749">&#25509;&#30528;&#35843;&#29992;decodeFromData&#25165;&#26159;&#30495;&#27491;&#35299;&#30721;</text><line style="stroke:#EC7211;stroke-width:3.125;stroke-dasharray:2.0,2.0;" x1="1849.4792" x2="1893.2292" y1="1965.8244" y2="1965.8244"/><line style="stroke:#EC7211;stroke-width:3.125;stroke-dasharray:2.0,2.0;" x1="1893.2292" x2="1893.2292" y1="1965.8244" y2="1979.366"/><line style="stroke:#EC7211;stroke-width:3.125;stroke-dasharray:2.0,2.0;" x1="1850.5208" x2="1893.2292" y1="1979.366" y2="1979.366"/><polygon fill="#EC7211" points="1860.9375,1975.1994,1850.5208,1979.366,1860.9375,1983.5327,1856.7708,1979.366" style="stroke:#EC7211;stroke-width:1.0416666666666667;"/><text fill="#4E5D6C" font-family="Verdana" font-size="12.5" lengthAdjust="spacing" textLength="336.4583" x="1861.9792" y="1955.9082">onResourceDecoded&#65288;&#35299;&#30721;&#25104;&#21151;&#22238;&#35843;&#65292;&#24320;&#22987;&#33719;&#21462;&#32534;&#30721;&#21442;&#25968;&#65289;</text><line style="stroke:#EC7211;stroke-width:3.125;stroke-dasharray:2.0,2.0;" x1="1849.4792" x2="1893.2292" y1="2026.8494" y2="2026.8494"/><line style="stroke:#EC7211;stroke-width:3.125;stroke-dasharray:2.0,2.0;" x1="1893.2292" x2="1893.2292" y1="2026.8494" y2="2040.391"/><line style="stroke:#EC7211;stroke-width:3.125;stroke-dasharray:2.0,2.0;" x1="1850.5208" x2="1893.2292" y1="2040.391" y2="2040.391"/><polygon fill="#EC7211" points="1860.9375,2036.2244,1850.5208,2040.391,1860.9375,2044.5577,1856.7708,2040.391" style="stroke:#EC7211;stroke-width:1.0416666666666667;"/><text fill="#4E5D6C" font-family="Verdana" font-size="12.5" lengthAdjust="spacing" textLength="151.0417" x="1861.9792" y="2016.9332">notifyEncodeAndRelease</text><path d="M818.2292,2056.016 L985.9375,2056.016 L985.9375,2073.291 L975.5208,2083.7077 L814.0625,2083.7077 L814.0625,2060.1827 A4.1667,4.1667 0 0 1 818.2292,2056.016 " fill="#EEEEEE" style="stroke:#4E5D6C;stroke-width:1.5625;"/><rect fill="none" height="324.6582" rx="4.1667" ry="4.1667" style="stroke:#4E5D6C;stroke-width:1.5625;" width="1296.875" x="814.0625" y="2056.016"/><text fill="#0073BB" font-family="Verdana" font-size="12.5" font-weight="bold" lengthAdjust="spacing" textLength="114.5833" x="834.8958" y="2074.8332">&#23637;&#31034;&#21040;imageView</text><line style="stroke:#EC7211;stroke-width:3.125;stroke-dasharray:2.0,2.0;" x1="1849.4792" x2="1893.2292" y1="2115.566" y2="2115.566"/><line style="stroke:#EC7211;stroke-width:3.125;stroke-dasharray:2.0,2.0;" x1="1893.2292" x2="1893.2292" y1="2115.566" y2="2129.1077"/><line style="stroke:#EC7211;stroke-width:3.125;stroke-dasharray:2.0,2.0;" x1="1850.5208" x2="1893.2292" y1="2129.1077" y2="2129.1077"/><polygon fill="#EC7211" points="1860.9375,2124.941,1850.5208,2129.1077,1860.9375,2133.2743,1856.7708,2129.1077" style="stroke:#EC7211;stroke-width:1.0416666666666667;"/><text fill="#4E5D6C" font-family="Verdana" font-size="12.5" lengthAdjust="spacing" textLength="231.25" x="1861.9792" y="2105.6498">notifyComplete&#65288;&#36890;&#30693;EngineJob&#22238;&#35843;&#65289;</text><polygon fill="#EC7211" points="1464.0625,2165.1326,1453.6458,2169.2993,1464.0625,2173.466,1459.8958,2169.2993" style="stroke:#EC7211;stroke-width:1.0416666666666667;"/><line style="stroke:#EC7211;stroke-width:3.125;stroke-dasharray:2.0,2.0;" x1="1457.8125" x2="1848.4375" y1="2169.2993" y2="2169.2993"/><text fill="#4E5D6C" font-family="Verdana" font-size="12.5" lengthAdjust="spacing" textLength="109.375" x="1475.5208" y="2159.3831">onResourceReady</text><polygon fill="#EC7211" points="1274.4792,2205.3243,1264.0625,2209.491,1274.4792,2213.6576,1270.3125,2209.491" style="stroke:#EC7211;stroke-width:1.0416666666666667;"/><line style="stroke:#EC7211;stroke-width:3.125;stroke-dasharray:2.0,2.0;" x1="1268.2292" x2="1451.5625" y1="2209.491" y2="2209.491"/><text fill="#4E5D6C" font-family="Verdana" font-size="12.5" lengthAdjust="spacing" textLength="136.4583" x="1285.9375" y="2199.5748">onEngineJobComplete</text><line style="stroke:#EC7211;stroke-width:3.125;stroke-dasharray:2.0,2.0;" x1="1452.6042" x2="1496.3542" y1="2264.8743" y2="2264.8743"/><line style="stroke:#EC7211;stroke-width:3.125;stroke-dasharray:2.0,2.0;" x1="1496.3542" x2="1496.3542" y1="2264.8743" y2="2278.4159"/><line style="stroke:#EC7211;stroke-width:3.125;stroke-dasharray:2.0,2.0;" x1="1453.6458" x2="1496.3542" y1="2278.4159" y2="2278.4159"/><polygon fill="#EC7211" points="1464.0625,2274.2493,1453.6458,2278.4159,1464.0625,2282.5826,1459.8958,2278.4159" style="stroke:#EC7211;stroke-width:1.0416666666666667;"/><text fill="#4E5D6C" font-family="Verdana" font-size="12.5" lengthAdjust="spacing" textLength="371.875" x="1465.1042" y="2239.7664">&#22312;notifyCallbacksOfResult&#26041;&#27861;&#20013;&#25191;&#34892;&#20869;&#37096;&#31867;CallResourceReady</text><text fill="#4E5D6C" font-family="Verdana" font-size="12.5" lengthAdjust="spacing" textLength="110.4167" x="1465.1042" y="2254.9581">(&#24320;&#22987;&#20999;&#25442;&#21040;&#20027;&#32447;&#31243;)</text><polygon fill="#EC7211" points="933.8542,2314.4409,923.4375,2318.6076,933.8542,2322.7743,929.6875,2318.6076" style="stroke:#EC7211;stroke-width:1.0416666666666667;"/><line style="stroke:#EC7211;stroke-width:3.125;stroke-dasharray:2.0,2.0;" x1="927.6042" x2="1451.5625" y1="2318.6076" y2="2318.6076"/><text fill="#4E5D6C" font-family="Verdana" font-size="12.5" lengthAdjust="spacing" textLength="244.7917" x="945.3125" y="2308.6914">onResourceReady(&#22238;&#35843;&#21040;SingleRequest)</text><line style="stroke:#EC7211;stroke-width:3.125;stroke-dasharray:2.0,2.0;" x1="922.3958" x2="966.1458" y1="2358.7992" y2="2358.7992"/><line style="stroke:#EC7211;stroke-width:3.125;stroke-dasharray:2.0,2.0;" x1="966.1458" x2="966.1458" y1="2358.7992" y2="2372.3409"/><line style="stroke:#EC7211;stroke-width:3.125;stroke-dasharray:2.0,2.0;" x1="923.4375" x2="966.1458" y1="2372.3409" y2="2372.3409"/><polygon fill="#EC7211" points="933.8542,2368.1742,923.4375,2372.3409,933.8542,2376.5076,929.6875,2372.3409" style="stroke:#EC7211;stroke-width:1.0416666666666667;"/><text fill="#4E5D6C" font-family="Verdana" font-size="12.5" lengthAdjust="spacing" textLength="281.25" x="934.8958" y="2348.8831">&#22312;DrawableImageViewTarget&#19978;&#30340;view&#23637;&#31034;&#22270;&#29255;</text><path d="M1756.7708,2395.2576 L1834.8958,2395.2576 L1834.8958,2412.5326 L1824.4792,2422.9492 L1752.6042,2422.9492 L1752.6042,2399.4242 A4.1667,4.1667 0 0 1 1756.7708,2395.2576 " fill="#EEEEEE" style="stroke:#4E5D6C;stroke-width:1.5625;"/><rect fill="none" height="135.1583" rx="4.1667" ry="4.1667" style="stroke:#4E5D6C;stroke-width:1.5625;" width="515.625" x="1752.6042" y="2395.2576"/><text fill="#0073BB" font-family="Verdana" font-size="12.5" font-weight="bold" lengthAdjust="spacing" textLength="25" x="1773.4375" y="2414.0747">&#32534;&#30721;</text><line style="stroke:#EC7211;stroke-width:3.125;stroke-dasharray:2.0,2.0;" x1="1849.4792" x2="1893.2292" y1="2454.8075" y2="2454.8075"/><line style="stroke:#EC7211;stroke-width:3.125;stroke-dasharray:2.0,2.0;" x1="1893.2292" x2="1893.2292" y1="2454.8075" y2="2468.3492"/><line style="stroke:#EC7211;stroke-width:3.125;stroke-dasharray:2.0,2.0;" x1="1850.5208" x2="1893.2292" y1="2468.3492" y2="2468.3492"/><polygon fill="#EC7211" points="1860.9375,2464.1825,1850.5208,2468.3492,1860.9375,2472.5159,1856.7708,2468.3492" style="stroke:#EC7211;stroke-width:1.0416666666666667;"/><text fill="#4E5D6C" font-family="Verdana" font-size="12.5" lengthAdjust="spacing" textLength="388.5417" x="1861.9792" y="2444.8914">&#24320;&#22987;&#32534;&#30721;&#65292;&#35843;&#29992;DecodeJob.DeferredEncodeManager&#30340;encode&#26041;&#27861;</text><line style="stroke:#EC7211;stroke-width:3.125;stroke-dasharray:2.0,2.0;" x1="1849.4792" x2="1893.2292" y1="2508.5409" y2="2508.5409"/><line style="stroke:#EC7211;stroke-width:3.125;stroke-dasharray:2.0,2.0;" x1="1893.2292" x2="1893.2292" y1="2508.5409" y2="2522.0825"/><line style="stroke:#EC7211;stroke-width:3.125;stroke-dasharray:2.0,2.0;" x1="1850.5208" x2="1893.2292" y1="2522.0825" y2="2522.0825"/><polygon fill="#EC7211" points="1860.9375,2517.9159,1850.5208,2522.0825,1860.9375,2526.2492,1856.7708,2522.0825" style="stroke:#EC7211;stroke-width:1.0416666666666667;"/><text fill="#4E5D6C" font-family="Verdana" font-size="12.5" lengthAdjust="spacing" textLength="366.6667" x="1861.9792" y="2498.6247">&#26368;&#32456;&#35843;&#29992;DiskLruCacheWrapper&#23558;&#35299;&#30721;&#21518;&#30340;bitmap&#20445;&#23384;&#21040;&#30913;&#30424;&#20013;</text><!--SRC=[fLPDJnj76BxxLpYdm06uMsaaWab2cxOI9Eq5AHfxnsQLzQmxdWsb9qY0630OMg08J0Y52Ak2OXHH23RXptXsDoV-Gj_TMU-d7LVAnTvvlp-UUT-vmoPm3iVHPA5FfOXaSUpk16FvGc9W8AyWmhISqfzMSmC5_8k6IHhtIJBAKfIBtKKQKucMIs4QknCnagMgbezd5Ld2lBZBZvPuQJFso3hszTst_nDPpFJDZ_g7ZTl6jYl3ow_qZTfjeyINDvgVbdXnXzUlR7b- -j4ystTjZ5hn5DZtYA0ifgEOKHc_nDIose4LmqIAst75EaX4p7enneZAS9pAsGaMqq_BpSlfvkNVJ-GCJa-b5IisVhKkY44BjbDBD-GpwafHaTIZKQMtgoGgk7NJtyv2VHp-0qrM973PJLycJEsHS_3zaumdk_lZfJdpOCvLWEO8jqcA9b5AmICjpbD4eM1TxQMiE1rQGfWQaqbMmGujQY383fp2t0IlpGS8HdsD_mC0gtK8jtcv6B4Owc6tXCpQQsEzoYXAlt3GybKP27Cfd9M9OwwB_Ce5BszsJkyb7FZX4Q-LkvLkvotuLicO_1lGa3JLmVqmWT1mJFovPoTk2yUENbX0t6Pn-5PDyTzBIPnM9UixBEkHuCjFTRmK6A8iu4R8UGRTBpyreIyScVibgX50CVp-J54-Zrln-bN6L8scyIDCC4LCfSv0uullpEjhuthDg5VCyrdzQZKM4eog9knOVy2_jkADQZo6YVkCAWynIqy0teB72DzNw2HYoB7QJOcNrypp2skscwSN-jahA81vimuj7o5vZOqnYc6eHuo4Sn4GWTiKOZGlJupjMLwwuQlBV7xky-kgSLOV9rPyGqXHKd0rWA_Q11jQeE0RoAAwpPjTVhB5L_QiNR3poLXuyxzhpEUNzUDzqTtkzGvhfn6aQuK6KKM3W6proZ6lr8o36MDdosZy0GAHuFNp6VFwM2-kfgOOVg1bCj38g6TH4F3c8IjAQYld1xulkRRQ3zmGMf2AKDf9jGNMRQC88zK74iWI5ZKawkdVDXPyzMZdgqq-BfHyg72I4XKrZmwCTpCTwkFUw90PnwLjpTfK7whwR5a_ETJ__5T80Wmba1EjqRTExsLKmk9fLL5f_1kA9JjKmUrF3ZuTV9uS6Vlk-T3WqEFXUmEMxFsl7IsUYcH_FQHghlK6yHKUiCWRqu12KGUmEaxqbVV6xhHeawTiwomiGp96PKy_EMWLhgrFbOpYWfsUe4dGOA40BUMBUw9ArWjCEBUNYz7O187MuypVxFPEuCKZPwQ6YNKU9B3i5OmAhLSXFzim3g-WO-wJuejMXjHSNi4CGvoVfxUDlVVU0d52NGZeUwl2IzM6Gvk50Y8kiUMdmzxXbQeJZpFF2ZzcmBocCBTT0W7k-BC40m6CanvHL5vyeo__1HLeNjQDgnkZkjGRy1fSow4qUhmPx1VhxRRSAzNEJmIu5FOhGNJ6ddgH0ISmqA5L8YyXOcqM6w4kkp-9OHh0vHA8S9v5u1JRvo_U4RqoRTIBZa6vyE89rUnf8EuNXTaaqCjNLy1WIcOvb7TcUD6Ps85Tyny0]--></g></svg>